{"glyphs":{"0":{"ha":847,"x_min":35,"x_max":813,"o":"m 424 1047 q 710 913 607 1047 q 813 561 813 779 l 813 467 q 709 115 813 250 q 424 -21 606 -21 q 138 115 240 -21 q 35 467 35 250 l 35 561 q 138 913 35 779 q 424 1047 242 1047 m 424 843 q 282 744 324 843 l 589 357 q 600 497 600 421 l 600 531 q 424 843 600 843 m 424 183 q 563 275 518 183 l 257 661 q 247 531 247 608 l 247 497 q 424 183 247 183 z "},"1":{"ha":847,"x_min":49,"x_max":799,"o":"m 64 0 q 49 15 49 0 l 49 175 q 64 190 49 190 l 349 190 l 349 818 l 68 715 q 55 717 61 713 q 49 729 49 722 l 49 901 q 63 922 49 917 l 336 1026 l 538 1026 q 553 1011 553 1026 l 553 190 l 783 190 q 799 175 799 190 l 799 15 q 783 0 799 0 l 64 0 z "},"2":{"ha":847,"x_min":44,"x_max":824,"o":"m 800 201 q 817 185 817 201 l 817 17 q 800 0 817 0 l 61 0 q 44 17 44 0 l 44 179 q 56 281 44 242 q 108 360 68 321 q 213 435 149 400 q 394 522 278 471 q 560 614 514 571 q 607 717 607 657 q 567 810 607 776 q 454 843 526 843 q 271 664 275 843 q 254 647 269 647 l 63 647 q 46 665 44 647 q 163 944 51 842 q 458 1047 275 1047 q 731 962 639 1047 q 824 722 824 876 q 748 510 824 589 q 486 357 672 432 q 312 272 346 297 q 276 201 278 247 l 800 201 z "},"3":{"ha":847,"x_min":42,"x_max":799,"o":"m 685 529 q 799 297 799 458 q 699 66 799 151 q 429 -19 600 -19 q 138 77 232 -19 q 42 376 44 174 q 58 394 42 394 l 244 394 q 261 378 261 394 q 301 227 263 272 q 429 182 340 182 q 543 214 503 182 q 583 303 583 246 q 418 426 583 426 l 342 426 q 325 443 325 426 l 325 601 q 342 618 325 618 l 419 618 q 578 732 578 618 q 541 817 578 786 q 438 847 504 847 q 307 800 347 847 q 264 649 267 753 q 247 631 264 631 l 63 631 q 46 649 44 631 q 148 945 49 843 q 438 1047 247 1047 q 696 967 603 1047 q 789 743 789 886 q 685 529 789 600 z "},"4":{"ha":847,"x_min":14,"x_max":838,"o":"m 822 399 q 838 383 838 399 l 838 224 q 822 208 838 208 l 731 208 l 731 15 q 715 0 731 0 l 544 0 q 528 15 528 0 l 528 208 l 29 208 q 14 224 14 208 l 14 424 q 21 440 14 433 l 507 1018 q 526 1026 513 1026 l 715 1026 q 731 1011 731 1026 l 731 399 l 822 399 m 232 399 l 528 399 l 528 743 l 232 399 z "},"5":{"ha":847,"x_min":25,"x_max":793,"o":"m 419 -19 q 28 350 40 -19 q 43 368 25 368 l 236 368 q 253 347 253 368 q 295 224 256 263 q 418 185 335 185 q 538 223 496 185 q 579 326 579 261 q 400 468 579 468 l 79 468 q 65 485 63 468 l 101 1010 q 118 1026 103 1026 l 753 1026 q 768 1010 768 1026 l 769 853 q 754 836 769 836 l 288 836 l 276 658 l 433 658 q 793 325 793 658 q 692 74 793 168 q 419 -19 590 -19 z "},"6":{"ha":847,"x_min":33,"x_max":813,"o":"m 478 650 q 724 565 636 650 q 813 328 813 479 q 705 74 811 168 q 428 -21 599 -21 q 135 99 236 -21 q 33 438 33 218 l 33 549 q 139 914 33 783 q 439 1044 244 1044 q 704 962 608 1044 q 808 726 800 879 q 792 711 808 711 l 599 711 q 582 726 583 711 q 543 811 581 776 q 439 846 506 846 q 297 781 346 846 q 247 593 247 717 l 247 576 q 478 650 324 650 m 432 179 q 553 217 508 179 q 597 319 597 254 q 553 418 597 381 q 432 456 508 456 q 310 418 356 456 q 264 318 264 381 q 309 217 264 254 q 432 179 354 179 z "},"7":{"ha":847,"x_min":35,"x_max":832,"o":"m 815 1026 q 832 1011 832 1026 l 832 836 q 822 815 832 819 q 669 673 728 738 q 571 546 610 608 q 513 401 532 483 q 488 236 494 319 q 482 19 482 153 q 461 0 482 0 l 276 0 q 257 22 257 0 q 328 511 257 338 q 594 836 399 685 l 50 836 q 35 851 35 836 l 35 1011 q 50 1026 35 1026 l 815 1026 z "},"8":{"ha":847,"x_min":47,"x_max":799,"o":"m 422 -19 q 147 65 247 -19 q 47 294 47 150 l 47 296 q 78 434 47 372 q 161 525 110 496 q 85 614 114 556 q 56 738 56 672 l 56 739 q 154 965 56 883 q 421 1047 253 1047 l 422 1047 q 695 967 600 1047 q 790 740 790 886 l 790 739 q 760 613 790 671 q 682 525 731 556 q 767 435 736 496 q 799 297 799 374 l 799 296 q 701 64 799 147 q 424 -19 603 -19 l 422 -19 m 422 615 q 536 646 496 615 q 576 731 576 676 l 576 732 q 535 817 576 786 q 422 847 494 847 q 310 817 350 847 q 271 733 271 788 l 271 732 q 310 647 271 678 q 422 615 350 615 m 422 182 q 541 215 499 182 q 583 304 583 247 l 583 306 q 540 395 583 363 q 422 428 497 428 q 305 396 347 428 q 263 307 263 364 l 263 306 q 305 215 263 247 q 422 182 347 182 z "},"9":{"ha":847,"x_min":13,"x_max":790,"o":"m 401 1044 q 691 928 592 1044 q 790 588 790 813 l 790 475 q 690 106 790 232 q 388 -21 589 -21 q 117 60 214 -21 q 13 297 19 140 q 29 314 13 314 l 221 314 q 236 297 236 314 q 278 211 239 243 q 388 179 317 179 q 578 432 578 179 l 578 443 q 361 375 501 375 q 103 462 194 375 q 13 706 13 549 q 119 949 13 853 q 401 1044 226 1044 m 271 606 q 293 588 271 606 q 392 569 315 569 q 513 607 468 569 q 558 706 558 644 q 514 807 558 769 q 392 844 469 844 q 270 807 314 844 q 226 704 226 769 q 271 606 226 643 z "}," ":{"ha":282,"x_min":0,"x_max":0,"o":""},"!":{"ha":282,"x_min":31,"x_max":251,"o":"m 85 354 q 69 369 69 354 l 31 1011 q 46 1026 31 1026 l 236 1026 q 251 1011 251 1026 l 213 369 q 197 354 213 354 l 85 354 m 50 0 q 33 15 33 0 l 33 201 q 50 217 33 217 l 233 217 q 250 201 250 217 l 250 15 q 233 0 250 0 l 50 0 z "},"\"":{"ha":565,"x_min":38,"x_max":526,"o":"m 89 569 q 74 590 75 569 l 40 1006 q 57 1026 38 1026 l 225 1026 q 243 1006 246 1026 l 204 590 q 189 569 203 569 l 89 569 m 369 569 q 360 575 365 569 q 354 590 356 581 l 322 1006 q 338 1026 319 1026 l 507 1026 q 524 1006 526 1026 l 486 590 q 471 569 483 569 l 369 569 z "},"#":{"ha":847,"x_min":44,"x_max":814,"o":"m 165 -143 q 150 -118 144 -143 l 213 258 l 63 258 q 44 276 44 258 l 44 313 q 63 328 44 328 l 224 328 l 285 688 l 100 688 q 81 704 81 688 l 81 740 q 100 757 81 757 l 296 757 l 350 1089 q 372 1110 354 1110 l 415 1110 q 426 1089 429 1110 l 371 757 l 564 757 l 619 1089 q 639 1110 622 1110 l 685 1110 q 694 1089 700 1110 l 639 757 l 794 757 q 814 740 814 757 l 814 704 q 794 688 814 688 l 628 688 l 568 328 l 758 328 q 776 313 776 328 l 776 276 q 758 258 776 258 l 556 258 l 493 -121 q 469 -143 488 -143 l 429 -143 q 415 -117 413 -143 l 478 258 l 289 258 l 225 -122 q 201 -143 221 -143 l 165 -143 m 299 328 l 492 328 l 553 688 l 361 688 l 299 328 z "},"$":{"ha":847,"x_min":42,"x_max":804,"o":"m 804 286 q 710 66 803 144 q 457 -19 617 -12 l 457 -187 q 442 -203 457 -203 l 401 -203 q 388 -187 388 -203 l 388 -18 q 138 71 228 -10 q 42 311 47 151 q 58 328 42 328 l 254 328 q 272 311 272 328 q 315 214 274 247 q 428 181 357 181 q 590 292 590 181 q 549 373 590 347 q 379 429 508 399 q 138 538 211 468 q 65 735 65 608 q 153 951 65 868 q 388 1046 240 1035 l 388 1214 q 401 1231 388 1231 l 442 1231 q 457 1214 457 1231 l 457 1047 q 701 953 613 1039 q 799 714 789 868 q 782 697 799 697 l 592 697 q 575 714 578 697 q 533 815 572 779 q 425 850 494 850 q 318 822 357 850 q 279 742 279 794 q 318 665 279 689 q 475 614 357 642 q 725 502 646 572 q 804 286 804 432 z "},"%":{"ha":847,"x_min":44,"x_max":811,"o":"m 119 -28 l 86 -6 q 79 22 71 6 l 704 1036 q 733 1044 715 1056 l 765 1024 q 772 996 783 1013 l 147 -19 q 119 -28 135 -37 m 343 731 q 317 705 343 731 q 219 679 292 679 q 96 731 147 679 q 44 854 44 782 q 96 979 44 928 q 219 1031 147 1031 q 343 978 292 1031 q 394 854 394 926 q 343 731 394 782 m 145 780 q 160 764 145 780 q 219 749 175 749 q 294 780 264 749 q 325 854 325 811 q 294 930 325 897 q 219 963 264 963 q 145 931 175 963 q 115 854 115 899 q 145 780 115 811 m 760 38 q 734 12 760 38 q 636 -14 708 -14 q 512 38 564 -14 q 460 163 460 89 q 512 286 460 235 q 636 338 564 338 q 760 286 708 338 q 811 163 811 235 q 760 38 811 89 m 561 88 q 576 72 561 88 q 636 56 592 56 q 710 88 681 56 q 740 163 740 119 q 710 238 740 206 q 636 269 681 269 q 561 238 592 269 q 531 163 531 206 q 561 88 531 119 z "},"&":{"ha":847,"x_min":33,"x_max":831,"o":"m 814 618 q 825 613 819 618 q 831 601 831 608 l 831 443 q 814 426 831 426 l 767 426 l 767 333 q 674 75 767 169 q 396 -19 582 -19 q 133 63 232 -19 q 33 289 33 146 q 154 524 33 444 q 42 749 42 596 q 136 963 42 879 q 406 1047 231 1047 q 674 955 574 1047 q 778 693 774 863 q 760 674 778 674 l 575 674 q 558 692 560 674 q 515 806 554 764 q 406 847 476 847 q 294 817 333 847 q 256 732 256 786 q 413 618 256 618 l 814 618 m 550 347 l 550 426 l 414 426 q 292 392 333 426 q 250 297 250 358 q 289 214 250 246 q 396 182 328 182 q 512 220 474 182 q 550 347 550 258 z "},"'":{"ha":282,"x_min":38,"x_max":246,"o":"m 89 569 q 74 590 75 569 l 40 1006 q 57 1026 38 1026 l 225 1026 q 243 1006 246 1026 l 204 590 q 189 569 203 569 l 89 569 z "},"(":{"ha":565,"x_min":190,"x_max":440,"o":"m 365 -146 q 340 -128 350 -146 q 190 483 190 132 q 233 829 190 671 q 340 1093 276 988 q 365 1110 350 1110 l 426 1110 q 436 1104 433 1110 q 436 1094 439 1099 q 318 838 363 996 q 274 483 274 681 q 438 -129 274 140 q 438 -141 440 -136 q 428 -146 435 -146 l 365 -146 z "},")":{"ha":565,"x_min":125,"x_max":375,"o":"m 200 1110 q 225 1093 214 1110 q 375 482 375 833 q 332 137 375 296 q 225 -128 289 -22 q 200 -146 214 -146 l 139 -146 q 129 -140 132 -146 q 129 -129 126 -135 q 247 127 203 -31 q 292 482 292 285 q 128 1093 292 826 q 128 1105 125 1100 q 138 1110 131 1110 l 200 1110 z "},"*":{"ha":565,"x_min":15,"x_max":554,"o":"m 269 357 q 254 372 254 357 l 254 618 l 81 444 q 58 444 69 433 l 38 465 q 38 488 26 476 l 211 661 l 31 661 q 15 676 15 661 l 15 707 q 31 722 15 722 l 211 722 l 38 896 q 38 918 26 907 l 58 939 q 81 939 69 950 l 254 765 l 254 1011 q 269 1026 254 1026 l 300 1026 q 315 1011 315 1026 l 315 765 l 489 939 q 511 939 500 950 l 532 918 q 532 896 543 907 l 358 722 l 539 722 q 554 707 554 722 l 554 676 q 539 661 554 661 l 358 661 l 532 488 q 532 465 543 476 l 511 444 q 489 444 500 433 l 315 618 l 315 372 q 300 357 315 357 l 269 357 z "},"+":{"ha":847,"x_min":46,"x_max":803,"o":"m 786 553 q 803 539 803 553 l 803 499 q 786 483 803 483 l 458 483 l 458 174 q 444 158 458 158 l 404 158 q 389 174 389 158 l 389 483 l 61 483 q 46 499 46 483 l 46 539 q 61 553 46 553 l 389 553 l 389 863 q 404 879 389 879 l 444 879 q 458 863 458 879 l 458 553 l 786 553 z "},",":{"ha":282,"x_min":15,"x_max":261,"o":"m 79 -307 q 56 -312 71 -317 q 28 -295 40 -308 q 21 -272 15 -282 l 181 0 l 58 0 q 42 17 42 0 l 42 200 q 58 217 42 217 l 244 217 q 261 200 261 217 l 261 17 q 249 -14 261 6 l 79 -307 z "},"-":{"ha":565,"x_min":81,"x_max":485,"o":"m 96 354 q 81 369 81 354 l 81 410 q 96 424 81 424 l 469 424 q 485 410 485 424 l 485 369 q 469 354 485 354 l 96 354 z "},".":{"ha":282,"x_min":32,"x_max":249,"o":"m 49 0 q 32 15 32 0 l 32 201 q 49 217 32 217 l 232 217 q 249 201 249 217 l 249 15 q 232 0 249 0 l 49 0 z "},"/":{"ha":847,"x_min":68,"x_max":782,"o":"m 117 -28 l 85 -6 q 78 22 68 7 l 701 1036 q 731 1044 714 1056 l 763 1024 q 769 996 782 1011 l 144 -19 q 117 -28 132 -37 z "},":":{"ha":282,"x_min":32,"x_max":249,"o":"m 49 414 q 32 429 32 414 l 32 615 q 49 631 32 631 l 232 631 q 249 615 249 631 l 249 429 q 232 414 249 414 l 49 414 m 49 0 q 32 15 32 0 l 32 201 q 49 217 32 217 l 232 217 q 249 201 249 217 l 249 15 q 232 0 249 0 l 49 0 z "},";":{"ha":282,"x_min":14,"x_max":258,"o":"m 58 411 q 43 426 43 411 l 43 613 q 58 628 43 628 l 243 628 q 258 613 258 628 l 258 426 q 243 411 258 411 l 58 411 m 78 -307 q 54 -312 69 -317 q 26 -295 39 -308 q 19 -272 14 -282 l 179 0 l 57 0 q 39 17 39 0 l 39 200 q 57 217 39 217 l 242 217 q 258 200 258 217 l 258 17 q 247 -14 258 7 l 78 -307 z "},"=":{"ha":847,"x_min":144,"x_max":703,"o":"m 161 608 q 144 624 144 608 l 144 664 q 161 678 144 678 l 688 678 q 703 664 703 678 l 703 624 q 688 608 703 608 l 161 608 m 161 326 q 144 342 144 326 l 144 382 q 161 396 144 396 l 688 396 q 703 382 703 396 l 703 342 q 688 326 703 326 l 161 326 z "},"?":{"ha":847,"x_min":40,"x_max":819,"o":"m 306 288 q 290 304 290 288 q 327 454 290 403 q 465 554 364 506 q 577 623 549 592 q 606 718 606 654 q 566 811 606 778 q 450 844 526 844 q 315 799 364 844 q 263 663 265 754 q 247 647 263 647 l 61 647 q 43 667 40 647 q 160 947 49 847 q 450 1047 272 1047 q 728 962 638 1044 q 819 729 819 879 q 760 535 819 608 q 588 418 700 463 q 512 372 531 392 q 493 304 493 353 q 478 288 493 288 l 306 288 m 300 0 q 285 15 285 0 l 285 201 q 300 217 285 217 l 485 217 q 500 201 500 217 l 500 15 q 485 0 500 0 l 300 0 z "},"@":{"ha":847,"x_min":57,"x_max":806,"o":"m 436 1040 q 708 940 611 1040 q 806 650 806 840 l 806 15 q 790 0 806 0 l 572 0 q 307 267 307 0 l 307 429 q 367 631 307 564 q 526 699 428 699 q 599 685 569 699 q 436 836 572 836 q 303 776 349 836 q 258 604 258 715 l 258 15 q 243 0 258 0 l 72 0 q 57 15 57 0 l 57 649 q 165 935 57 829 q 436 1040 274 1040 m 606 190 l 606 414 q 597 480 606 460 q 561 500 588 500 q 511 417 511 500 l 511 263 q 568 190 511 190 l 606 190 z "},"A":{"ha":847,"x_min":10,"x_max":839,"o":"m 833 17 q 821 0 839 0 l 625 0 q 608 13 610 0 l 576 153 l 267 153 l 236 13 q 219 0 235 0 l 28 0 q 14 17 10 0 l 263 1013 q 279 1026 267 1026 l 567 1026 q 583 1013 579 1026 l 833 17 m 311 350 l 532 350 l 424 832 l 417 832 l 311 350 z "},"B":{"ha":847,"x_min":85,"x_max":797,"o":"m 681 518 q 797 294 797 447 q 705 81 797 161 q 451 0 613 0 l 100 0 q 85 15 85 0 l 85 1011 q 100 1026 85 1026 l 446 1026 q 699 946 607 1026 q 790 731 790 865 q 681 518 790 589 m 288 836 l 288 613 l 436 613 q 539 642 501 613 q 576 726 576 672 q 539 806 576 776 q 436 836 501 836 l 288 836 m 442 190 q 546 222 508 190 q 583 307 583 253 q 545 390 583 357 q 442 422 507 422 l 288 422 l 288 190 l 442 190 z "},"C":{"ha":847,"x_min":35,"x_max":804,"o":"m 422 -19 q 138 115 240 -19 q 35 468 35 250 l 35 561 q 138 912 35 778 q 422 1047 242 1046 q 697 938 604 1047 q 801 639 789 828 q 786 619 804 619 l 600 619 q 582 636 583 619 q 424 843 564 843 q 294 765 340 843 q 249 529 249 688 l 249 500 q 424 185 249 185 q 582 393 564 185 q 600 408 583 408 l 786 408 q 801 390 804 408 q 694 94 789 208 q 422 -19 600 -19 z "},"D":{"ha":847,"x_min":83,"x_max":813,"o":"m 99 0 q 83 15 83 0 l 83 1011 q 99 1026 83 1026 l 356 1026 q 687 894 561 1026 q 813 540 813 763 l 813 488 q 685 137 813 274 q 354 0 557 0 l 99 0 m 286 190 l 367 192 q 537 276 469 192 q 604 499 604 361 l 604 529 q 537 751 604 667 q 367 836 469 835 l 286 836 l 286 190 z "},"E":{"ha":847,"x_min":83,"x_max":796,"o":"m 99 0 q 83 15 83 0 l 83 1011 q 99 1026 83 1026 l 779 1026 q 794 1011 794 1026 l 794 851 q 779 836 794 836 l 286 836 l 286 618 l 685 618 q 700 603 700 618 l 700 442 q 685 426 700 426 l 286 426 l 286 190 l 781 190 q 796 175 796 190 l 796 15 q 781 0 796 0 l 99 0 z "},"F":{"ha":847,"x_min":83,"x_max":803,"o":"m 99 0 q 83 15 83 0 l 83 1011 q 99 1026 83 1026 l 788 1026 q 803 1011 803 1026 l 803 851 q 788 836 803 836 l 286 836 l 286 600 l 710 600 q 725 585 725 600 l 725 425 q 710 410 725 410 l 286 410 l 286 15 q 271 0 286 0 l 99 0 z "},"G":{"ha":847,"x_min":35,"x_max":813,"o":"m 796 519 q 813 501 813 519 q 711 118 813 256 q 422 -19 610 -19 q 138 115 240 -19 q 35 467 35 249 l 35 561 q 138 913 35 778 q 422 1047 240 1047 q 693 935 596 1047 q 803 639 790 824 q 788 619 803 619 l 600 619 q 582 636 583 619 q 533 789 574 735 q 424 843 493 843 q 249 529 249 843 l 249 499 q 424 185 249 185 q 574 329 546 185 l 447 329 q 431 347 431 329 l 431 501 q 447 519 431 519 l 796 519 z "},"H":{"ha":847,"x_min":83,"x_max":764,"o":"m 99 0 q 83 15 83 0 l 83 1011 q 99 1026 83 1026 l 272 1026 q 288 1011 288 1026 l 288 618 l 561 618 l 561 1011 q 576 1026 561 1026 l 749 1026 q 764 1011 764 1026 l 764 15 q 749 0 764 0 l 576 0 q 561 15 561 0 l 561 426 l 288 426 l 288 15 q 272 0 288 0 l 99 0 z "},"I":{"ha":847,"x_min":49,"x_max":799,"o":"m 64 0 q 49 15 49 0 l 49 175 q 64 190 49 190 l 324 190 l 324 836 l 64 836 q 49 851 49 836 l 49 1011 q 64 1026 49 1026 l 783 1026 q 799 1011 799 1026 l 799 851 q 783 836 799 836 l 522 836 l 522 190 l 783 190 q 799 175 799 190 l 799 15 q 783 0 799 0 l 64 0 z "},"J":{"ha":847,"x_min":64,"x_max":764,"o":"m 414 -21 q 156 76 247 -21 q 64 340 64 172 l 64 500 q 83 519 64 519 l 251 519 q 271 500 271 519 l 271 360 q 414 185 271 185 q 525 233 489 185 q 561 360 561 282 l 561 1011 q 576 1026 561 1026 l 749 1026 q 764 1011 764 1026 l 764 351 q 670 80 764 181 q 414 -21 576 -21 z "},"K":{"ha":847,"x_min":83,"x_max":838,"o":"m 832 21 q 833 6 838 13 q 821 0 829 0 l 608 0 q 590 13 597 0 l 356 469 l 286 396 l 286 15 q 271 0 286 0 l 99 0 q 83 15 83 0 l 83 1011 q 99 1026 83 1026 l 271 1026 q 286 1011 286 1026 l 286 692 l 568 1013 q 593 1026 579 1026 l 815 1026 q 828 1020 824 1026 q 826 1006 832 1014 l 508 639 l 832 21 z "},"L":{"ha":847,"x_min":83,"x_max":807,"o":"m 99 0 q 83 15 83 0 l 83 1011 q 99 1026 83 1026 l 271 1026 q 286 1011 286 1026 l 286 190 l 792 190 q 807 175 807 190 l 807 15 q 792 0 807 0 l 99 0 z "},"M":{"ha":847,"x_min":78,"x_max":769,"o":"m 93 0 q 78 15 78 0 l 78 1011 q 93 1026 78 1026 l 349 1026 q 364 1011 361 1026 l 419 628 l 426 628 l 482 1011 q 499 1026 482 1026 l 754 1026 q 769 1011 769 1026 l 769 15 q 754 0 769 0 l 582 0 q 567 15 567 0 l 565 353 l 565 722 l 558 722 l 504 324 q 489 310 501 310 l 356 310 q 339 324 343 310 l 286 722 l 279 722 l 279 354 l 281 15 q 265 0 281 0 l 93 0 z "},"N":{"ha":847,"x_min":83,"x_max":764,"o":"m 99 0 q 83 15 83 0 l 83 1011 q 99 1026 83 1026 l 304 1026 q 322 1015 318 1026 l 554 446 l 561 446 l 561 1011 q 576 1026 561 1026 l 749 1026 q 764 1011 764 1026 l 764 15 q 749 0 764 0 l 540 0 q 522 13 528 0 l 293 617 l 285 617 l 286 197 l 286 15 q 271 0 286 0 l 99 0 z "},"O":{"ha":847,"x_min":35,"x_max":813,"o":"m 424 -21 q 138 115 240 -21 q 35 467 35 250 l 35 561 q 138 913 35 779 q 424 1047 242 1047 q 710 913 607 1047 q 813 561 813 779 l 813 467 q 709 115 813 250 q 424 -21 606 -21 m 247 497 q 424 183 247 183 q 600 497 600 183 l 600 531 q 424 843 600 843 q 247 531 247 843 l 247 497 z "},"P":{"ha":847,"x_min":83,"x_max":808,"o":"m 99 0 q 83 15 83 0 l 83 1011 q 99 1026 83 1026 l 419 1026 q 706 934 604 1026 q 808 681 808 842 q 703 423 808 518 q 418 328 597 328 l 286 328 l 286 15 q 269 0 286 0 l 99 0 m 286 519 l 410 519 q 596 681 596 519 q 410 836 596 836 l 286 836 l 286 519 z "},"Q":{"ha":847,"x_min":35,"x_max":814,"o":"m 813 561 l 813 467 q 751 181 813 300 l 799 133 q 799 103 814 118 l 679 -17 q 649 -17 664 -32 l 607 25 q 424 -21 524 -21 q 138 115 240 -21 q 35 467 35 250 l 35 561 q 138 913 35 779 q 424 1047 242 1047 q 710 913 607 1047 q 813 561 813 779 m 557 372 l 586 344 q 600 497 600 414 l 600 531 q 424 843 600 843 q 247 531 247 843 l 247 497 q 424 183 247 183 q 444 185 438 183 l 407 221 q 407 251 392 236 l 526 372 q 557 372 542 388 z "},"R":{"ha":847,"x_min":83,"x_max":808,"o":"m 799 18 q 788 0 808 0 l 581 0 q 563 14 569 0 l 364 371 l 286 371 l 286 15 q 271 0 286 0 l 99 0 q 83 15 83 0 l 83 1011 q 99 1026 83 1026 l 431 1026 q 700 941 601 1026 q 799 699 799 856 q 738 512 799 593 q 572 397 678 431 l 799 18 m 286 561 l 408 561 q 583 701 583 561 q 408 836 583 836 l 286 836 l 286 561 z "},"S":{"ha":847,"x_min":42,"x_max":804,"o":"m 428 -19 q 149 61 251 -19 q 42 311 47 142 q 58 328 42 328 l 254 328 q 272 311 272 328 q 315 214 274 247 q 428 181 357 181 q 590 292 590 181 q 549 373 590 347 q 379 429 508 399 q 138 538 211 468 q 65 735 65 608 q 165 962 65 876 q 428 1047 264 1047 q 693 962 597 1047 q 799 714 789 876 q 782 697 799 697 l 592 697 q 575 714 578 697 q 533 815 572 779 q 425 850 494 850 q 318 822 357 850 q 279 742 279 794 q 318 665 279 689 q 475 614 357 642 q 725 502 646 572 q 804 286 804 432 q 701 59 803 138 q 428 -19 600 -19 z "},"T":{"ha":847,"x_min":35,"x_max":813,"o":"m 339 0 q 324 15 324 0 l 324 836 l 50 836 q 35 851 35 836 l 35 1011 q 50 1026 35 1026 l 797 1026 q 813 1011 813 1026 l 813 851 q 797 836 813 836 l 525 836 l 525 15 q 510 0 525 0 l 339 0 z "},"U":{"ha":847,"x_min":83,"x_max":764,"o":"m 422 -21 q 173 78 263 -21 q 83 340 83 178 l 83 1011 q 99 1026 83 1026 l 271 1026 q 286 1011 286 1026 l 286 363 q 424 183 286 183 q 561 363 561 183 l 561 1011 q 576 1026 561 1026 l 749 1026 q 764 1011 764 1026 l 764 351 q 674 80 764 181 q 422 -21 583 -21 z "},"V":{"ha":847,"x_min":6,"x_max":840,"o":"m 285 0 q 268 14 272 0 l 13 1010 q 25 1026 6 1026 l 222 1026 q 239 1014 238 1026 l 424 213 l 431 213 l 611 1014 q 628 1026 615 1026 l 822 1026 q 836 1010 840 1026 l 579 14 q 563 0 575 0 l 285 0 z "},"W":{"ha":847,"x_min":26,"x_max":822,"o":"m 104 0 q 88 14 89 0 l 26 1010 q 39 1026 26 1026 l 213 1026 q 229 1014 229 1026 l 240 792 l 260 232 l 268 232 l 319 813 q 336 826 319 826 l 518 826 q 535 813 535 826 l 583 232 l 590 232 l 607 788 l 618 1014 q 635 1026 618 1026 l 808 1026 q 821 1010 822 1026 l 760 14 q 743 0 758 0 l 497 0 q 481 14 481 0 l 428 588 l 419 588 l 372 14 q 356 0 371 0 l 104 0 z "},"X":{"ha":847,"x_min":22,"x_max":826,"o":"m 43 0 q 31 18 22 0 l 311 517 l 31 1008 q 43 1026 22 1026 l 242 1026 q 260 1015 254 1026 l 421 704 l 428 704 l 589 1015 q 607 1026 594 1026 l 804 1026 q 817 1008 825 1026 l 536 511 l 817 19 q 804 0 826 0 l 608 0 q 590 13 597 0 l 428 328 l 421 328 l 260 11 q 242 0 256 0 l 43 0 z "},"Y":{"ha":847,"x_min":4,"x_max":843,"o":"m 338 0 q 322 15 322 0 l 322 339 l 11 1008 q 22 1026 4 1026 l 219 1026 q 238 1015 231 1026 l 425 589 l 432 589 l 614 1015 q 632 1026 618 1026 l 826 1026 q 836 1008 843 1026 l 524 339 l 524 15 q 508 0 524 0 l 338 0 z "},"Z":{"ha":785,"x_min":46,"x_max":740,"o":"m 740 844 q 733 826 740 833 l 293 192 l 725 192 q 740 176 740 192 l 740 15 q 725 0 740 0 l 61 0 q 46 15 46 0 l 46 181 q 51 200 46 190 l 497 836 l 67 836 q 51 851 51 836 l 51 1011 q 67 1026 51 1026 l 725 1026 q 740 1011 740 1026 l 740 844 z "},"[":{"ha":565,"x_min":192,"x_max":514,"o":"m 499 -144 l 207 -143 q 192 -128 192 -143 l 193 1094 q 208 1110 193 1110 l 499 1108 q 514 1094 514 1108 l 514 1056 q 499 1042 514 1042 l 269 1042 l 269 -76 l 499 -76 q 514 -92 514 -76 l 514 -129 q 499 -144 514 -144 z "},"\\":{"ha":847,"x_min":67,"x_max":779,"o":"m 731 -28 q 703 -19 715 -37 l 78 996 q 85 1024 67 1013 l 117 1044 q 146 1036 135 1056 l 771 22 q 764 -6 779 6 l 731 -28 z "},"]":{"ha":565,"x_min":51,"x_max":374,"o":"m 67 -144 q 51 -129 51 -144 l 51 -92 q 67 -76 51 -76 l 294 -76 l 294 1042 l 67 1042 q 51 1056 51 1042 l 51 1094 q 67 1108 51 1108 l 357 1110 q 372 1094 372 1110 l 374 -128 q 358 -143 374 -143 l 67 -144 z "},"^":{"ha":847,"x_min":151,"x_max":678,"o":"m 179 754 q 167 776 151 754 l 354 1007 q 389 1026 369 1026 l 440 1026 q 475 1007 460 1026 l 663 776 q 650 754 678 754 l 599 754 q 567 774 581 754 l 414 969 l 264 774 q 232 754 247 754 l 179 754 z "},"_":{"ha":847,"x_min":46,"x_max":803,"o":"m 61 -128 q 46 -114 46 -128 l 46 -74 q 61 -58 46 -58 l 786 -58 q 803 -74 803 -58 l 803 -114 q 786 -128 803 -128 l 61 -128 z "},"a":{"ha":847,"x_min":46,"x_max":838,"o":"m 822 176 q 838 163 838 176 l 838 18 q 822 3 838 7 q 710 -10 778 -10 q 567 69 590 -10 q 331 -19 500 -19 q 122 44 197 -19 q 46 217 46 107 q 256 417 46 390 l 556 451 l 556 456 q 415 558 556 558 q 317 535 350 558 q 279 479 283 513 q 261 461 278 461 l 82 461 q 67 479 65 461 q 169 670 76 604 q 418 736 261 736 q 668 663 586 736 q 750 436 750 589 l 750 176 l 822 176 m 361 156 q 491 187 440 156 q 553 304 542 218 l 331 275 q 250 215 250 263 q 356 156 250 156 l 361 156 z "},"b":{"ha":847,"x_min":71,"x_max":806,"o":"m 479 736 q 716 636 626 736 q 806 357 806 536 q 712 85 806 190 q 467 -19 618 -19 q 261 57 321 -19 l 261 15 q 246 0 261 0 l 86 0 q 71 15 71 0 l 71 1011 q 86 1026 71 1026 l 253 1026 q 268 1011 268 1026 l 268 657 q 479 736 344 736 m 435 172 q 553 222 510 172 q 597 357 597 271 q 555 494 597 446 q 436 543 513 543 q 316 495 363 543 q 268 364 269 447 l 268 357 q 313 222 268 271 q 435 172 357 172 z "},"c":{"ha":847,"x_min":36,"x_max":808,"o":"m 424 -19 q 138 83 239 -19 q 36 360 36 186 q 140 632 36 528 q 422 736 244 736 q 699 650 597 736 q 807 418 800 564 q 793 403 808 403 l 607 403 q 589 417 593 403 q 537 508 581 472 q 424 543 493 543 q 292 493 340 543 q 244 360 244 443 q 292 224 244 275 q 424 172 340 172 q 590 290 572 172 q 607 304 590 304 l 793 304 q 807 289 808 304 q 696 63 797 146 q 424 -19 594 -19 z "},"d":{"ha":847,"x_min":42,"x_max":776,"o":"m 761 1026 q 776 1011 776 1026 l 776 15 q 761 0 776 0 l 601 0 q 586 15 586 0 l 586 60 q 382 -19 517 -19 q 135 80 228 -19 q 42 358 42 179 q 139 631 42 525 q 389 736 236 736 q 581 675 513 736 l 581 1011 q 596 1026 581 1026 l 761 1026 m 293 222 q 315 197 293 222 q 411 172 336 172 q 533 222 486 172 q 581 358 581 271 q 535 494 581 444 q 413 543 489 543 q 294 494 338 543 q 250 358 250 444 q 293 222 250 271 z "},"e":{"ha":847,"x_min":36,"x_max":813,"o":"m 432 736 q 711 638 610 736 q 813 357 813 539 l 813 322 q 797 307 813 307 l 249 307 q 312 207 263 242 q 438 172 361 172 q 589 242 578 172 q 608 256 592 256 l 793 256 q 807 239 808 256 q 692 49 789 118 q 432 -21 596 -21 q 142 79 249 -21 q 36 360 36 179 q 144 634 36 532 q 432 736 253 736 m 431 547 q 257 439 299 547 l 594 439 q 431 547 564 547 z "},"f":{"ha":847,"x_min":8,"x_max":819,"o":"m 585 856 q 442 822 489 856 q 389 715 394 789 l 804 715 q 819 700 819 715 l 819 549 q 804 533 819 533 l 389 533 l 389 15 q 374 0 389 0 l 207 0 q 193 15 193 0 l 193 533 l 24 533 q 8 549 8 533 l 8 700 q 24 715 8 715 l 193 715 q 298 960 194 874 q 583 1047 401 1047 q 806 1026 707 1047 q 819 1010 819 1024 l 819 847 q 803 833 819 829 q 590 856 699 856 l 585 856 z "},"g":{"ha":847,"x_min":36,"x_max":776,"o":"m 761 715 q 776 700 776 715 l 776 15 q 386 -332 776 -332 q 107 -296 228 -332 q 94 -278 94 -292 l 94 -114 q 99 -101 94 -106 q 111 -97 104 -96 q 379 -143 265 -143 q 530 -101 481 -143 q 579 44 579 -60 l 579 54 q 365 -19 503 -19 q 128 81 219 -19 q 36 358 36 181 q 131 631 36 525 q 375 736 225 736 q 586 660 519 736 l 586 700 q 601 715 586 715 l 761 715 m 408 172 q 526 213 479 172 q 579 328 572 254 l 579 388 q 528 502 572 461 q 411 543 483 543 q 289 494 333 543 q 244 358 244 446 q 288 221 244 269 q 408 172 331 172 z "},"h":{"ha":847,"x_min":71,"x_max":776,"o":"m 501 736 q 776 438 776 736 l 776 15 q 761 0 776 0 l 596 0 q 581 15 581 0 l 581 375 q 549 502 581 461 q 439 543 517 543 q 312 499 356 543 q 268 375 268 456 l 268 15 q 253 0 268 0 l 86 0 q 71 15 71 0 l 71 1011 q 86 1026 71 1026 l 253 1026 q 268 1011 268 1026 l 268 650 q 501 736 343 736 z "},"i":{"ha":847,"x_min":49,"x_max":813,"o":"m 457 786 q 342 822 378 786 q 306 917 306 858 q 457 1047 306 1047 q 610 917 610 1047 q 574 822 610 858 q 457 786 538 786 m 64 0 q 49 15 49 0 l 49 167 q 64 182 49 182 l 365 182 l 365 533 l 64 533 q 49 549 49 533 l 49 700 q 64 715 49 715 l 546 715 q 561 700 561 715 l 561 182 l 797 182 q 813 167 813 182 l 813 15 q 797 0 813 0 l 64 0 z "},"j":{"ha":847,"x_min":40,"x_max":722,"o":"m 569 786 q 454 822 490 786 q 418 917 418 858 q 569 1047 418 1047 q 722 917 722 1047 q 686 822 722 858 q 569 786 650 786 m 292 -332 q 54 -304 142 -332 q 40 -286 40 -300 l 40 -129 q 46 -117 40 -122 q 58 -112 51 -111 q 268 -144 168 -144 l 274 -144 q 441 -110 388 -144 q 494 15 494 -75 l 494 533 l 78 533 q 63 549 63 533 l 63 700 q 78 715 63 715 l 675 715 q 690 700 690 715 l 690 -14 q 588 -257 690 -182 q 292 -332 485 -332 z "},"k":{"ha":847,"x_min":71,"x_max":847,"o":"m 842 19 q 844 7 847 14 q 832 0 842 0 l 611 0 q 588 15 599 0 l 344 311 l 268 254 l 268 15 q 253 0 268 0 l 86 0 q 71 15 71 0 l 71 1011 q 86 1026 71 1026 l 253 1026 q 268 1011 268 1026 l 268 478 l 551 701 q 576 715 568 715 l 829 715 q 844 708 840 715 q 842 696 847 700 l 500 426 l 842 19 z "},"l":{"ha":847,"x_min":39,"x_max":828,"o":"m 54 0 q 39 15 39 0 l 39 167 q 54 182 39 182 l 349 182 l 349 844 l 64 844 q 49 860 49 844 l 49 1011 q 64 1026 49 1026 l 529 1026 q 544 1011 544 1026 l 544 182 l 813 182 q 828 167 828 182 l 828 15 q 813 0 828 0 l 54 0 z "},"m":{"ha":847,"x_min":68,"x_max":782,"o":"m 643 736 q 782 550 782 736 l 782 15 q 767 0 782 0 l 606 0 q 590 15 590 0 l 590 468 q 557 535 590 535 q 521 468 521 535 l 521 15 q 506 0 521 0 l 344 0 q 329 15 329 0 l 329 468 q 323 519 329 503 q 296 535 317 535 q 260 468 260 535 l 260 15 q 244 0 260 0 l 83 0 q 68 15 68 0 l 68 700 q 83 715 68 715 l 242 715 q 257 700 257 715 l 257 660 q 397 736 311 736 q 507 663 479 736 q 643 736 564 736 z "},"n":{"ha":847,"x_min":71,"x_max":776,"o":"m 86 0 q 71 15 71 0 l 71 700 q 86 715 71 715 l 250 715 q 265 700 265 715 l 265 646 q 488 736 336 736 q 776 438 776 736 l 776 15 q 761 0 776 0 l 596 0 q 581 15 581 0 l 581 375 q 546 503 581 463 q 436 544 511 544 q 268 375 268 544 l 268 15 q 253 0 268 0 l 86 0 z "},"o":{"ha":847,"x_min":36,"x_max":811,"o":"m 425 736 q 705 635 599 736 q 811 360 811 535 q 703 84 811 188 q 425 -19 596 -19 q 142 81 247 -19 q 36 360 36 181 q 143 634 36 532 q 425 736 250 736 m 425 172 q 553 222 503 172 q 603 360 603 272 q 553 494 603 444 q 425 543 503 543 q 295 494 346 543 q 244 360 244 444 q 295 222 244 272 q 425 172 346 172 z "},"p":{"ha":847,"x_min":71,"x_max":806,"o":"m 465 735 q 713 635 619 735 q 806 357 806 536 q 708 85 806 190 q 458 -21 611 -21 q 268 39 338 -21 l 268 -296 q 253 -311 268 -311 l 86 -311 q 71 -296 71 -311 l 71 700 q 86 715 71 715 l 246 715 q 261 700 261 715 l 261 656 q 465 735 331 735 m 435 172 q 553 222 510 172 q 597 357 597 271 q 555 494 597 446 q 436 543 513 543 q 315 495 361 543 q 268 364 269 447 l 268 357 q 313 222 268 271 q 435 172 358 172 z "},"q":{"ha":847,"x_min":42,"x_max":776,"o":"m 761 715 q 776 700 776 715 l 776 -296 q 761 -311 776 -311 l 596 -311 q 581 -296 581 -311 l 581 58 q 368 -21 504 -21 q 131 79 221 -21 q 42 358 42 179 q 135 630 42 525 q 381 735 229 735 q 586 658 526 735 l 586 700 q 601 715 586 715 l 761 715 m 293 222 q 315 197 293 222 q 411 172 336 172 q 533 222 486 172 q 581 358 581 271 q 535 494 581 444 q 413 543 490 543 q 294 494 338 543 q 250 358 250 444 q 293 222 250 271 z "},"r":{"ha":847,"x_min":71,"x_max":814,"o":"m 508 736 q 814 410 814 736 l 814 364 q 799 349 814 349 l 619 349 q 604 364 604 349 l 604 389 q 457 544 604 544 q 319 494 371 544 q 268 342 268 443 l 268 15 q 253 0 268 0 l 86 0 q 71 15 71 0 l 71 700 q 86 715 71 715 l 250 715 q 265 700 265 715 l 265 651 q 508 736 347 736 z "},"s":{"ha":847,"x_min":54,"x_max":801,"o":"m 433 -19 q 152 38 244 -19 q 54 226 60 94 q 72 243 54 243 l 256 243 q 272 226 272 243 q 311 171 274 188 q 433 154 349 154 q 558 167 522 154 q 593 213 593 179 q 560 256 593 243 q 428 275 528 268 q 151 340 229 290 q 74 503 74 389 q 167 673 74 611 q 422 735 261 735 q 698 669 604 735 q 799 488 792 604 q 782 472 799 472 l 600 472 q 583 486 585 472 q 422 563 579 563 q 279 504 279 563 q 310 463 279 475 q 450 442 342 451 q 712 376 622 426 q 801 214 801 325 q 433 -19 801 -19 z "},"t":{"ha":847,"x_min":0,"x_max":804,"o":"m 789 715 q 804 700 804 715 l 804 547 q 789 532 804 532 l 404 532 l 404 310 q 554 174 404 174 l 560 174 q 772 204 665 174 q 784 201 779 206 q 789 188 789 196 l 789 26 q 775 8 789 11 q 536 -19 639 -19 q 292 47 376 -19 q 208 264 208 114 l 208 532 l 15 532 q 0 547 0 532 l 0 700 q 15 715 0 715 l 208 715 l 208 969 q 224 985 208 985 l 389 985 q 404 969 404 985 l 404 715 l 789 715 z "},"u":{"ha":847,"x_min":71,"x_max":776,"o":"m 761 715 q 776 700 776 715 l 776 15 q 761 0 776 0 l 599 0 q 583 15 583 0 l 583 69 q 360 -21 511 -21 q 71 278 71 -21 l 71 700 q 86 715 71 715 l 253 715 q 268 700 268 715 l 268 340 q 302 213 268 253 q 411 172 336 172 q 581 340 581 172 l 581 700 q 596 715 581 715 l 761 715 z "},"v":{"ha":847,"x_min":6,"x_max":828,"o":"m 303 0 q 286 17 293 0 l 10 697 q 10 710 6 704 q 24 715 15 715 l 210 715 q 229 700 222 715 l 418 204 l 425 204 l 604 700 q 624 715 611 715 l 810 715 q 823 709 818 715 q 824 696 828 703 l 547 17 q 531 0 540 0 l 303 0 z "},"w":{"ha":847,"x_min":32,"x_max":801,"o":"m 128 0 q 113 15 115 0 l 35 697 q 50 715 32 715 l 218 715 q 236 700 236 715 l 244 575 l 268 225 l 276 225 l 325 592 q 343 606 328 606 l 496 606 q 514 590 511 606 l 563 225 l 571 225 l 589 572 l 596 700 q 614 715 596 715 l 783 715 q 799 696 801 715 l 722 15 q 707 0 719 0 l 481 0 q 465 15 465 0 l 422 399 l 415 399 l 369 15 q 354 0 367 0 l 128 0 z "},"x":{"ha":847,"x_min":0,"x_max":835,"o":"m 14 0 q 3 8 4 0 q 8 22 1 15 l 292 358 l 4 693 q 0 703 0 697 q 3 712 0 708 q 11 715 7 715 l 228 715 q 250 703 240 715 l 418 497 l 425 497 l 593 706 q 613 715 601 715 l 824 715 q 833 708 831 715 q 829 693 835 700 l 544 349 l 824 21 q 828 7 829 14 q 819 0 826 0 l 599 0 q 578 13 588 0 l 417 213 l 410 213 l 249 10 q 228 0 242 0 l 14 0 z "},"y":{"ha":847,"x_min":10,"x_max":832,"o":"m 325 -42 l 14 696 q 15 709 10 703 q 28 715 19 715 l 214 715 q 233 700 225 715 l 424 206 l 431 206 l 610 700 q 628 715 615 715 l 814 715 q 827 709 822 715 q 829 696 832 703 l 514 -83 q 384 -274 458 -217 q 179 -332 310 -332 q 31 -312 107 -332 q 17 -294 17 -308 l 17 -133 q 22 -120 17 -125 q 35 -117 28 -115 q 157 -142 117 -142 l 161 -142 q 253 -124 221 -142 q 318 -54 286 -106 l 325 -42 z "},"z":{"ha":847,"x_min":67,"x_max":775,"o":"m 760 175 q 775 160 775 175 l 775 15 q 760 0 775 0 l 82 0 q 67 15 67 0 l 67 150 q 82 175 67 164 l 490 540 l 89 540 q 74 556 74 540 l 74 700 q 89 715 74 715 l 753 715 q 768 700 768 715 l 768 563 q 753 540 768 551 l 349 175 l 760 175 z "},"{":{"ha":565,"x_min":110,"x_max":526,"o":"m 479 -143 q 299 -81 361 -143 q 238 122 238 -19 l 238 315 q 143 449 238 449 l 121 449 q 110 460 110 449 l 110 507 q 121 518 110 518 l 143 518 q 215 549 192 518 q 238 651 238 581 l 238 844 q 302 1044 238 978 q 479 1110 367 1110 l 510 1110 q 526 1094 526 1110 l 526 1056 q 510 1040 526 1040 l 481 1040 q 314 851 314 1040 l 314 661 q 228 486 314 508 q 314 304 314 456 l 314 115 q 481 -75 314 -75 l 510 -75 q 526 -90 526 -75 l 526 -129 q 510 -143 526 -143 l 479 -143 z "},"|":{"ha":282,"x_min":103,"x_max":181,"o":"m 113 -233 q 103 -217 103 -233 l 103 1010 q 114 1026 103 1026 l 169 1026 q 181 1010 181 1026 l 181 -217 q 172 -233 181 -233 l 113 -233 z "},"}":{"ha":565,"x_min":39,"x_max":456,"o":"m 86 -143 l 56 -143 q 39 -129 39 -143 l 39 -90 q 56 -75 39 -75 l 85 -75 q 250 115 250 -75 l 250 304 q 338 486 250 456 q 250 661 250 507 l 250 851 q 85 1040 250 1040 l 56 1040 q 39 1056 39 1040 l 39 1094 q 56 1110 39 1110 l 86 1110 q 263 1044 199 1110 q 328 844 328 978 l 328 651 q 351 549 328 581 q 422 518 374 518 l 444 518 q 456 507 456 518 l 456 460 q 444 449 456 449 l 422 449 q 328 315 328 449 l 328 122 q 265 -81 328 -19 q 86 -143 203 -143 z "},"~":{"ha":565,"x_min":4,"x_max":561,"o":"m 381 453 q 271 491 322 453 q 185 529 219 529 q 119 515 143 529 q 67 457 94 501 q 44 453 60 450 q 17 469 29 457 q 10 490 4 481 q 186 596 72 596 q 265 577 232 596 q 324 539 297 558 q 382 519 350 519 q 448 533 422 519 q 501 592 474 547 q 523 595 508 599 q 549 580 538 592 q 556 558 561 568 q 381 453 494 453 z "},"¡":{"ha":282,"x_min":31,"x_max":251,"o":"m 50 1026 l 233 1026 q 250 1011 250 1026 l 250 825 q 233 810 250 810 l 50 810 q 33 825 33 810 l 33 1011 q 50 1026 33 1026 m 85 672 l 197 672 q 213 657 213 672 l 251 15 q 236 0 251 0 l 46 0 q 31 15 31 0 l 69 657 q 85 672 69 672 z "},"¢":{"ha":847,"x_min":35,"x_max":804,"o":"m 786 408 q 801 390 804 408 q 704 106 790 218 q 457 -18 618 -6 l 457 -187 q 442 -203 457 -203 l 401 -203 q 388 -187 388 -203 l 388 -18 q 128 128 221 -4 q 35 468 35 261 l 35 561 q 128 899 35 767 q 388 1046 222 1032 l 388 1214 q 401 1231 388 1231 l 442 1231 q 457 1214 457 1231 l 457 1046 q 706 926 621 1035 q 801 639 790 818 q 786 619 804 619 l 600 619 q 582 636 583 619 q 424 843 564 843 q 294 765 340 843 q 249 529 249 688 l 249 500 q 424 185 249 185 q 582 393 564 185 q 600 408 583 408 l 786 408 z "},"£":{"ha":847,"x_min":72,"x_max":825,"o":"m 449 843 q 322 769 368 843 q 275 546 276 696 l 275 506 l 657 506 q 674 490 674 506 l 674 450 q 657 436 674 436 l 275 436 l 275 190 l 793 190 q 808 175 808 190 l 808 15 q 803 4 808 8 q 793 0 799 0 l 88 0 q 72 15 72 0 l 72 546 q 171 908 72 769 q 447 1047 269 1046 q 719 936 626 1047 q 822 640 813 825 q 806 619 825 619 l 614 619 q 597 636 600 619 q 553 788 592 733 q 449 843 515 843 z "},"¤":{"ha":565,"x_min":44,"x_max":519,"o":"m 71 283 l 56 299 q 56 319 44 308 l 117 382 q 72 511 72 440 q 117 639 72 581 l 56 700 q 56 721 44 711 l 71 738 q 93 738 82 749 l 154 676 q 282 721 213 721 q 411 675 354 721 l 472 738 q 493 738 483 747 l 510 721 q 510 700 519 711 l 449 639 q 492 511 492 581 q 447 383 492 439 l 510 319 q 510 299 519 308 l 493 283 q 472 283 483 272 l 410 344 q 282 300 351 300 q 156 344 211 300 l 93 283 q 71 283 82 272 m 173 401 q 195 377 173 401 q 282 354 218 354 q 392 401 346 354 q 438 511 438 447 q 392 621 438 575 q 282 667 346 667 q 173 621 218 667 q 128 511 128 575 q 173 401 128 447 z "},"¥":{"ha":847,"x_min":4,"x_max":843,"o":"m 826 1026 q 836 1008 843 1026 l 554 406 l 786 406 q 803 392 803 406 l 803 351 q 786 336 803 336 l 524 336 l 524 246 l 786 246 q 803 232 803 246 l 803 192 q 786 176 803 176 l 524 176 l 524 15 q 508 0 524 0 l 338 0 q 322 15 322 0 l 322 176 l 61 176 q 46 192 46 176 l 46 232 q 61 246 46 246 l 322 246 l 322 336 l 61 336 q 46 351 46 336 l 46 392 q 61 406 46 406 l 292 406 l 11 1008 q 22 1026 4 1026 l 219 1026 q 238 1015 231 1026 l 425 589 l 432 589 l 614 1015 q 632 1026 618 1026 l 826 1026 z "},"¦":{"ha":282,"x_min":103,"x_max":181,"o":"m 113 511 q 103 528 103 511 l 103 1010 q 114 1026 103 1026 l 169 1026 q 181 1010 181 1026 l 181 528 q 172 511 181 511 l 113 511 m 113 -233 q 103 -217 103 -233 l 103 265 q 114 282 103 282 l 169 282 q 181 265 181 282 l 181 -217 q 172 -233 181 -233 l 113 -233 z "},"§":{"ha":565,"x_min":26,"x_max":540,"o":"m 275 -19 q 87 31 147 -19 q 26 163 26 81 q 44 181 26 181 l 86 181 q 107 163 106 181 q 150 88 107 118 q 275 58 193 58 l 289 58 q 418 92 378 58 q 458 179 458 125 q 415 274 458 235 q 289 313 372 313 l 275 313 q 99 362 172 313 q 26 510 26 411 q 124 672 26 625 q 26 838 26 725 q 91 983 26 926 q 275 1039 156 1039 l 289 1039 q 476 979 413 1039 q 540 858 540 919 q 522 838 540 838 l 465 838 q 446 858 447 838 q 403 931 446 900 q 289 961 361 961 l 275 961 q 148 927 188 961 q 108 839 108 893 q 151 746 108 785 q 275 707 194 707 l 289 707 q 471 658 401 707 q 540 510 540 610 q 440 347 540 394 q 540 181 540 294 q 472 36 540 92 q 289 -19 403 -19 l 275 -19 m 275 392 l 289 392 q 458 510 458 392 q 289 629 458 629 l 275 629 q 108 510 108 629 q 275 392 108 392 z "},"©":{"ha":847,"x_min":38,"x_max":808,"o":"m 697 135 q 642 60 697 135 q 424 -15 586 -15 q 149 135 261 -15 q 38 517 38 285 q 150 894 38 744 q 424 1043 263 1043 q 697 894 585 1043 q 808 517 808 744 q 697 135 808 285 m 206 198 q 251 134 206 198 q 424 69 296 69 q 641 198 551 69 q 731 517 731 326 q 641 831 731 704 q 424 958 551 958 q 206 831 296 958 q 115 517 115 703 q 206 198 115 326 m 425 228 q 282 310 339 228 q 225 513 225 392 q 282 724 225 640 q 425 807 339 807 q 553 748 500 807 q 617 599 606 689 q 613 588 619 588 l 547 588 q 542 594 543 588 q 426 726 508 726 q 336 664 368 726 q 304 513 304 601 q 336 370 304 431 q 426 310 368 310 q 542 449 514 310 q 547 456 543 456 l 613 456 q 617 442 619 456 q 552 288 604 347 q 425 228 500 228 z "},"ª":{"ha":565,"x_min":18,"x_max":557,"o":"m 544 574 q 557 561 557 574 l 557 443 q 544 431 557 433 q 464 419 500 419 q 358 475 379 419 q 207 413 311 413 q 67 466 117 413 q 18 600 18 519 q 171 768 18 740 l 347 797 l 347 824 q 279 886 347 886 q 224 868 243 886 q 204 819 204 850 q 190 804 204 804 l 43 804 q 31 819 31 804 q 101 985 31 924 q 283 1047 172 1047 q 514 836 514 1047 l 514 574 l 544 574 m 244 564 q 313 590 282 564 q 347 676 344 615 l 242 658 q 189 608 189 650 q 244 564 189 564 z "},"«":{"ha":565,"x_min":7,"x_max":567,"o":"m 300 0 q 281 11 288 0 l 17 394 q 17 421 7 408 l 281 806 q 300 817 288 817 l 358 817 q 369 797 382 817 l 103 410 l 369 19 q 358 0 382 0 l 300 0 m 492 0 q 472 11 479 0 l 207 394 q 207 421 199 407 l 472 806 q 492 817 479 817 l 549 817 q 563 812 558 817 q 560 797 567 807 l 294 410 l 560 19 q 563 5 567 10 q 549 0 558 0 l 492 0 z "},"®":{"ha":847,"x_min":75,"x_max":772,"o":"m 177 924 q 228 984 177 924 q 424 1043 279 1043 q 670 924 568 1043 q 772 626 772 806 q 671 325 772 444 q 424 206 569 206 q 176 325 278 206 q 75 626 75 444 q 177 924 75 806 m 230 381 q 269 331 230 381 q 424 282 308 282 q 617 381 539 282 q 696 626 696 479 q 617 869 696 772 q 424 967 539 967 q 230 869 308 967 q 151 626 151 772 q 230 381 151 479 m 592 701 q 560 620 592 650 q 482 583 528 590 l 576 438 q 572 428 583 428 l 500 428 q 493 432 497 428 l 397 582 l 364 582 l 364 435 q 360 428 364 428 l 294 428 q 290 433 290 428 l 290 815 q 294 821 290 821 l 454 821 q 554 789 517 821 q 592 701 592 757 m 458 653 q 501 665 485 653 q 518 701 518 678 q 458 750 518 750 l 364 750 l 364 653 l 458 653 z "},"°":{"ha":657,"x_min":83,"x_max":574,"o":"m 328 483 q 154 565 225 483 q 83 764 83 646 q 153 963 83 882 q 328 1044 224 1044 q 503 963 432 1044 q 574 764 574 881 q 503 565 574 647 q 328 483 432 483 m 196 608 q 222 576 196 608 q 328 543 247 543 q 460 608 408 543 q 511 764 511 674 q 460 919 511 854 q 328 985 408 985 q 196 919 247 985 q 144 764 144 854 q 196 608 144 674 z "},"²":{"ha":565,"x_min":36,"x_max":538,"o":"m 519 583 q 531 575 531 583 l 529 440 q 519 431 529 431 l 46 431 q 36 440 36 431 l 36 558 q 78 658 36 624 q 260 756 121 693 q 348 799 329 785 q 367 836 367 813 q 299 885 367 885 q 219 821 219 885 q 210 811 219 811 l 50 811 q 40 822 40 811 q 112 985 40 922 q 301 1047 183 1047 q 476 996 414 1047 q 538 853 538 944 q 499 735 538 778 q 346 640 460 692 q 229 583 249 596 l 519 583 z "},"³":{"ha":565,"x_min":31,"x_max":531,"o":"m 471 733 q 531 600 531 694 q 465 459 531 514 q 288 404 399 404 q 99 463 167 404 q 31 633 31 521 q 40 644 31 644 l 200 644 q 210 633 210 644 q 286 565 210 565 q 361 611 361 565 q 343 648 361 638 q 285 658 325 658 l 224 658 q 215 668 215 658 l 215 785 q 224 794 215 794 l 285 794 q 360 839 360 794 q 290 886 360 886 q 213 817 213 886 q 203 806 213 806 l 43 806 q 33 817 33 806 q 106 983 33 919 q 294 1047 178 1047 q 468 997 408 1047 q 528 857 528 947 q 471 733 528 772 z "},"¶":{"ha":847,"x_min":33,"x_max":828,"o":"m 811 1026 q 828 1013 828 1026 l 828 972 q 811 957 828 957 l 639 957 l 639 15 q 624 0 639 0 l 578 0 q 561 15 561 0 l 561 332 l 426 332 q 144 428 253 332 q 33 682 35 524 q 138 933 33 840 q 422 1026 243 1026 l 811 1026 z "},"·":{"ha":282,"x_min":32,"x_max":249,"o":"m 49 354 q 32 369 32 354 l 32 554 q 49 569 32 569 l 232 569 q 249 554 249 569 l 249 369 q 232 354 249 354 l 49 354 z "},"¹":{"ha":565,"x_min":26,"x_max":554,"o":"m 42 429 q 26 444 26 429 l 26 567 q 42 582 26 582 l 232 582 l 232 861 l 47 815 q 26 828 26 810 l 26 957 q 42 978 26 974 l 222 1026 l 386 1026 q 401 1011 401 1026 l 401 582 l 539 582 q 554 567 554 582 l 554 444 q 539 429 554 429 l 42 429 z "},"º":{"ha":565,"x_min":32,"x_max":531,"o":"m 282 406 q 100 485 168 406 q 32 707 32 564 l 32 746 q 101 968 32 889 q 282 1047 171 1047 q 463 969 394 1047 q 531 746 531 890 l 531 707 q 462 485 531 564 q 282 406 393 406 m 221 606 q 229 587 221 606 q 282 568 238 568 q 344 606 326 568 q 361 726 361 644 q 344 847 361 807 q 282 886 326 886 q 221 847 238 886 q 204 726 204 807 q 221 606 204 643 z "},"»":{"ha":565,"x_min":-8,"x_max":557,"o":"m 74 817 q 93 806 86 817 l 357 422 q 357 396 367 408 l 93 11 q 74 0 86 0 l 15 0 q 4 19 -8 0 l 271 407 l 4 797 q 15 817 -8 817 l 74 817 m 265 817 q 285 806 278 817 l 549 422 q 549 396 557 411 l 285 11 q 265 0 278 0 l 207 0 q 196 19 183 0 l 463 407 l 196 797 q 207 817 183 817 l 265 817 z "},"¿":{"ha":847,"x_min":28,"x_max":806,"o":"m 547 1025 q 564 1010 564 1025 l 564 824 q 547 808 564 808 l 364 808 q 347 824 347 808 l 347 1010 q 364 1025 347 1025 l 547 1025 m 542 738 q 557 721 557 738 q 521 570 557 621 q 382 472 485 519 q 270 403 299 433 q 242 308 242 372 q 281 215 242 249 q 397 182 321 182 q 585 363 579 182 q 600 378 585 378 l 788 378 q 806 358 806 378 q 687 78 799 178 q 397 -22 575 -22 q 119 63 210 -19 q 28 296 28 146 q 88 490 28 417 q 260 607 147 563 q 335 653 317 633 q 354 721 354 672 q 371 738 354 738 l 542 738 z "},"À":{"ha":847,"x_min":10,"x_max":839,"o":"m 424 1096 l 258 1343 q 267 1363 247 1363 l 332 1363 q 350 1354 346 1363 l 500 1106 q 492 1088 508 1088 l 442 1088 q 424 1096 429 1088 m 833 17 q 821 0 839 0 l 625 0 q 608 13 610 0 l 576 153 l 267 153 l 236 13 q 219 0 235 0 l 28 0 q 14 17 10 0 l 263 1013 q 279 1026 267 1026 l 567 1026 q 583 1013 579 1026 l 833 17 m 311 350 l 532 350 l 424 832 l 417 832 l 311 350 z "},"Á":{"ha":847,"x_min":10,"x_max":839,"o":"m 372 1088 q 364 1106 353 1088 l 513 1354 q 531 1363 517 1363 l 596 1363 q 604 1343 615 1363 l 439 1096 q 421 1088 433 1088 l 372 1088 m 833 17 q 821 0 839 0 l 625 0 q 608 13 610 0 l 576 153 l 267 153 l 236 13 q 219 0 235 0 l 28 0 q 14 17 10 0 l 263 1013 q 279 1026 267 1026 l 567 1026 q 583 1013 579 1026 l 833 17 m 311 350 l 532 350 l 424 832 l 417 832 l 311 350 z "},"Â":{"ha":847,"x_min":10,"x_max":839,"o":"m 200 1088 q 185 1095 189 1088 q 188 1111 181 1103 l 363 1343 q 393 1360 375 1360 l 453 1360 q 483 1343 472 1360 l 661 1113 q 663 1095 667 1103 q 647 1088 658 1088 l 594 1088 q 568 1110 585 1088 l 422 1303 l 279 1110 q 253 1088 265 1088 l 200 1088 m 833 17 q 821 0 839 0 l 625 0 q 608 13 610 0 l 576 153 l 267 153 l 236 13 q 219 0 235 0 l 28 0 q 14 17 10 0 l 263 1013 q 279 1026 267 1026 l 567 1026 q 583 1013 579 1026 l 833 17 m 311 350 l 532 350 l 424 832 l 417 832 l 311 350 z "},"Ã":{"ha":847,"x_min":10,"x_max":839,"o":"m 297 1096 q 280 1092 293 1089 q 253 1106 267 1094 q 243 1126 240 1117 q 360 1235 269 1235 q 436 1197 397 1235 q 493 1158 475 1158 q 528 1172 514 1158 q 554 1229 543 1186 q 586 1225 558 1243 q 607 1196 611 1210 q 492 1092 581 1092 q 417 1130 456 1092 q 360 1168 378 1168 q 324 1154 338 1168 q 297 1096 310 1140 m 833 17 q 821 0 839 0 l 625 0 q 608 13 610 0 l 576 153 l 267 153 l 236 13 q 219 0 235 0 l 28 0 q 14 17 10 0 l 263 1013 q 279 1026 267 1026 l 567 1026 q 583 1013 579 1026 l 833 17 m 311 350 l 532 350 l 424 832 l 417 832 l 311 350 z "},"Ä":{"ha":847,"x_min":10,"x_max":839,"o":"m 176 1088 q 161 1103 161 1088 l 161 1140 q 176 1156 161 1156 l 371 1156 q 386 1140 386 1156 l 386 1103 q 371 1088 386 1088 l 176 1088 m 476 1088 q 461 1103 461 1088 l 461 1140 q 476 1156 461 1156 l 672 1156 q 688 1140 688 1156 l 688 1103 q 672 1088 688 1088 l 476 1088 m 833 17 q 821 0 839 0 l 625 0 q 608 13 610 0 l 576 153 l 267 153 l 236 13 q 219 0 235 0 l 28 0 q 14 17 10 0 l 263 1013 q 279 1026 267 1026 l 567 1026 q 583 1013 579 1026 l 833 17 m 311 350 l 532 350 l 424 832 l 417 832 l 311 350 z "},"Å":{"ha":847,"x_min":10,"x_max":839,"o":"m 524 1116 q 503 1095 524 1116 q 424 1074 482 1074 q 324 1116 365 1074 q 282 1217 282 1158 q 324 1316 282 1274 q 424 1358 365 1358 q 524 1316 482 1358 q 567 1217 567 1274 q 524 1116 567 1158 m 482 1274 q 470 1285 482 1274 q 424 1297 458 1297 q 365 1274 389 1297 q 342 1217 342 1250 q 365 1158 342 1182 q 424 1133 389 1133 q 482 1158 458 1133 q 506 1217 506 1182 q 482 1274 506 1250 m 833 17 q 821 0 839 0 l 625 0 q 608 13 610 0 l 576 153 l 267 153 l 236 13 q 219 0 235 0 l 28 0 q 14 17 10 0 l 263 1013 q 279 1026 267 1026 l 567 1026 q 583 1013 579 1026 l 833 17 m 311 350 l 532 350 l 424 832 l 417 832 l 311 350 z "},"Æ":{"ha":847,"x_min":10,"x_max":764,"o":"m 749 836 l 628 836 l 628 618 l 740 618 q 756 603 756 618 l 756 442 q 740 426 756 426 l 628 426 l 628 190 l 749 190 q 764 175 764 190 l 764 15 q 749 0 764 0 l 440 0 q 425 15 425 0 l 425 168 l 269 168 l 235 13 q 218 0 231 0 l 28 0 q 14 17 10 0 l 282 1013 q 299 1026 286 1026 l 749 1026 q 764 1011 764 1026 l 764 851 q 749 836 764 836 m 314 367 l 425 367 l 425 826 l 418 826 l 314 367 z "},"Ç":{"ha":847,"x_min":35,"x_max":804,"o":"m 786 408 q 801 390 804 408 q 702 104 789 217 q 453 -18 615 -8 l 433 -60 q 606 -211 606 -86 q 528 -344 606 -296 q 339 -392 451 -392 q 318 -372 318 -392 l 318 -335 q 323 -322 318 -328 q 335 -317 328 -317 q 525 -208 525 -317 q 350 -118 525 -118 q 341 -112 343 -118 q 342 -99 339 -106 l 379 -17 q 125 132 215 0 q 35 468 35 264 l 35 561 q 138 912 35 778 q 422 1047 242 1046 q 697 938 604 1047 q 801 639 789 828 q 786 619 804 619 l 600 619 q 582 636 583 619 q 424 843 564 843 q 294 765 340 843 q 249 529 249 688 l 249 500 q 424 185 249 185 q 582 393 564 185 q 600 408 583 408 l 786 408 z "},"È":{"ha":847,"x_min":83,"x_max":796,"o":"m 492 1088 l 442 1088 q 424 1096 429 1088 l 258 1343 q 267 1363 247 1363 l 332 1363 q 350 1354 346 1363 l 500 1106 q 492 1088 508 1088 m 99 0 q 83 15 83 0 l 83 1011 q 99 1026 83 1026 l 779 1026 q 794 1011 794 1026 l 794 851 q 779 836 794 836 l 286 836 l 286 618 l 685 618 q 700 603 700 618 l 700 442 q 685 426 700 426 l 286 426 l 286 190 l 781 190 q 796 175 796 190 l 796 15 q 781 0 796 0 l 99 0 z "},"É":{"ha":847,"x_min":83,"x_max":796,"o":"m 372 1088 q 364 1106 353 1088 l 513 1354 q 531 1363 517 1363 l 596 1363 q 604 1343 615 1363 l 439 1096 q 421 1088 433 1088 l 372 1088 m 99 0 q 83 15 83 0 l 83 1011 q 99 1026 83 1026 l 779 1026 q 794 1011 794 1026 l 794 851 q 779 836 794 836 l 286 836 l 286 618 l 685 618 q 700 603 700 618 l 700 442 q 685 426 700 426 l 286 426 l 286 190 l 781 190 q 796 175 796 190 l 796 15 q 781 0 796 0 l 99 0 z "},"Ê":{"ha":847,"x_min":83,"x_max":796,"o":"m 393 1360 l 453 1360 q 483 1343 472 1360 l 661 1113 q 663 1095 667 1103 q 647 1088 658 1088 l 594 1088 q 568 1110 585 1088 l 422 1303 l 279 1110 q 253 1088 265 1088 l 200 1088 q 185 1095 189 1088 q 188 1111 181 1103 l 363 1343 q 393 1360 375 1360 m 99 0 q 83 15 83 0 l 83 1011 q 99 1026 83 1026 l 779 1026 q 794 1011 794 1026 l 794 851 q 779 836 794 836 l 286 836 l 286 618 l 685 618 q 700 603 700 618 l 700 442 q 685 426 700 426 l 286 426 l 286 190 l 781 190 q 796 175 796 190 l 796 15 q 781 0 796 0 l 99 0 z "},"Ë":{"ha":847,"x_min":83,"x_max":796,"o":"m 176 1088 q 161 1103 161 1088 l 161 1140 q 176 1156 161 1156 l 371 1156 q 386 1140 386 1156 l 386 1103 q 371 1088 386 1088 l 176 1088 m 476 1088 q 461 1103 461 1088 l 461 1140 q 476 1156 461 1156 l 672 1156 q 688 1140 688 1156 l 688 1103 q 672 1088 688 1088 l 476 1088 m 99 0 q 83 15 83 0 l 83 1011 q 99 1026 83 1026 l 779 1026 q 794 1011 794 1026 l 794 851 q 779 836 794 836 l 286 836 l 286 618 l 685 618 q 700 603 700 618 l 700 442 q 685 426 700 426 l 286 426 l 286 190 l 781 190 q 796 175 796 190 l 796 15 q 781 0 796 0 l 99 0 z "},"Ì":{"ha":847,"x_min":49,"x_max":799,"o":"m 492 1088 l 442 1088 q 424 1096 429 1088 l 258 1343 q 267 1363 247 1363 l 332 1363 q 350 1354 346 1363 l 500 1106 q 492 1088 508 1088 m 64 0 q 49 15 49 0 l 49 175 q 64 190 49 190 l 324 190 l 324 836 l 64 836 q 49 851 49 836 l 49 1011 q 64 1026 49 1026 l 783 1026 q 799 1011 799 1026 l 799 851 q 783 836 799 836 l 522 836 l 522 190 l 783 190 q 799 175 799 190 l 799 15 q 783 0 799 0 l 64 0 z "},"Í":{"ha":847,"x_min":49,"x_max":799,"o":"m 372 1088 q 364 1106 353 1088 l 513 1354 q 531 1363 517 1363 l 596 1363 q 604 1343 615 1363 l 439 1096 q 421 1088 433 1088 l 372 1088 m 64 0 q 49 15 49 0 l 49 175 q 64 190 49 190 l 324 190 l 324 836 l 64 836 q 49 851 49 836 l 49 1011 q 64 1026 49 1026 l 783 1026 q 799 1011 799 1026 l 799 851 q 783 836 799 836 l 522 836 l 522 190 l 783 190 q 799 175 799 190 l 799 15 q 783 0 799 0 l 64 0 z "},"Î":{"ha":847,"x_min":49,"x_max":799,"o":"m 393 1360 l 453 1360 q 483 1343 472 1360 l 661 1113 q 663 1095 667 1103 q 647 1088 658 1088 l 594 1088 q 568 1110 585 1088 l 422 1303 l 279 1110 q 253 1088 265 1088 l 200 1088 q 185 1095 189 1088 q 188 1111 181 1103 l 363 1343 q 393 1360 375 1360 m 64 0 q 49 15 49 0 l 49 175 q 64 190 49 190 l 324 190 l 324 836 l 64 836 q 49 851 49 836 l 49 1011 q 64 1026 49 1026 l 783 1026 q 799 1011 799 1026 l 799 851 q 783 836 799 836 l 522 836 l 522 190 l 783 190 q 799 175 799 190 l 799 15 q 783 0 799 0 l 64 0 z "},"Ï":{"ha":847,"x_min":49,"x_max":799,"o":"m 176 1088 q 161 1103 161 1088 l 161 1140 q 176 1156 161 1156 l 371 1156 q 386 1140 386 1156 l 386 1103 q 371 1088 386 1088 l 176 1088 m 476 1088 q 461 1103 461 1088 l 461 1140 q 476 1156 461 1156 l 672 1156 q 688 1140 688 1156 l 688 1103 q 672 1088 688 1088 l 476 1088 m 64 0 q 49 15 49 0 l 49 175 q 64 190 49 190 l 324 190 l 324 836 l 64 836 q 49 851 49 836 l 49 1011 q 64 1026 49 1026 l 783 1026 q 799 1011 799 1026 l 799 851 q 783 836 799 836 l 522 836 l 522 190 l 783 190 q 799 175 799 190 l 799 15 q 783 0 799 0 l 64 0 z "},"Ð":{"ha":847,"x_min":21,"x_max":813,"o":"m 356 1026 q 687 894 561 1026 q 813 540 813 763 l 813 488 q 685 137 813 274 q 354 0 557 0 l 99 0 q 83 15 83 0 l 83 426 l 36 426 q 21 442 21 426 l 21 603 q 36 618 21 618 l 83 618 l 83 1011 q 99 1026 83 1026 l 356 1026 m 604 499 l 604 529 q 537 751 604 667 q 367 836 469 835 l 286 836 l 286 618 l 435 618 q 450 603 450 618 l 450 442 q 435 426 450 426 l 286 426 l 286 190 l 367 192 q 537 276 469 192 q 604 499 604 361 z "},"Ñ":{"ha":847,"x_min":83,"x_max":764,"o":"m 492 1092 q 417 1130 456 1092 q 360 1168 378 1168 q 324 1154 338 1168 q 297 1096 310 1140 q 280 1092 293 1089 q 253 1106 267 1094 q 243 1126 240 1117 q 360 1235 269 1235 q 436 1197 397 1235 q 493 1158 475 1158 q 528 1172 514 1158 q 554 1229 543 1186 q 586 1225 558 1243 q 607 1196 611 1210 q 492 1092 581 1092 m 99 0 q 83 15 83 0 l 83 1011 q 99 1026 83 1026 l 304 1026 q 322 1015 318 1026 l 554 446 l 561 446 l 561 1011 q 576 1026 561 1026 l 749 1026 q 764 1011 764 1026 l 764 15 q 749 0 764 0 l 540 0 q 522 13 528 0 l 293 617 l 285 617 l 286 197 l 286 15 q 271 0 286 0 l 99 0 z "},"Ò":{"ha":847,"x_min":35,"x_max":813,"o":"m 492 1088 l 442 1088 q 424 1096 429 1088 l 258 1343 q 267 1363 247 1363 l 332 1363 q 350 1354 346 1363 l 500 1106 q 492 1088 508 1088 m 424 -21 q 138 115 240 -21 q 35 467 35 250 l 35 561 q 138 913 35 779 q 424 1047 242 1047 q 710 913 607 1047 q 813 561 813 779 l 813 467 q 709 115 813 250 q 424 -21 606 -21 m 247 497 q 424 183 247 183 q 600 497 600 183 l 600 531 q 424 843 600 843 q 247 531 247 843 l 247 497 z "},"Ó":{"ha":847,"x_min":35,"x_max":813,"o":"m 372 1088 q 364 1106 353 1088 l 513 1354 q 531 1363 517 1363 l 596 1363 q 604 1343 615 1363 l 439 1096 q 421 1088 433 1088 l 372 1088 m 424 -21 q 138 115 240 -21 q 35 467 35 250 l 35 561 q 138 913 35 779 q 424 1047 242 1047 q 710 913 607 1047 q 813 561 813 779 l 813 467 q 709 115 813 250 q 424 -21 606 -21 m 247 497 q 424 183 247 183 q 600 497 600 183 l 600 531 q 424 843 600 843 q 247 531 247 843 l 247 497 z "},"Ô":{"ha":847,"x_min":35,"x_max":813,"o":"m 393 1360 l 453 1360 q 483 1343 472 1360 l 661 1113 q 663 1095 667 1103 q 647 1088 658 1088 l 594 1088 q 568 1110 585 1088 l 422 1303 l 279 1110 q 253 1088 265 1088 l 200 1088 q 185 1095 189 1088 q 188 1111 181 1103 l 363 1343 q 393 1360 375 1360 m 424 -21 q 138 115 240 -21 q 35 467 35 250 l 35 561 q 138 913 35 779 q 424 1047 242 1047 q 710 913 607 1047 q 813 561 813 779 l 813 467 q 709 115 813 250 q 424 -21 606 -21 m 247 497 q 424 183 247 183 q 600 497 600 183 l 600 531 q 424 843 600 843 q 247 531 247 843 l 247 497 z "},"Õ":{"ha":847,"x_min":35,"x_max":813,"o":"m 492 1092 q 417 1130 456 1092 q 360 1168 378 1168 q 324 1154 338 1168 q 297 1096 310 1140 q 280 1092 293 1089 q 253 1106 267 1094 q 243 1126 240 1117 q 360 1235 269 1235 q 436 1197 397 1235 q 493 1158 475 1158 q 528 1172 514 1158 q 554 1229 543 1186 q 586 1225 558 1243 q 607 1196 611 1210 q 492 1092 581 1092 m 424 -21 q 138 115 240 -21 q 35 467 35 250 l 35 561 q 138 913 35 779 q 424 1047 242 1047 q 710 913 607 1047 q 813 561 813 779 l 813 467 q 709 115 813 250 q 424 -21 606 -21 m 247 497 q 424 183 247 183 q 600 497 600 183 l 600 531 q 424 843 600 843 q 247 531 247 843 l 247 497 z "},"Ö":{"ha":847,"x_min":35,"x_max":813,"o":"m 176 1088 q 161 1103 161 1088 l 161 1140 q 176 1156 161 1156 l 371 1156 q 386 1140 386 1156 l 386 1103 q 371 1088 386 1088 l 176 1088 m 476 1088 q 461 1103 461 1088 l 461 1140 q 476 1156 461 1156 l 672 1156 q 688 1140 688 1156 l 688 1103 q 672 1088 688 1088 l 476 1088 m 424 -21 q 138 115 240 -21 q 35 467 35 250 l 35 561 q 138 913 35 779 q 424 1047 242 1047 q 710 913 607 1047 q 813 561 813 779 l 813 467 q 709 115 813 250 q 424 -21 606 -21 m 247 497 q 424 183 247 183 q 600 497 600 183 l 600 531 q 424 843 600 843 q 247 531 247 843 l 247 497 z "},"×":{"ha":847,"x_min":117,"x_max":732,"o":"m 472 518 l 718 271 q 719 250 729 260 l 690 221 q 668 222 681 211 l 422 468 l 176 221 q 154 221 165 210 l 126 249 q 128 271 117 258 l 374 517 l 126 764 q 126 786 117 775 l 154 815 q 176 814 165 824 l 422 567 l 668 813 q 690 814 681 825 l 719 785 q 718 764 732 775 l 472 518 z "},"Ø":{"ha":847,"x_min":35,"x_max":813,"o":"m 715 907 q 813 561 813 776 l 813 467 q 709 115 813 250 q 424 -21 606 -21 q 192 58 289 -21 l 144 -19 q 117 -28 132 -37 l 85 -6 q 78 22 68 7 l 136 117 q 35 467 35 247 l 35 561 q 138 913 35 779 q 424 1047 242 1047 q 658 967 563 1047 l 701 1036 q 731 1044 714 1056 l 763 1024 q 769 996 782 1011 l 715 907 m 247 497 q 265 328 247 392 l 544 782 q 424 843 501 843 q 247 531 247 843 l 247 497 m 600 497 l 600 531 q 583 693 600 628 l 304 240 q 424 183 347 183 q 600 497 600 183 z "},"Ù":{"ha":847,"x_min":83,"x_max":764,"o":"m 492 1088 l 442 1088 q 424 1096 429 1088 l 258 1343 q 267 1363 247 1363 l 332 1363 q 350 1354 346 1363 l 500 1106 q 492 1088 508 1088 m 422 -21 q 173 78 263 -21 q 83 340 83 178 l 83 1011 q 99 1026 83 1026 l 271 1026 q 286 1011 286 1026 l 286 363 q 424 183 286 183 q 561 363 561 183 l 561 1011 q 576 1026 561 1026 l 749 1026 q 764 1011 764 1026 l 764 351 q 674 80 764 181 q 422 -21 583 -21 z "},"Ú":{"ha":847,"x_min":83,"x_max":764,"o":"m 372 1088 q 364 1106 353 1088 l 513 1354 q 531 1363 517 1363 l 596 1363 q 604 1343 615 1363 l 439 1096 q 421 1088 433 1088 l 372 1088 m 422 -21 q 173 78 263 -21 q 83 340 83 178 l 83 1011 q 99 1026 83 1026 l 271 1026 q 286 1011 286 1026 l 286 363 q 424 183 286 183 q 561 363 561 183 l 561 1011 q 576 1026 561 1026 l 749 1026 q 764 1011 764 1026 l 764 351 q 674 80 764 181 q 422 -21 583 -21 z "},"Û":{"ha":847,"x_min":83,"x_max":764,"o":"m 393 1360 l 453 1360 q 483 1343 472 1360 l 661 1113 q 663 1095 667 1103 q 647 1088 658 1088 l 594 1088 q 568 1110 585 1088 l 422 1303 l 279 1110 q 253 1088 265 1088 l 200 1088 q 185 1095 189 1088 q 188 1111 181 1103 l 363 1343 q 393 1360 375 1360 m 422 -21 q 173 78 263 -21 q 83 340 83 178 l 83 1011 q 99 1026 83 1026 l 271 1026 q 286 1011 286 1026 l 286 363 q 424 183 286 183 q 561 363 561 183 l 561 1011 q 576 1026 561 1026 l 749 1026 q 764 1011 764 1026 l 764 351 q 674 80 764 181 q 422 -21 583 -21 z "},"Ü":{"ha":847,"x_min":83,"x_max":764,"o":"m 176 1088 q 161 1103 161 1088 l 161 1140 q 176 1156 161 1156 l 371 1156 q 386 1140 386 1156 l 386 1103 q 371 1088 386 1088 l 176 1088 m 476 1088 q 461 1103 461 1088 l 461 1140 q 476 1156 461 1156 l 672 1156 q 688 1140 688 1156 l 688 1103 q 672 1088 688 1088 l 476 1088 m 422 -21 q 173 78 263 -21 q 83 340 83 178 l 83 1011 q 99 1026 83 1026 l 271 1026 q 286 1011 286 1026 l 286 363 q 424 183 286 183 q 561 363 561 183 l 561 1011 q 576 1026 561 1026 l 749 1026 q 764 1011 764 1026 l 764 351 q 674 80 764 181 q 422 -21 583 -21 z "},"Ý":{"ha":847,"x_min":4,"x_max":843,"o":"m 372 1088 q 364 1106 353 1088 l 513 1354 q 531 1363 517 1363 l 596 1363 q 604 1343 615 1363 l 439 1096 q 421 1088 433 1088 l 372 1088 m 338 0 q 322 15 322 0 l 322 339 l 11 1008 q 22 1026 4 1026 l 219 1026 q 238 1015 231 1026 l 425 589 l 432 589 l 614 1015 q 632 1026 618 1026 l 826 1026 q 836 1008 843 1026 l 524 339 l 524 15 q 508 0 524 0 l 338 0 z "},"Þ":{"ha":847,"x_min":83,"x_max":814,"o":"m 425 867 q 709 774 604 867 q 814 522 814 681 q 704 268 814 364 q 421 172 594 172 l 288 172 l 288 15 q 272 0 288 0 l 99 0 q 83 15 83 0 l 83 1011 q 99 1026 83 1026 l 272 1026 q 288 1011 288 1026 l 288 867 l 425 867 m 426 363 q 556 403 508 363 q 603 522 603 444 q 556 638 603 599 q 426 676 508 676 l 288 676 l 288 363 l 426 363 z "},"ß":{"ha":847,"x_min":83,"x_max":817,"o":"m 607 592 q 760 492 704 567 q 817 308 817 418 q 730 85 817 171 q 490 -1 643 -1 l 374 -1 q 363 10 363 -1 l 363 172 q 374 182 363 182 l 479 182 q 578 215 542 182 q 614 308 614 249 q 580 397 614 364 q 483 431 546 431 l 392 431 q 379 443 379 431 l 379 569 q 390 603 379 590 l 603 840 l 558 840 q 343 758 407 840 q 279 514 279 675 l 279 14 q 264 -3 279 -3 l 99 -3 q 83 14 83 -3 l 83 524 q 596 1026 83 1026 l 796 1026 q 810 1011 810 1026 l 810 828 q 803 810 810 817 l 607 592 z "},"à":{"ha":847,"x_min":46,"x_max":838,"o":"m 421 785 l 256 1032 q 264 1051 244 1051 l 329 1051 q 347 1043 343 1051 l 497 794 q 489 776 506 776 l 439 776 q 421 785 426 776 m 822 176 q 838 163 838 176 l 838 18 q 822 3 838 7 q 710 -10 778 -10 q 567 69 590 -10 q 331 -19 500 -19 q 122 44 197 -19 q 46 217 46 107 q 256 417 46 390 l 556 451 l 556 456 q 415 558 556 558 q 317 535 350 558 q 279 479 283 513 q 261 461 278 461 l 82 461 q 67 479 65 461 q 169 670 76 604 q 418 736 261 736 q 668 663 586 736 q 750 436 750 589 l 750 176 l 822 176 m 361 156 q 491 187 440 156 q 553 304 542 218 l 331 275 q 250 215 250 263 q 356 156 250 156 l 361 156 z "},"á":{"ha":847,"x_min":46,"x_max":838,"o":"m 369 776 q 361 794 350 776 l 510 1043 q 528 1051 514 1051 l 593 1051 q 601 1032 613 1051 l 436 785 q 418 776 431 776 l 369 776 m 822 176 q 838 163 838 176 l 838 18 q 822 3 838 7 q 710 -10 778 -10 q 567 69 590 -10 q 331 -19 500 -19 q 122 44 197 -19 q 46 217 46 107 q 256 417 46 390 l 556 451 l 556 456 q 415 558 556 558 q 317 535 350 558 q 279 479 283 513 q 261 461 278 461 l 82 461 q 67 479 65 461 q 169 670 76 604 q 418 736 261 736 q 668 663 586 736 q 750 436 750 589 l 750 176 l 822 176 m 361 156 q 491 187 440 156 q 553 304 542 218 l 331 275 q 250 215 250 263 q 356 156 250 156 l 361 156 z "},"â":{"ha":847,"x_min":46,"x_max":838,"o":"m 199 776 q 183 784 188 776 q 186 800 179 792 l 361 1032 q 392 1049 374 1049 l 451 1049 q 482 1032 471 1049 l 660 801 q 662 784 667 792 q 646 776 657 776 l 593 776 q 567 799 583 776 l 421 992 l 278 799 q 251 776 264 776 l 199 776 m 822 176 q 838 163 838 176 l 838 18 q 822 3 838 7 q 710 -10 778 -10 q 567 69 590 -10 q 331 -19 500 -19 q 122 44 197 -19 q 46 217 46 107 q 256 417 46 390 l 556 451 l 556 456 q 415 558 556 558 q 317 535 350 558 q 279 479 283 513 q 261 461 278 461 l 82 461 q 67 479 65 461 q 169 670 76 604 q 418 736 261 736 q 668 663 586 736 q 750 436 750 589 l 750 176 l 822 176 m 361 156 q 491 187 440 156 q 553 304 542 218 l 331 275 q 250 215 250 263 q 356 156 250 156 l 361 156 z "},"ã":{"ha":847,"x_min":46,"x_max":838,"o":"m 294 785 q 277 781 290 778 q 251 794 264 783 q 240 815 238 806 q 357 924 267 924 q 433 885 394 924 q 490 847 472 847 q 526 861 511 847 q 551 918 540 875 q 583 914 556 932 q 604 885 608 899 q 489 781 578 781 q 414 819 453 781 q 357 857 375 857 q 321 843 335 857 q 294 785 307 829 m 822 176 q 838 163 838 176 l 838 18 q 822 3 838 7 q 710 -10 778 -10 q 567 69 590 -10 q 331 -19 500 -19 q 122 44 197 -19 q 46 217 46 107 q 256 417 46 390 l 556 451 l 556 456 q 415 558 556 558 q 317 535 350 558 q 279 479 283 513 q 261 461 278 461 l 82 461 q 67 479 65 461 q 169 670 76 604 q 418 736 261 736 q 668 663 586 736 q 750 436 750 589 l 750 176 l 822 176 m 361 156 q 491 187 440 156 q 553 304 542 218 l 331 275 q 250 215 250 263 q 356 156 250 156 l 361 156 z "},"ä":{"ha":847,"x_min":46,"x_max":838,"o":"m 175 776 q 160 792 160 776 l 160 829 q 175 844 160 844 l 369 844 q 385 829 385 844 l 385 792 q 369 776 385 776 l 175 776 m 475 776 q 460 792 460 776 l 460 829 q 475 844 460 844 l 671 844 q 686 829 686 844 l 686 792 q 671 776 686 776 l 475 776 m 822 176 q 838 163 838 176 l 838 18 q 822 3 838 7 q 710 -10 778 -10 q 567 69 590 -10 q 331 -19 500 -19 q 122 44 197 -19 q 46 217 46 107 q 256 417 46 390 l 556 451 l 556 456 q 415 558 556 558 q 317 535 350 558 q 279 479 283 513 q 261 461 278 461 l 82 461 q 67 479 65 461 q 169 670 76 604 q 418 736 261 736 q 668 663 586 736 q 750 436 750 589 l 750 176 l 822 176 m 361 156 q 491 187 440 156 q 553 304 542 218 l 331 275 q 250 215 250 263 q 356 156 250 156 l 361 156 z "},"å":{"ha":847,"x_min":46,"x_max":838,"o":"m 522 805 q 500 784 522 805 q 421 763 479 763 q 321 805 363 763 q 279 906 279 847 q 321 1005 279 963 q 421 1047 363 1047 q 522 1005 479 1047 q 564 906 564 963 q 522 805 564 847 m 479 963 q 467 974 479 963 q 421 986 456 986 q 363 963 386 986 q 339 906 339 939 q 363 847 339 871 q 421 822 386 822 q 479 847 456 822 q 503 906 503 871 q 479 963 503 939 m 822 176 q 838 163 838 176 l 838 18 q 822 3 838 7 q 710 -10 778 -10 q 567 69 590 -10 q 331 -19 500 -19 q 122 44 197 -19 q 46 217 46 107 q 256 417 46 390 l 556 451 l 556 456 q 415 558 556 558 q 317 535 350 558 q 279 479 283 513 q 261 461 278 461 l 82 461 q 67 479 65 461 q 169 670 76 604 q 418 736 261 736 q 668 663 586 736 q 750 436 750 589 l 750 176 l 822 176 m 361 156 q 491 187 440 156 q 553 304 542 218 l 331 275 q 250 215 250 263 q 356 156 250 156 l 361 156 z "},"æ":{"ha":847,"x_min":54,"x_max":811,"o":"m 811 322 q 803 306 811 306 l 517 306 q 581 167 521 167 q 643 242 639 167 q 657 258 644 258 l 799 258 q 811 242 811 258 q 746 46 807 114 q 586 -22 685 -22 q 429 49 482 -22 q 269 -21 379 -21 q 112 40 169 -21 q 54 196 54 100 q 117 351 54 296 q 279 424 179 407 l 356 433 q 342 524 354 497 q 301 550 331 550 q 244 475 246 550 q 229 460 244 460 l 81 460 q 65 475 65 460 q 138 667 68 596 q 303 738 208 738 q 439 689 390 738 q 583 736 496 738 q 811 392 811 732 l 811 322 m 519 436 l 643 436 q 627 522 642 497 q 582 547 613 547 q 519 436 524 547 m 285 160 q 354 300 353 160 l 332 297 q 240 215 240 281 q 285 160 240 160 z "},"ç":{"ha":847,"x_min":36,"x_max":808,"o":"m 793 304 q 807 289 808 304 q 704 69 797 151 q 453 -19 611 -12 l 433 -60 q 606 -211 606 -86 q 528 -344 606 -296 q 339 -392 451 -392 q 318 -372 318 -392 l 318 -335 q 323 -322 318 -328 q 335 -317 328 -317 q 525 -208 525 -317 q 350 -118 525 -118 q 341 -112 343 -118 q 342 -99 339 -106 l 379 -18 q 126 97 215 -4 q 36 360 36 197 q 140 632 36 528 q 422 736 244 736 q 699 650 597 736 q 807 418 800 564 q 793 403 808 403 l 607 403 q 589 417 593 403 q 537 508 581 472 q 424 543 493 543 q 292 493 340 543 q 244 360 244 443 q 292 224 244 275 q 424 172 340 172 q 590 290 572 172 q 607 304 590 304 l 793 304 z "},"è":{"ha":847,"x_min":36,"x_max":813,"o":"m 424 785 l 258 1032 q 267 1051 247 1051 l 332 1051 q 350 1043 346 1051 l 500 794 q 492 776 508 776 l 442 776 q 424 785 429 776 m 432 736 q 711 638 610 736 q 813 357 813 539 l 813 322 q 797 307 813 307 l 249 307 q 312 207 263 242 q 438 172 361 172 q 589 242 578 172 q 608 256 592 256 l 793 256 q 807 239 808 256 q 692 49 789 118 q 432 -21 596 -21 q 142 79 249 -21 q 36 360 36 179 q 144 634 36 532 q 432 736 253 736 m 431 547 q 257 439 299 547 l 594 439 q 431 547 564 547 z "},"é":{"ha":847,"x_min":36,"x_max":813,"o":"m 372 776 q 364 794 353 776 l 513 1043 q 531 1051 517 1051 l 596 1051 q 604 1032 615 1051 l 439 785 q 421 776 433 776 l 372 776 m 432 736 q 711 638 610 736 q 813 357 813 539 l 813 322 q 797 307 813 307 l 249 307 q 312 207 263 242 q 438 172 361 172 q 589 242 578 172 q 608 256 592 256 l 793 256 q 807 239 808 256 q 692 49 789 118 q 432 -21 596 -21 q 142 79 249 -21 q 36 360 36 179 q 144 634 36 532 q 432 736 253 736 m 431 547 q 257 439 299 547 l 594 439 q 431 547 564 547 z "},"ê":{"ha":847,"x_min":36,"x_max":813,"o":"m 200 776 q 185 784 189 776 q 188 800 181 792 l 363 1032 q 393 1049 375 1049 l 453 1049 q 483 1032 472 1049 l 661 801 q 663 784 667 792 q 647 776 658 776 l 594 776 q 568 799 585 776 l 422 992 l 279 799 q 253 776 265 776 l 200 776 m 432 736 q 711 638 610 736 q 813 357 813 539 l 813 322 q 797 307 813 307 l 249 307 q 312 207 263 242 q 438 172 361 172 q 589 242 578 172 q 608 256 592 256 l 793 256 q 807 239 808 256 q 692 49 789 118 q 432 -21 596 -21 q 142 79 249 -21 q 36 360 36 179 q 144 634 36 532 q 432 736 253 736 m 431 547 q 257 439 299 547 l 594 439 q 431 547 564 547 z "},"ë":{"ha":847,"x_min":36,"x_max":813,"o":"m 176 776 q 161 792 161 776 l 161 829 q 176 844 161 844 l 371 844 q 386 829 386 844 l 386 792 q 371 776 386 776 l 176 776 m 476 776 q 461 792 461 776 l 461 829 q 476 844 461 844 l 672 844 q 688 829 688 844 l 688 792 q 672 776 688 776 l 476 776 m 432 736 q 711 638 610 736 q 813 357 813 539 l 813 322 q 797 307 813 307 l 249 307 q 312 207 263 242 q 438 172 361 172 q 589 242 578 172 q 608 256 592 256 l 793 256 q 807 239 808 256 q 692 49 789 118 q 432 -21 596 -21 q 142 79 249 -21 q 36 360 36 179 q 144 634 36 532 q 432 736 253 736 m 431 547 q 257 439 299 547 l 594 439 q 431 547 564 547 z "},"ì":{"ha":847,"x_min":49,"x_max":813,"o":"m 492 776 l 442 776 q 424 785 429 776 l 258 1032 q 267 1051 247 1051 l 332 1051 q 350 1043 346 1051 l 500 794 q 492 776 508 776 m 64 0 q 49 15 49 0 l 49 167 q 64 182 49 182 l 365 182 l 365 533 l 64 533 q 49 549 49 533 l 49 700 q 64 715 49 715 l 546 715 q 561 700 561 715 l 561 182 l 797 182 q 813 167 813 182 l 813 15 q 797 0 813 0 l 64 0 z "},"í":{"ha":847,"x_min":49,"x_max":813,"o":"m 372 776 q 364 794 353 776 l 513 1043 q 531 1051 517 1051 l 596 1051 q 604 1032 615 1051 l 439 785 q 421 776 433 776 l 372 776 m 64 0 q 49 15 49 0 l 49 167 q 64 182 49 182 l 365 182 l 365 533 l 64 533 q 49 549 49 533 l 49 700 q 64 715 49 715 l 546 715 q 561 700 561 715 l 561 182 l 797 182 q 813 167 813 182 l 813 15 q 797 0 813 0 l 64 0 z "},"î":{"ha":847,"x_min":49,"x_max":813,"o":"m 393 1049 l 453 1049 q 483 1032 472 1049 l 661 801 q 663 784 667 792 q 647 776 658 776 l 594 776 q 568 799 585 776 l 422 992 l 279 799 q 253 776 265 776 l 200 776 q 185 784 189 776 q 188 800 181 792 l 363 1032 q 393 1049 375 1049 m 64 0 q 49 15 49 0 l 49 167 q 64 182 49 182 l 365 182 l 365 533 l 64 533 q 49 549 49 533 l 49 700 q 64 715 49 715 l 546 715 q 561 700 561 715 l 561 182 l 797 182 q 813 167 813 182 l 813 15 q 797 0 813 0 l 64 0 z "},"ï":{"ha":847,"x_min":49,"x_max":813,"o":"m 176 776 q 161 792 161 776 l 161 829 q 176 844 161 844 l 371 844 q 386 829 386 844 l 386 792 q 371 776 386 776 l 176 776 m 476 776 q 461 792 461 776 l 461 829 q 476 844 461 844 l 672 844 q 688 829 688 844 l 688 792 q 672 776 688 776 l 476 776 m 64 0 q 49 15 49 0 l 49 167 q 64 182 49 182 l 365 182 l 365 533 l 64 533 q 49 549 49 533 l 49 700 q 64 715 49 715 l 546 715 q 561 700 561 715 l 561 182 l 797 182 q 813 167 813 182 l 813 15 q 797 0 813 0 l 64 0 z "},"ð":{"ha":847,"x_min":36,"x_max":808,"o":"m 657 878 q 808 421 808 697 q 711 99 808 217 q 419 -19 614 -19 q 142 74 249 -19 q 36 315 36 168 q 131 558 36 471 q 385 646 226 646 q 588 581 526 643 q 467 796 567 694 l 236 696 q 219 708 219 688 l 219 735 q 232 760 219 754 l 418 840 q 136 1003 314 929 q 127 1011 129 1006 q 128 1022 125 1017 q 139 1026 132 1026 l 464 1026 q 486 1022 481 1026 q 613 925 554 981 l 779 997 q 791 997 786 1000 q 796 986 796 993 l 796 958 q 785 933 796 939 l 657 878 m 421 174 q 548 211 503 174 q 593 314 593 249 q 547 415 593 376 q 419 454 501 454 q 292 415 340 454 q 244 315 244 376 q 292 213 244 250 q 421 174 340 175 z "},"ñ":{"ha":847,"x_min":71,"x_max":776,"o":"m 492 781 q 417 819 456 781 q 360 857 378 857 q 324 843 338 857 q 297 785 310 829 q 280 781 293 778 q 253 794 267 783 q 243 815 240 806 q 360 924 269 924 q 436 885 397 924 q 493 847 475 847 q 528 861 514 847 q 554 918 543 875 q 586 914 558 932 q 607 885 611 899 q 492 781 581 781 m 86 0 q 71 15 71 0 l 71 700 q 86 715 71 715 l 250 715 q 265 700 265 715 l 265 646 q 488 736 336 736 q 776 438 776 736 l 776 15 q 761 0 776 0 l 596 0 q 581 15 581 0 l 581 375 q 546 503 581 463 q 436 544 511 544 q 268 375 268 544 l 268 15 q 253 0 268 0 l 86 0 z "},"ò":{"ha":847,"x_min":36,"x_max":811,"o":"m 424 785 l 258 1032 q 267 1051 247 1051 l 332 1051 q 350 1043 346 1051 l 500 794 q 492 776 508 776 l 442 776 q 424 785 429 776 m 425 736 q 705 635 599 736 q 811 360 811 535 q 703 84 811 188 q 425 -19 596 -19 q 142 81 247 -19 q 36 360 36 181 q 143 634 36 532 q 425 736 250 736 m 425 172 q 553 222 503 172 q 603 360 603 272 q 553 494 603 444 q 425 543 503 543 q 295 494 346 543 q 244 360 244 444 q 295 222 244 272 q 425 172 346 172 z "},"ó":{"ha":847,"x_min":36,"x_max":811,"o":"m 372 776 q 364 794 353 776 l 513 1043 q 531 1051 517 1051 l 596 1051 q 604 1032 615 1051 l 439 785 q 421 776 433 776 l 372 776 m 425 736 q 705 635 599 736 q 811 360 811 535 q 703 84 811 188 q 425 -19 596 -19 q 142 81 247 -19 q 36 360 36 181 q 143 634 36 532 q 425 736 250 736 m 425 172 q 553 222 503 172 q 603 360 603 272 q 553 494 603 444 q 425 543 503 543 q 295 494 346 543 q 244 360 244 444 q 295 222 244 272 q 425 172 346 172 z "},"ô":{"ha":847,"x_min":36,"x_max":811,"o":"m 200 776 q 185 784 189 776 q 188 800 181 792 l 363 1032 q 393 1049 375 1049 l 453 1049 q 483 1032 472 1049 l 661 801 q 663 784 667 792 q 647 776 658 776 l 594 776 q 568 799 585 776 l 422 992 l 279 799 q 253 776 265 776 l 200 776 m 425 736 q 705 635 599 736 q 811 360 811 535 q 703 84 811 188 q 425 -19 596 -19 q 142 81 247 -19 q 36 360 36 181 q 143 634 36 532 q 425 736 250 736 m 425 172 q 553 222 503 172 q 603 360 603 272 q 553 494 603 444 q 425 543 503 543 q 295 494 346 543 q 244 360 244 444 q 295 222 244 272 q 425 172 346 172 z "},"õ":{"ha":847,"x_min":36,"x_max":811,"o":"m 297 785 q 280 781 293 778 q 253 794 267 783 q 243 815 240 806 q 360 924 269 924 q 436 885 397 924 q 493 847 475 847 q 528 861 514 847 q 554 918 543 875 q 586 914 558 932 q 607 885 611 899 q 492 781 581 781 q 417 819 456 781 q 360 857 378 857 q 324 843 338 857 q 297 785 310 829 m 425 736 q 705 635 599 736 q 811 360 811 535 q 703 84 811 188 q 425 -19 596 -19 q 142 81 247 -19 q 36 360 36 181 q 143 634 36 532 q 425 736 250 736 m 425 172 q 553 222 503 172 q 603 360 603 272 q 553 494 603 444 q 425 543 503 543 q 295 494 346 543 q 244 360 244 444 q 295 222 244 272 q 425 172 346 172 z "},"ö":{"ha":847,"x_min":36,"x_max":811,"o":"m 176 776 q 161 792 161 776 l 161 829 q 176 844 161 844 l 371 844 q 386 829 386 844 l 386 792 q 371 776 386 776 l 176 776 m 476 776 q 461 792 461 776 l 461 829 q 476 844 461 844 l 672 844 q 688 829 688 844 l 688 792 q 672 776 688 776 l 476 776 m 425 736 q 705 635 599 736 q 811 360 811 535 q 703 84 811 188 q 425 -19 596 -19 q 142 81 247 -19 q 36 360 36 181 q 143 634 36 532 q 425 736 250 736 m 425 172 q 553 222 503 172 q 603 360 603 272 q 553 494 603 444 q 425 543 503 543 q 295 494 346 543 q 244 360 244 444 q 295 222 244 272 q 425 172 346 172 z "},"ø":{"ha":847,"x_min":36,"x_max":811,"o":"m 658 672 q 811 360 811 572 q 703 84 811 188 q 425 -19 596 -19 q 249 13 328 -19 l 188 -85 q 160 -93 176 -106 l 128 -71 q 121 -43 110 -60 l 179 50 q 36 360 36 151 q 143 634 36 532 q 425 736 250 736 q 589 708 514 736 l 657 818 q 686 826 669 839 l 718 807 q 725 779 735 794 l 658 672 m 244 360 q 290 228 244 278 l 481 536 q 425 543 453 543 q 295 494 346 543 q 244 360 244 444 m 425 172 q 553 222 503 172 q 603 360 603 272 q 550 497 603 447 l 354 185 q 425 172 388 172 z "},"ù":{"ha":847,"x_min":71,"x_max":776,"o":"m 492 776 l 442 776 q 424 785 429 776 l 258 1032 q 267 1051 247 1051 l 332 1051 q 350 1043 346 1051 l 500 794 q 492 776 508 776 m 761 715 q 776 700 776 715 l 776 15 q 761 0 776 0 l 599 0 q 583 15 583 0 l 583 69 q 360 -21 511 -21 q 71 278 71 -21 l 71 700 q 86 715 71 715 l 253 715 q 268 700 268 715 l 268 340 q 302 213 268 253 q 411 172 336 172 q 581 340 581 172 l 581 700 q 596 715 581 715 l 761 715 z "},"ú":{"ha":847,"x_min":71,"x_max":776,"o":"m 372 776 q 364 794 353 776 l 513 1043 q 531 1051 517 1051 l 596 1051 q 604 1032 615 1051 l 439 785 q 421 776 433 776 l 372 776 m 761 715 q 776 700 776 715 l 776 15 q 761 0 776 0 l 599 0 q 583 15 583 0 l 583 69 q 360 -21 511 -21 q 71 278 71 -21 l 71 700 q 86 715 71 715 l 253 715 q 268 700 268 715 l 268 340 q 302 213 268 253 q 411 172 336 172 q 581 340 581 172 l 581 700 q 596 715 581 715 l 761 715 z "},"û":{"ha":847,"x_min":71,"x_max":776,"o":"m 393 1049 l 453 1049 q 483 1032 472 1049 l 661 801 q 663 784 667 792 q 647 776 658 776 l 594 776 q 568 799 585 776 l 422 992 l 279 799 q 253 776 265 776 l 200 776 q 185 784 189 776 q 188 800 181 792 l 363 1032 q 393 1049 375 1049 m 761 715 q 776 700 776 715 l 776 15 q 761 0 776 0 l 599 0 q 583 15 583 0 l 583 69 q 360 -21 511 -21 q 71 278 71 -21 l 71 700 q 86 715 71 715 l 253 715 q 268 700 268 715 l 268 340 q 302 213 268 253 q 411 172 336 172 q 581 340 581 172 l 581 700 q 596 715 581 715 l 761 715 z "},"ü":{"ha":847,"x_min":71,"x_max":776,"o":"m 176 776 q 161 792 161 776 l 161 829 q 176 844 161 844 l 371 844 q 386 829 386 844 l 386 792 q 371 776 386 776 l 176 776 m 476 776 q 461 792 461 776 l 461 829 q 476 844 461 844 l 672 844 q 688 829 688 844 l 688 792 q 672 776 688 776 l 476 776 m 761 715 q 776 700 776 715 l 776 15 q 761 0 776 0 l 599 0 q 583 15 583 0 l 583 69 q 360 -21 511 -21 q 71 278 71 -21 l 71 700 q 86 715 71 715 l 253 715 q 268 700 268 715 l 268 340 q 302 213 268 253 q 411 172 336 172 q 581 340 581 172 l 581 700 q 596 715 581 715 l 761 715 z "},"ý":{"ha":847,"x_min":10,"x_max":832,"o":"m 372 776 q 364 794 353 776 l 513 1043 q 531 1051 517 1051 l 596 1051 q 604 1032 615 1051 l 439 785 q 421 776 433 776 l 372 776 m 325 -42 l 14 696 q 15 709 10 703 q 28 715 19 715 l 214 715 q 233 700 225 715 l 424 206 l 431 206 l 610 700 q 628 715 615 715 l 814 715 q 827 709 822 715 q 829 696 832 703 l 514 -83 q 384 -274 458 -217 q 179 -332 310 -332 q 31 -312 107 -332 q 17 -294 17 -308 l 17 -133 q 22 -120 17 -125 q 35 -117 28 -115 q 157 -142 117 -142 l 161 -142 q 253 -124 221 -142 q 318 -54 286 -106 l 325 -42 z "},"þ":{"ha":847,"x_min":71,"x_max":806,"o":"m 465 735 q 713 635 619 735 q 806 357 806 536 q 708 85 806 190 q 458 -21 611 -21 q 268 39 338 -21 l 268 -296 q 253 -311 268 -311 l 86 -311 q 71 -296 71 -311 l 71 1011 q 86 1026 71 1026 l 253 1026 q 268 1011 268 1026 l 268 663 q 465 735 336 735 m 435 172 q 553 222 510 172 q 597 357 597 271 q 555 494 597 446 q 436 543 513 543 q 315 495 361 543 q 268 364 269 447 l 268 357 q 313 222 268 271 q 435 172 358 172 z "},"ÿ":{"ha":847,"x_min":10,"x_max":832,"o":"m 176 776 q 161 792 161 776 l 161 829 q 176 844 161 844 l 371 844 q 386 829 386 844 l 386 792 q 371 776 386 776 l 176 776 m 476 776 q 461 792 461 776 l 461 829 q 476 844 461 844 l 672 844 q 688 829 688 844 l 688 792 q 672 776 688 776 l 476 776 m 325 -42 l 14 696 q 15 709 10 703 q 28 715 19 715 l 214 715 q 233 700 225 715 l 424 206 l 431 206 l 610 700 q 628 715 615 715 l 814 715 q 827 709 822 715 q 829 696 832 703 l 514 -83 q 384 -274 458 -217 q 179 -332 310 -332 q 31 -312 107 -332 q 17 -294 17 -308 l 17 -133 q 22 -120 17 -125 q 35 -117 28 -115 q 157 -142 117 -142 l 161 -142 q 253 -124 221 -142 q 318 -54 286 -106 l 325 -42 z "},"Ā":{"ha":847,"x_min":10,"x_max":839,"o":"m 251 1088 q 236 1103 236 1088 l 236 1140 q 251 1156 236 1156 l 599 1156 q 614 1140 614 1156 l 614 1103 q 599 1088 614 1088 l 251 1088 m 833 17 q 821 0 839 0 l 625 0 q 608 13 610 0 l 576 153 l 267 153 l 236 13 q 219 0 235 0 l 28 0 q 14 17 10 0 l 263 1013 q 279 1026 267 1026 l 567 1026 q 583 1013 579 1026 l 833 17 m 311 350 l 532 350 l 424 832 l 417 832 l 311 350 z "},"ā":{"ha":847,"x_min":46,"x_max":838,"o":"m 249 776 q 233 792 233 776 l 233 829 q 249 844 233 844 l 596 844 q 611 829 611 844 l 611 792 q 596 776 611 776 l 249 776 m 822 176 q 838 163 838 176 l 838 18 q 822 3 838 7 q 710 -10 778 -10 q 567 69 590 -10 q 331 -19 500 -19 q 122 44 197 -19 q 46 217 46 107 q 256 417 46 390 l 556 451 l 556 456 q 415 558 556 558 q 317 535 350 558 q 279 479 283 513 q 261 461 278 461 l 82 461 q 67 479 65 461 q 169 670 76 604 q 418 736 261 736 q 668 663 586 736 q 750 436 750 589 l 750 176 l 822 176 m 361 156 q 491 187 440 156 q 553 304 542 218 l 331 275 q 250 215 250 263 q 356 156 250 156 l 361 156 z "},"Ă":{"ha":847,"x_min":10,"x_max":839,"o":"m 425 1088 q 243 1154 306 1088 q 181 1339 181 1221 q 201 1361 181 1361 l 235 1361 q 249 1351 243 1361 q 256 1328 256 1342 q 299 1200 256 1249 q 425 1151 343 1151 q 548 1200 504 1151 q 592 1328 592 1249 q 598 1351 592 1342 q 613 1361 604 1361 l 646 1361 q 667 1339 667 1361 q 604 1154 667 1221 q 425 1088 542 1088 m 833 17 q 821 0 839 0 l 625 0 q 608 13 610 0 l 576 153 l 267 153 l 236 13 q 219 0 235 0 l 28 0 q 14 17 10 0 l 263 1013 q 279 1026 267 1026 l 567 1026 q 583 1013 579 1026 l 833 17 m 311 350 l 532 350 l 424 832 l 417 832 l 311 350 z "},"ă":{"ha":847,"x_min":46,"x_max":838,"o":"m 422 776 q 240 843 303 776 q 178 1028 178 910 q 199 1050 178 1050 l 232 1050 q 247 1040 240 1050 q 253 1017 253 1031 q 297 889 253 938 q 422 840 340 840 q 545 889 501 840 q 589 1017 589 938 q 595 1040 589 1031 q 610 1050 601 1050 l 643 1050 q 664 1028 664 1050 q 601 843 664 910 q 422 776 539 776 m 822 176 q 838 163 838 176 l 838 18 q 822 3 838 7 q 710 -10 778 -10 q 567 69 590 -10 q 331 -19 500 -19 q 122 44 197 -19 q 46 217 46 107 q 256 417 46 390 l 556 451 l 556 456 q 415 558 556 558 q 317 535 350 558 q 279 479 283 513 q 261 461 278 461 l 82 461 q 67 479 65 461 q 169 670 76 604 q 418 736 261 736 q 668 663 586 736 q 750 436 750 589 l 750 176 l 822 176 m 361 156 q 491 187 440 156 q 553 304 542 218 l 331 275 q 250 215 250 263 q 356 156 250 156 l 361 156 z "},"Ą":{"ha":847,"x_min":10,"x_max":839,"o":"m 833 17 q 821 0 839 0 l 740 0 q 585 -45 640 -1 q 529 -153 529 -89 q 594 -265 529 -222 q 749 -308 658 -308 q 765 -328 765 -308 l 765 -361 q 744 -382 765 -382 q 530 -315 611 -382 q 449 -158 449 -249 q 490 -41 449 -90 q 604 32 531 8 l 576 153 l 267 153 l 236 13 q 219 0 235 0 l 28 0 q 14 17 10 0 l 263 1013 q 279 1026 267 1026 l 567 1026 q 583 1013 579 1026 l 833 17 m 311 350 l 532 350 l 424 832 l 417 832 l 311 350 z "},"ą":{"ha":847,"x_min":46,"x_max":838,"o":"m 822 176 q 838 163 838 176 l 838 18 q 822 3 838 7 q 715 -10 782 -10 q 577 -56 625 -17 q 529 -156 529 -96 q 594 -268 529 -225 q 749 -311 658 -311 q 765 -331 765 -311 l 765 -364 q 744 -385 765 -385 q 530 -318 611 -385 q 449 -161 449 -251 q 597 22 449 -26 q 567 69 575 40 q 331 -19 500 -19 q 122 44 197 -19 q 46 217 46 107 q 256 417 46 390 l 556 451 l 556 456 q 415 558 556 558 q 317 535 350 558 q 279 479 283 513 q 261 461 278 461 l 82 461 q 67 479 65 461 q 169 670 76 604 q 418 736 261 736 q 668 663 586 736 q 750 436 750 589 l 750 176 l 822 176 m 361 156 q 491 187 440 156 q 553 304 542 218 l 331 275 q 250 215 250 263 q 356 156 250 156 l 361 156 z "},"Ć":{"ha":847,"x_min":35,"x_max":804,"o":"m 372 1088 q 364 1106 353 1088 l 513 1354 q 531 1363 517 1363 l 596 1363 q 604 1343 615 1363 l 439 1096 q 421 1088 433 1088 l 372 1088 m 422 -19 q 138 115 240 -19 q 35 468 35 250 l 35 561 q 138 912 35 778 q 422 1047 242 1046 q 697 938 604 1047 q 801 639 789 828 q 786 619 804 619 l 600 619 q 582 636 583 619 q 424 843 564 843 q 294 765 340 843 q 249 529 249 688 l 249 500 q 424 185 249 185 q 582 393 564 185 q 600 408 583 408 l 786 408 q 801 390 804 408 q 694 94 789 208 q 422 -19 600 -19 z "},"ć":{"ha":847,"x_min":36,"x_max":808,"o":"m 372 776 q 364 794 353 776 l 513 1043 q 531 1051 517 1051 l 596 1051 q 604 1032 615 1051 l 439 785 q 421 776 433 776 l 372 776 m 424 -19 q 138 83 239 -19 q 36 360 36 186 q 140 632 36 528 q 422 736 244 736 q 699 650 597 736 q 807 418 800 564 q 793 403 808 403 l 607 403 q 589 417 593 403 q 537 508 581 472 q 424 543 493 543 q 292 493 340 543 q 244 360 244 443 q 292 224 244 275 q 424 172 340 172 q 590 290 572 172 q 607 304 590 304 l 793 304 q 807 289 808 304 q 696 63 797 146 q 424 -19 594 -19 z "},"Ċ":{"ha":847,"x_min":35,"x_max":804,"o":"m 466 1126 q 457 1117 466 1126 q 424 1108 447 1108 q 382 1126 400 1108 q 364 1169 364 1144 q 382 1211 364 1193 q 424 1229 400 1229 q 466 1211 447 1229 q 485 1169 485 1193 q 466 1126 485 1144 m 422 -19 q 138 115 240 -19 q 35 468 35 250 l 35 561 q 138 912 35 778 q 422 1047 242 1046 q 697 938 604 1047 q 801 639 789 828 q 786 619 804 619 l 600 619 q 582 636 583 619 q 424 843 564 843 q 294 765 340 843 q 249 529 249 688 l 249 500 q 424 185 249 185 q 582 393 564 185 q 600 408 583 408 l 786 408 q 801 390 804 408 q 694 94 789 208 q 422 -19 600 -19 z "},"ċ":{"ha":847,"x_min":36,"x_max":808,"o":"m 466 815 q 457 806 466 815 q 424 797 447 797 q 382 815 400 797 q 364 858 364 833 q 382 900 364 882 q 424 918 400 918 q 466 900 447 918 q 485 858 485 882 q 466 815 485 833 m 424 -19 q 138 83 239 -19 q 36 360 36 186 q 140 632 36 528 q 422 736 244 736 q 699 650 597 736 q 807 418 800 564 q 793 403 808 403 l 607 403 q 589 417 593 403 q 537 508 581 472 q 424 543 493 543 q 292 493 340 543 q 244 360 244 443 q 292 224 244 275 q 424 172 340 172 q 590 290 572 172 q 607 304 590 304 l 793 304 q 807 289 808 304 q 696 63 797 146 q 424 -19 594 -19 z "},"Č":{"ha":847,"x_min":35,"x_max":804,"o":"m 393 1086 q 363 1103 375 1086 l 188 1335 q 185 1351 181 1343 q 200 1358 189 1358 l 253 1358 q 279 1338 264 1358 l 422 1144 l 568 1338 q 594 1358 586 1358 l 647 1358 q 663 1351 658 1358 q 661 1335 668 1343 l 483 1103 q 453 1086 472 1086 l 393 1086 m 422 -19 q 138 115 240 -19 q 35 468 35 250 l 35 561 q 138 912 35 778 q 422 1047 242 1046 q 697 938 604 1047 q 801 639 789 828 q 786 619 804 619 l 600 619 q 582 636 583 619 q 424 843 564 843 q 294 765 340 843 q 249 529 249 688 l 249 500 q 424 185 249 185 q 582 393 564 185 q 600 408 583 408 l 786 408 q 801 390 804 408 q 694 94 789 208 q 422 -19 600 -19 z "},"č":{"ha":847,"x_min":36,"x_max":808,"o":"m 393 775 q 363 792 375 775 l 188 1024 q 185 1040 181 1032 q 200 1047 189 1047 l 253 1047 q 279 1026 264 1047 l 422 833 l 568 1026 q 594 1047 586 1047 l 647 1047 q 663 1040 658 1047 q 661 1024 668 1032 l 483 792 q 453 775 472 775 l 393 775 m 424 -19 q 138 83 239 -19 q 36 360 36 186 q 140 632 36 528 q 422 736 244 736 q 699 650 597 736 q 807 418 800 564 q 793 403 808 403 l 607 403 q 589 417 593 403 q 537 508 581 472 q 424 543 493 543 q 292 493 340 543 q 244 360 244 443 q 292 224 244 275 q 424 172 340 172 q 590 290 572 172 q 607 304 590 304 l 793 304 q 807 289 808 304 q 696 63 797 146 q 424 -19 594 -19 z "},"Ď":{"ha":847,"x_min":83,"x_max":813,"o":"m 393 1086 q 363 1103 375 1086 l 188 1335 q 185 1351 181 1343 q 200 1358 189 1358 l 253 1358 q 279 1338 264 1358 l 422 1144 l 568 1338 q 594 1358 586 1358 l 647 1358 q 663 1351 658 1358 q 661 1335 668 1343 l 483 1103 q 453 1086 472 1086 l 393 1086 m 99 0 q 83 15 83 0 l 83 1011 q 99 1026 83 1026 l 356 1026 q 687 894 561 1026 q 813 540 813 763 l 813 488 q 685 137 813 274 q 354 0 557 0 l 99 0 m 286 190 l 367 192 q 537 276 469 192 q 604 499 604 361 l 604 529 q 537 751 604 667 q 367 836 469 835 l 286 836 l 286 190 z "},"ď":{"ha":847,"x_min":42,"x_max":838,"o":"m 688 1026 q 703 1011 703 1026 l 703 15 q 688 0 703 0 l 529 0 q 514 15 514 0 l 514 57 q 336 -19 450 -19 q 120 79 199 -19 q 42 358 42 178 q 124 631 42 526 q 342 736 207 736 q 507 681 444 736 l 507 1011 q 522 1026 507 1026 l 688 1026 m 822 1026 q 838 1007 838 1026 l 825 731 q 810 711 825 711 l 768 711 q 750 729 750 711 l 746 1007 q 764 1026 746 1026 l 822 1026 m 381 172 q 473 218 440 172 q 507 349 506 264 l 507 358 q 476 495 507 447 q 383 543 444 543 q 285 494 321 543 q 250 358 250 446 q 285 221 250 269 q 381 172 319 172 z "},"Đ":{"ha":847,"x_min":21,"x_max":813,"o":"m 356 1026 q 687 894 561 1026 q 813 540 813 763 l 813 488 q 685 137 813 274 q 354 0 557 0 l 99 0 q 83 15 83 0 l 83 426 l 36 426 q 21 442 21 426 l 21 603 q 36 618 21 618 l 83 618 l 83 1011 q 99 1026 83 1026 l 356 1026 m 604 499 l 604 529 q 537 751 604 667 q 367 836 469 835 l 286 836 l 286 618 l 435 618 q 450 603 450 618 l 450 442 q 435 426 450 426 l 286 426 l 286 190 l 367 192 q 537 276 469 192 q 604 499 604 361 z "},"đ":{"ha":847,"x_min":42,"x_max":833,"o":"m 818 900 q 833 885 833 900 l 833 844 q 818 831 833 831 l 776 831 l 776 15 q 761 0 776 0 l 601 0 q 586 15 586 0 l 586 60 q 382 -19 517 -19 q 135 80 228 -19 q 42 358 42 179 q 139 631 42 525 q 389 736 236 736 q 581 675 513 736 l 581 831 l 531 831 q 515 844 515 831 l 515 885 q 531 900 515 900 l 581 900 l 581 1011 q 596 1026 581 1026 l 761 1026 q 776 1011 776 1026 l 776 900 l 818 900 m 293 222 q 315 197 293 222 q 411 172 336 172 q 533 222 486 172 q 581 358 581 271 q 535 494 581 444 q 413 543 489 543 q 294 494 338 543 q 250 358 250 444 q 293 222 250 271 z "},"Ē":{"ha":847,"x_min":83,"x_max":796,"o":"m 251 1088 q 236 1103 236 1088 l 236 1140 q 251 1156 236 1156 l 599 1156 q 614 1140 614 1156 l 614 1103 q 599 1088 614 1088 l 251 1088 m 99 0 q 83 15 83 0 l 83 1011 q 99 1026 83 1026 l 779 1026 q 794 1011 794 1026 l 794 851 q 779 836 794 836 l 286 836 l 286 618 l 685 618 q 700 603 700 618 l 700 442 q 685 426 700 426 l 286 426 l 286 190 l 781 190 q 796 175 796 190 l 796 15 q 781 0 796 0 l 99 0 z "},"ē":{"ha":847,"x_min":36,"x_max":813,"o":"m 251 776 q 236 792 236 776 l 236 829 q 251 844 236 844 l 599 844 q 614 829 614 844 l 614 792 q 599 776 614 776 l 251 776 m 432 736 q 711 638 610 736 q 813 357 813 539 l 813 322 q 797 307 813 307 l 249 307 q 312 207 263 242 q 438 172 361 172 q 589 242 578 172 q 608 256 592 256 l 793 256 q 807 239 808 256 q 692 49 789 118 q 432 -21 596 -21 q 142 79 249 -21 q 36 360 36 179 q 144 634 36 532 q 432 736 253 736 m 431 547 q 257 439 299 547 l 594 439 q 431 547 564 547 z "},"Ė":{"ha":847,"x_min":83,"x_max":796,"o":"m 466 1126 q 457 1117 466 1126 q 424 1108 447 1108 q 382 1126 400 1108 q 364 1169 364 1144 q 382 1211 364 1193 q 424 1229 400 1229 q 466 1211 447 1229 q 485 1169 485 1193 q 466 1126 485 1144 m 99 0 q 83 15 83 0 l 83 1011 q 99 1026 83 1026 l 779 1026 q 794 1011 794 1026 l 794 851 q 779 836 794 836 l 286 836 l 286 618 l 685 618 q 700 603 700 618 l 700 442 q 685 426 700 426 l 286 426 l 286 190 l 781 190 q 796 175 796 190 l 796 15 q 781 0 796 0 l 99 0 z "},"ė":{"ha":847,"x_min":36,"x_max":813,"o":"m 466 815 q 457 806 466 815 q 424 797 447 797 q 382 815 400 797 q 364 858 364 833 q 382 900 364 882 q 424 918 400 918 q 466 900 447 918 q 485 858 485 882 q 466 815 485 833 m 432 736 q 711 638 610 736 q 813 357 813 539 l 813 322 q 797 307 813 307 l 249 307 q 312 207 263 242 q 438 172 361 172 q 589 242 578 172 q 608 256 592 256 l 793 256 q 807 239 808 256 q 692 49 789 118 q 432 -21 596 -21 q 142 79 249 -21 q 36 360 36 179 q 144 634 36 532 q 432 736 253 736 m 431 547 q 257 439 299 547 l 594 439 q 431 547 564 547 z "},"Ę":{"ha":847,"x_min":83,"x_max":796,"o":"m 781 190 q 796 175 796 190 l 796 15 q 781 0 796 0 l 740 0 q 585 -45 640 -1 q 529 -153 529 -89 q 594 -265 529 -222 q 749 -308 658 -308 q 765 -328 765 -308 l 765 -361 q 744 -382 765 -382 q 530 -315 611 -382 q 449 -158 449 -249 q 535 0 449 -58 l 99 0 q 83 15 83 0 l 83 1011 q 99 1026 83 1026 l 779 1026 q 794 1011 794 1026 l 794 851 q 779 836 794 836 l 286 836 l 286 618 l 685 618 q 700 603 700 618 l 700 442 q 685 426 700 426 l 286 426 l 286 190 l 781 190 z "},"ę":{"ha":847,"x_min":36,"x_max":813,"o":"m 432 736 q 711 638 610 736 q 813 357 813 539 l 813 322 q 797 307 813 307 l 249 307 q 312 207 263 242 q 438 172 361 172 q 589 242 578 172 q 608 256 592 256 l 793 256 q 807 239 808 256 q 732 81 793 144 q 567 -7 671 18 q 466 -62 506 -25 q 426 -153 426 -99 q 491 -265 426 -222 q 646 -308 556 -308 q 663 -328 663 -308 l 663 -361 q 642 -382 663 -382 q 427 -315 508 -382 q 346 -158 346 -249 q 411 -21 346 -78 q 137 85 238 -14 q 36 360 36 185 q 144 634 36 532 q 432 736 253 736 m 431 547 q 257 439 299 547 l 594 439 q 431 547 564 547 z "},"Ě":{"ha":847,"x_min":83,"x_max":796,"o":"m 393 1086 q 363 1103 375 1086 l 188 1335 q 185 1351 181 1343 q 200 1358 189 1358 l 253 1358 q 279 1338 264 1358 l 422 1144 l 568 1338 q 594 1358 586 1358 l 647 1358 q 663 1351 658 1358 q 661 1335 668 1343 l 483 1103 q 453 1086 472 1086 l 393 1086 m 99 0 q 83 15 83 0 l 83 1011 q 99 1026 83 1026 l 779 1026 q 794 1011 794 1026 l 794 851 q 779 836 794 836 l 286 836 l 286 618 l 685 618 q 700 603 700 618 l 700 442 q 685 426 700 426 l 286 426 l 286 190 l 781 190 q 796 175 796 190 l 796 15 q 781 0 796 0 l 99 0 z "},"ě":{"ha":847,"x_min":36,"x_max":813,"o":"m 363 792 l 188 1024 q 185 1040 181 1032 q 200 1047 189 1047 l 253 1047 q 279 1026 264 1047 l 422 833 l 568 1026 q 594 1047 586 1047 l 647 1047 q 663 1040 658 1047 q 661 1024 668 1032 l 483 792 q 453 775 472 775 l 393 775 q 363 792 375 775 m 432 736 q 711 638 610 736 q 813 357 813 539 l 813 322 q 797 307 813 307 l 249 307 q 312 207 263 242 q 438 172 361 172 q 589 242 578 172 q 608 256 592 256 l 793 256 q 807 239 808 256 q 692 49 789 118 q 432 -21 596 -21 q 142 79 249 -21 q 36 360 36 179 q 144 634 36 532 q 432 736 253 736 m 431 547 q 257 439 299 547 l 594 439 q 431 547 564 547 z "},"Ğ":{"ha":847,"x_min":35,"x_max":813,"o":"m 425 1088 q 243 1154 306 1088 q 181 1339 181 1221 q 201 1361 181 1361 l 235 1361 q 249 1351 243 1361 q 256 1328 256 1342 q 299 1200 256 1249 q 425 1151 343 1151 q 548 1200 504 1151 q 592 1328 592 1249 q 598 1351 592 1342 q 613 1361 604 1361 l 646 1361 q 667 1339 667 1361 q 604 1154 667 1221 q 425 1088 542 1088 m 796 519 q 813 501 813 519 q 711 118 813 256 q 422 -19 610 -19 q 138 115 240 -19 q 35 467 35 249 l 35 561 q 138 913 35 778 q 422 1047 240 1047 q 693 935 596 1047 q 803 639 790 824 q 788 619 803 619 l 600 619 q 582 636 583 619 q 533 789 574 735 q 424 843 493 843 q 249 529 249 843 l 249 499 q 424 185 249 185 q 574 329 546 185 l 447 329 q 431 347 431 329 l 431 501 q 447 519 431 519 l 796 519 z "},"ğ":{"ha":847,"x_min":36,"x_max":776,"o":"m 425 776 q 243 843 306 776 q 181 1028 181 910 q 201 1050 181 1050 l 235 1050 q 249 1040 243 1050 q 256 1017 256 1031 q 299 889 256 938 q 425 840 343 840 q 548 889 504 840 q 592 1017 592 938 q 598 1040 592 1031 q 613 1050 604 1050 l 646 1050 q 667 1028 667 1050 q 604 843 667 910 q 425 776 542 776 m 761 715 q 776 700 776 715 l 776 15 q 386 -332 776 -332 q 107 -296 228 -332 q 94 -278 94 -292 l 94 -114 q 99 -101 94 -106 q 111 -97 104 -96 q 379 -143 265 -143 q 530 -101 481 -143 q 579 44 579 -60 l 579 54 q 365 -19 503 -19 q 128 81 219 -19 q 36 358 36 181 q 131 631 36 525 q 375 736 225 736 q 586 660 519 736 l 586 700 q 601 715 586 715 l 761 715 m 408 172 q 526 213 479 172 q 579 328 572 254 l 579 388 q 528 502 572 461 q 411 543 483 543 q 289 494 333 543 q 244 358 244 446 q 288 221 244 269 q 408 172 331 172 z "},"Ġ":{"ha":847,"x_min":35,"x_max":813,"o":"m 466 1126 q 457 1117 466 1126 q 424 1108 447 1108 q 382 1126 400 1108 q 364 1169 364 1144 q 382 1211 364 1193 q 424 1229 400 1229 q 466 1211 447 1229 q 485 1169 485 1193 q 466 1126 485 1144 m 796 519 q 813 501 813 519 q 711 118 813 256 q 422 -19 610 -19 q 138 115 240 -19 q 35 467 35 249 l 35 561 q 138 913 35 778 q 422 1047 240 1047 q 693 935 596 1047 q 803 639 790 824 q 788 619 803 619 l 600 619 q 582 636 583 619 q 533 789 574 735 q 424 843 493 843 q 249 529 249 843 l 249 499 q 424 185 249 185 q 574 329 546 185 l 447 329 q 431 347 431 329 l 431 501 q 447 519 431 519 l 796 519 z "},"ġ":{"ha":847,"x_min":36,"x_max":776,"o":"m 466 815 q 457 806 466 815 q 424 797 447 797 q 382 815 400 797 q 364 858 364 833 q 382 900 364 882 q 424 918 400 918 q 466 900 447 918 q 485 858 485 882 q 466 815 485 833 m 761 715 q 776 700 776 715 l 776 15 q 386 -332 776 -332 q 107 -296 228 -332 q 94 -278 94 -292 l 94 -114 q 99 -101 94 -106 q 111 -97 104 -96 q 379 -143 265 -143 q 530 -101 481 -143 q 579 44 579 -60 l 579 54 q 365 -19 503 -19 q 128 81 219 -19 q 36 358 36 181 q 131 631 36 525 q 375 736 225 736 q 586 660 519 736 l 586 700 q 601 715 586 715 l 761 715 m 408 172 q 526 213 479 172 q 579 328 572 254 l 579 388 q 528 502 572 461 q 411 543 483 543 q 289 494 333 543 q 244 358 244 446 q 288 221 244 269 q 408 172 331 172 z "},"Ģ":{"ha":847,"x_min":35,"x_max":813,"o":"m 796 519 q 813 501 813 519 q 711 118 813 256 q 422 -19 610 -19 q 138 115 240 -19 q 35 467 35 249 l 35 561 q 138 913 35 778 q 422 1047 240 1047 q 693 935 596 1047 q 803 639 790 824 q 788 619 803 619 l 600 619 q 582 636 583 619 q 533 789 574 735 q 424 843 493 843 q 249 529 249 843 l 249 499 q 424 185 249 185 q 574 329 546 185 l 447 329 q 431 347 431 329 l 431 501 q 447 519 431 519 l 796 519 m 450 -61 q 468 -79 468 -61 l 468 -307 q 451 -336 468 -325 l 301 -442 q 265 -422 288 -451 q 257 -382 243 -392 l 394 -289 l 394 -79 q 413 -61 394 -61 l 450 -61 z "},"ģ":{"ha":847,"x_min":36,"x_max":776,"o":"m 381 764 q 363 782 363 764 l 363 1010 q 379 1039 363 1028 l 529 1144 q 565 1124 543 1154 q 574 1085 588 1094 l 436 992 l 436 782 q 418 764 436 764 l 381 764 m 761 715 q 776 700 776 715 l 776 15 q 386 -332 776 -332 q 107 -296 228 -332 q 94 -278 94 -292 l 94 -114 q 99 -101 94 -106 q 111 -97 104 -96 q 379 -143 265 -143 q 530 -101 481 -143 q 579 44 579 -60 l 579 54 q 365 -19 503 -19 q 128 81 219 -19 q 36 358 36 181 q 131 631 36 525 q 375 736 225 736 q 586 660 519 736 l 586 700 q 601 715 586 715 l 761 715 m 408 172 q 526 213 479 172 q 579 328 572 254 l 579 388 q 528 502 572 461 q 411 543 483 543 q 289 494 333 543 q 244 358 244 446 q 288 221 244 269 q 408 172 331 172 z "},"Ħ":{"ha":847,"x_min":0,"x_max":847,"o":"m 832 818 q 847 803 847 818 l 847 763 q 832 749 847 749 l 764 749 l 764 15 q 749 0 764 0 l 576 0 q 561 15 561 0 l 561 426 l 288 426 l 288 15 q 272 0 288 0 l 99 0 q 83 15 83 0 l 83 749 l 17 749 q 0 763 0 749 l 0 803 q 17 818 0 818 l 83 818 l 83 1011 q 99 1026 83 1026 l 272 1026 q 288 1011 288 1026 l 288 818 l 561 818 l 561 1011 q 576 1026 561 1026 l 749 1026 q 764 1011 764 1026 l 764 818 l 832 818 m 561 618 l 561 749 l 288 749 l 288 618 l 561 618 z "},"ħ":{"ha":847,"x_min":14,"x_max":776,"o":"m 501 736 q 776 438 776 736 l 776 15 q 761 0 776 0 l 596 0 q 581 15 581 0 l 581 375 q 549 502 581 461 q 439 543 517 543 q 312 499 356 543 q 268 375 268 456 l 268 15 q 253 0 268 0 l 86 0 q 71 15 71 0 l 71 831 l 31 831 q 14 844 14 831 l 14 885 q 31 900 14 900 l 71 900 l 71 1011 q 86 1026 71 1026 l 253 1026 q 268 1011 268 1026 l 268 900 l 319 900 q 336 885 336 900 l 336 844 q 319 831 336 831 l 268 831 l 268 650 q 501 736 343 736 z "},"Ī":{"ha":847,"x_min":49,"x_max":799,"o":"m 251 1088 q 236 1103 236 1088 l 236 1140 q 251 1156 236 1156 l 599 1156 q 614 1140 614 1156 l 614 1103 q 599 1088 614 1088 l 251 1088 m 64 0 q 49 15 49 0 l 49 175 q 64 190 49 190 l 324 190 l 324 836 l 64 836 q 49 851 49 836 l 49 1011 q 64 1026 49 1026 l 783 1026 q 799 1011 799 1026 l 799 851 q 783 836 799 836 l 522 836 l 522 190 l 783 190 q 799 175 799 190 l 799 15 q 783 0 799 0 l 64 0 z "},"ī":{"ha":847,"x_min":49,"x_max":813,"o":"m 251 776 q 236 792 236 776 l 236 829 q 251 844 236 844 l 599 844 q 614 829 614 844 l 614 792 q 599 776 614 776 l 251 776 m 64 0 q 49 15 49 0 l 49 167 q 64 182 49 182 l 365 182 l 365 533 l 64 533 q 49 549 49 533 l 49 700 q 64 715 49 715 l 546 715 q 561 700 561 715 l 561 182 l 797 182 q 813 167 813 182 l 813 15 q 797 0 813 0 l 64 0 z "},"Į":{"ha":847,"x_min":49,"x_max":799,"o":"m 783 836 l 522 836 l 522 190 l 783 190 q 799 175 799 190 l 799 15 q 783 0 799 0 l 740 0 q 585 -45 640 -1 q 529 -153 529 -89 q 594 -265 529 -222 q 749 -308 658 -308 q 765 -328 765 -308 l 765 -361 q 744 -382 765 -382 q 530 -315 611 -382 q 449 -158 449 -249 q 535 0 449 -58 l 64 0 q 49 15 49 0 l 49 175 q 64 190 49 190 l 324 190 l 324 836 l 64 836 q 49 851 49 836 l 49 1011 q 64 1026 49 1026 l 783 1026 q 799 1011 799 1026 l 799 851 q 783 836 799 836 z "},"į":{"ha":847,"x_min":49,"x_max":813,"o":"m 457 786 q 342 822 378 786 q 306 917 306 858 q 457 1047 306 1047 q 610 917 610 1047 q 574 822 610 858 q 457 786 538 786 m 797 182 q 813 167 813 182 l 813 15 q 797 0 813 0 l 579 0 q 424 -45 479 -1 q 368 -153 368 -89 q 433 -265 368 -222 q 588 -308 497 -308 q 604 -328 604 -308 l 604 -361 q 583 -382 604 -382 q 369 -315 450 -382 q 288 -158 288 -249 q 374 0 288 -58 l 64 0 q 49 15 49 0 l 49 167 q 64 182 49 182 l 365 182 l 365 533 l 64 533 q 49 549 49 533 l 49 700 q 64 715 49 715 l 546 715 q 561 700 561 715 l 561 182 l 797 182 z "},"İ":{"ha":847,"x_min":49,"x_max":799,"o":"m 466 1126 q 457 1117 466 1126 q 424 1108 447 1108 q 382 1126 400 1108 q 364 1169 364 1144 q 382 1211 364 1193 q 424 1229 400 1229 q 466 1211 447 1229 q 485 1169 485 1193 q 466 1126 485 1144 m 64 0 q 49 15 49 0 l 49 175 q 64 190 49 190 l 324 190 l 324 836 l 64 836 q 49 851 49 836 l 49 1011 q 64 1026 49 1026 l 783 1026 q 799 1011 799 1026 l 799 851 q 783 836 799 836 l 522 836 l 522 190 l 783 190 q 799 175 799 190 l 799 15 q 783 0 799 0 l 64 0 z "},"ı":{"ha":847,"x_min":49,"x_max":813,"o":"m 64 0 q 49 15 49 0 l 49 167 q 64 182 49 182 l 365 182 l 365 533 l 64 533 q 49 549 49 533 l 49 700 q 64 715 49 715 l 546 715 q 561 700 561 715 l 561 182 l 797 182 q 813 167 813 182 l 813 15 q 797 0 813 0 l 64 0 z "},"Ķ":{"ha":847,"x_min":83,"x_max":838,"o":"m 832 21 q 833 6 838 13 q 821 0 829 0 l 608 0 q 590 13 597 0 l 356 469 l 286 396 l 286 15 q 271 0 286 0 l 99 0 q 83 15 83 0 l 83 1011 q 99 1026 83 1026 l 271 1026 q 286 1011 286 1026 l 286 692 l 568 1013 q 593 1026 579 1026 l 815 1026 q 828 1020 824 1026 q 826 1006 832 1014 l 508 639 l 832 21 m 450 -61 q 468 -79 468 -61 l 468 -307 q 451 -336 468 -325 l 301 -442 q 265 -422 288 -451 q 257 -382 243 -392 l 394 -289 l 394 -79 q 413 -61 394 -61 l 450 -61 z "},"ķ":{"ha":847,"x_min":71,"x_max":847,"o":"m 842 19 q 844 7 847 14 q 832 0 842 0 l 611 0 q 588 15 599 0 l 344 311 l 268 254 l 268 15 q 253 0 268 0 l 86 0 q 71 15 71 0 l 71 1011 q 86 1026 71 1026 l 253 1026 q 268 1011 268 1026 l 268 478 l 551 701 q 576 715 568 715 l 829 715 q 844 708 840 715 q 842 696 847 700 l 500 426 l 842 19 m 450 -61 q 468 -79 468 -61 l 468 -307 q 451 -336 468 -325 l 301 -442 q 265 -422 288 -451 q 257 -382 243 -392 l 394 -289 l 394 -79 q 413 -61 394 -61 l 450 -61 z "},"Ĺ":{"ha":847,"x_min":83,"x_max":807,"o":"m 372 1088 q 364 1106 353 1088 l 513 1354 q 531 1363 517 1363 l 596 1363 q 604 1343 615 1363 l 439 1096 q 421 1088 433 1088 l 372 1088 m 99 0 q 83 15 83 0 l 83 1011 q 99 1026 83 1026 l 271 1026 q 286 1011 286 1026 l 286 190 l 792 190 q 807 175 807 190 l 807 15 q 792 0 807 0 l 99 0 z "},"ĺ":{"ha":847,"x_min":39,"x_max":828,"o":"m 372 1088 q 364 1106 353 1088 l 513 1354 q 531 1363 517 1363 l 596 1363 q 604 1343 615 1363 l 439 1096 q 421 1088 433 1088 l 372 1088 m 54 0 q 39 15 39 0 l 39 167 q 54 182 39 182 l 349 182 l 349 844 l 64 844 q 49 860 49 844 l 49 1011 q 64 1026 49 1026 l 529 1026 q 544 1011 544 1026 l 544 182 l 813 182 q 828 167 828 182 l 828 15 q 813 0 828 0 l 54 0 z "},"Ļ":{"ha":847,"x_min":83,"x_max":807,"o":"m 99 0 q 83 15 83 0 l 83 1011 q 99 1026 83 1026 l 271 1026 q 286 1011 286 1026 l 286 190 l 792 190 q 807 175 807 190 l 807 15 q 792 0 807 0 l 99 0 m 301 -442 q 265 -422 288 -451 q 257 -382 243 -392 l 394 -289 l 394 -79 q 413 -61 394 -61 l 450 -61 q 468 -79 468 -61 l 468 -307 q 451 -336 468 -325 l 301 -442 z "},"ļ":{"ha":847,"x_min":39,"x_max":828,"o":"m 54 0 q 39 15 39 0 l 39 167 q 54 182 39 182 l 349 182 l 349 844 l 64 844 q 49 860 49 844 l 49 1011 q 64 1026 49 1026 l 529 1026 q 544 1011 544 1026 l 544 182 l 813 182 q 828 167 828 182 l 828 15 q 813 0 828 0 l 54 0 m 301 -442 q 265 -422 288 -451 q 257 -382 243 -392 l 394 -289 l 394 -79 q 413 -61 394 -61 l 450 -61 q 468 -79 468 -61 l 468 -307 q 451 -336 468 -325 l 301 -442 z "},"Ľ":{"ha":847,"x_min":83,"x_max":807,"o":"m 393 1086 q 363 1103 375 1086 l 188 1335 q 185 1351 181 1343 q 200 1358 189 1358 l 253 1358 q 279 1338 264 1358 l 422 1144 l 568 1338 q 594 1358 586 1358 l 647 1358 q 663 1351 658 1358 q 661 1335 668 1343 l 483 1103 q 453 1086 472 1086 l 393 1086 m 99 0 q 83 15 83 0 l 83 1011 q 99 1026 83 1026 l 271 1026 q 286 1011 286 1026 l 286 190 l 792 190 q 807 175 807 190 l 807 15 q 792 0 807 0 l 99 0 z "},"ľ":{"ha":847,"x_min":39,"x_max":828,"o":"m 54 0 q 39 15 39 0 l 39 167 q 54 182 39 182 l 349 182 l 349 844 l 64 844 q 49 860 49 844 l 49 1011 q 64 1026 49 1026 l 529 1026 q 544 1011 544 1026 l 544 182 l 813 182 q 828 167 828 182 l 828 15 q 813 0 828 0 l 54 0 m 608 711 q 590 729 590 711 l 586 1007 q 604 1026 586 1026 l 663 1026 q 678 1007 678 1026 l 665 731 q 650 711 665 711 l 608 711 z "},"Ŀ":{"ha":847,"x_min":83,"x_max":807,"o":"m 99 0 q 83 15 83 0 l 83 1011 q 99 1026 83 1026 l 271 1026 q 286 1011 286 1026 l 286 190 l 792 190 q 807 175 807 190 l 807 15 q 792 0 807 0 l 99 0 m 417 389 q 400 404 400 389 l 400 590 q 417 606 400 606 l 600 606 q 617 590 617 606 l 617 404 q 600 389 617 389 l 417 389 z "},"Ł":{"ha":847,"x_min":1,"x_max":807,"o":"m 792 190 q 807 175 807 190 l 807 15 q 792 0 807 0 l 99 0 q 83 15 83 0 l 83 410 l 18 382 q 1 394 1 374 l 1 421 q 14 446 1 440 l 83 476 l 83 1011 q 99 1026 83 1026 l 271 1026 q 286 1011 286 1026 l 286 564 l 679 733 q 691 733 686 736 q 696 722 696 729 l 696 694 q 685 669 696 675 l 286 497 l 286 190 l 792 190 z "},"ł":{"ha":847,"x_min":39,"x_max":828,"o":"m 813 182 q 828 167 828 182 l 828 15 q 813 0 828 0 l 54 0 q 39 15 39 0 l 39 167 q 54 182 39 182 l 349 182 l 349 472 l 106 368 q 89 381 89 360 l 89 407 q 101 432 89 426 l 349 539 l 349 844 l 64 844 q 49 860 49 844 l 49 1011 q 64 1026 49 1026 l 529 1026 q 544 1011 544 1026 l 544 624 l 767 719 q 783 708 783 725 l 783 681 q 772 656 783 660 l 544 557 l 544 182 l 813 182 z "},"Ń":{"ha":847,"x_min":83,"x_max":764,"o":"m 372 1088 q 364 1106 353 1088 l 513 1354 q 531 1363 517 1363 l 596 1363 q 604 1343 615 1363 l 439 1096 q 421 1088 433 1088 l 372 1088 m 99 0 q 83 15 83 0 l 83 1011 q 99 1026 83 1026 l 304 1026 q 322 1015 318 1026 l 554 446 l 561 446 l 561 1011 q 576 1026 561 1026 l 749 1026 q 764 1011 764 1026 l 764 15 q 749 0 764 0 l 540 0 q 522 13 528 0 l 293 617 l 285 617 l 286 197 l 286 15 q 271 0 286 0 l 99 0 z "},"ń":{"ha":847,"x_min":71,"x_max":776,"o":"m 372 776 q 364 794 353 776 l 513 1043 q 531 1051 517 1051 l 596 1051 q 604 1032 615 1051 l 439 785 q 421 776 433 776 l 372 776 m 86 0 q 71 15 71 0 l 71 700 q 86 715 71 715 l 250 715 q 265 700 265 715 l 265 646 q 488 736 336 736 q 776 438 776 736 l 776 15 q 761 0 776 0 l 596 0 q 581 15 581 0 l 581 375 q 546 503 581 463 q 436 544 511 544 q 268 375 268 544 l 268 15 q 253 0 268 0 l 86 0 z "},"Ņ":{"ha":847,"x_min":83,"x_max":764,"o":"m 99 0 q 83 15 83 0 l 83 1011 q 99 1026 83 1026 l 304 1026 q 322 1015 318 1026 l 554 446 l 561 446 l 561 1011 q 576 1026 561 1026 l 749 1026 q 764 1011 764 1026 l 764 15 q 749 0 764 0 l 540 0 q 522 13 528 0 l 293 617 l 285 617 l 286 197 l 286 15 q 271 0 286 0 l 99 0 m 301 -442 q 265 -422 288 -451 q 257 -382 243 -392 l 394 -289 l 394 -79 q 413 -61 394 -61 l 450 -61 q 468 -79 468 -61 l 468 -307 q 451 -336 468 -325 l 301 -442 z "},"ņ":{"ha":847,"x_min":71,"x_max":776,"o":"m 86 0 q 71 15 71 0 l 71 700 q 86 715 71 715 l 250 715 q 265 700 265 715 l 265 646 q 488 736 336 736 q 776 438 776 736 l 776 15 q 761 0 776 0 l 596 0 q 581 15 581 0 l 581 375 q 546 503 581 463 q 436 544 511 544 q 268 375 268 544 l 268 15 q 253 0 268 0 l 86 0 m 301 -442 q 265 -422 288 -451 q 257 -382 243 -392 l 394 -289 l 394 -79 q 413 -61 394 -61 l 450 -61 q 468 -79 468 -61 l 468 -307 q 451 -336 468 -325 l 301 -442 z "},"Ň":{"ha":847,"x_min":83,"x_max":764,"o":"m 393 1086 q 363 1103 375 1086 l 188 1335 q 185 1351 181 1343 q 200 1358 189 1358 l 253 1358 q 279 1338 264 1358 l 422 1144 l 568 1338 q 594 1358 586 1358 l 647 1358 q 663 1351 658 1358 q 661 1335 668 1343 l 483 1103 q 453 1086 472 1086 l 393 1086 m 99 0 q 83 15 83 0 l 83 1011 q 99 1026 83 1026 l 304 1026 q 322 1015 318 1026 l 554 446 l 561 446 l 561 1011 q 576 1026 561 1026 l 749 1026 q 764 1011 764 1026 l 764 15 q 749 0 764 0 l 540 0 q 522 13 528 0 l 293 617 l 285 617 l 286 197 l 286 15 q 271 0 286 0 l 99 0 z "},"ň":{"ha":847,"x_min":71,"x_max":776,"o":"m 393 775 q 363 792 375 775 l 188 1024 q 185 1040 181 1032 q 200 1047 189 1047 l 253 1047 q 279 1026 264 1047 l 422 833 l 568 1026 q 594 1047 586 1047 l 647 1047 q 663 1040 658 1047 q 661 1024 668 1032 l 483 792 q 453 775 472 775 l 393 775 m 86 0 q 71 15 71 0 l 71 700 q 86 715 71 715 l 250 715 q 265 700 265 715 l 265 646 q 488 736 336 736 q 776 438 776 736 l 776 15 q 761 0 776 0 l 596 0 q 581 15 581 0 l 581 375 q 546 503 581 463 q 436 544 511 544 q 268 375 268 544 l 268 15 q 253 0 268 0 l 86 0 z "},"Ŋ":{"ha":847,"x_min":83,"x_max":764,"o":"m 749 1026 q 764 1011 764 1026 l 764 33 q 679 -214 764 -126 q 438 -303 594 -301 q 422 -287 422 -303 l 422 -112 q 435 -97 422 -97 q 525 -72 499 -97 q 558 19 551 -47 l 286 582 l 286 15 q 271 0 286 0 l 99 0 q 83 15 83 0 l 83 1011 q 99 1026 83 1026 l 265 1026 q 283 1015 276 1026 l 561 450 l 561 1011 q 576 1026 561 1026 l 749 1026 z "},"ŋ":{"ha":847,"x_min":71,"x_max":776,"o":"m 488 736 q 776 438 776 736 l 776 -14 q 436 -332 776 -332 q 224 -304 311 -332 q 210 -286 210 -300 l 210 -131 q 215 -117 210 -122 q 228 -114 221 -112 q 428 -144 332 -144 l 433 -144 q 544 -109 508 -144 q 581 15 581 -74 l 581 375 q 546 503 581 463 q 436 544 511 544 q 268 375 268 544 l 268 15 q 253 0 268 0 l 86 0 q 71 15 71 0 l 71 700 q 86 715 71 715 l 250 715 q 265 700 265 715 l 265 646 q 488 736 336 736 z "},"Ō":{"ha":847,"x_min":35,"x_max":813,"o":"m 251 1088 q 236 1103 236 1088 l 236 1140 q 251 1156 236 1156 l 599 1156 q 614 1140 614 1156 l 614 1103 q 599 1088 614 1088 l 251 1088 m 424 -21 q 138 115 240 -21 q 35 467 35 250 l 35 561 q 138 913 35 779 q 424 1047 242 1047 q 710 913 607 1047 q 813 561 813 779 l 813 467 q 709 115 813 250 q 424 -21 606 -21 m 247 497 q 424 183 247 183 q 600 497 600 183 l 600 531 q 424 843 600 843 q 247 531 247 843 l 247 497 z "},"ō":{"ha":847,"x_min":36,"x_max":811,"o":"m 251 776 q 236 792 236 776 l 236 829 q 251 844 236 844 l 599 844 q 614 829 614 844 l 614 792 q 599 776 614 776 l 251 776 m 425 736 q 705 635 599 736 q 811 360 811 535 q 703 84 811 188 q 425 -19 596 -19 q 142 81 247 -19 q 36 360 36 181 q 143 634 36 532 q 425 736 250 736 m 425 172 q 553 222 503 172 q 603 360 603 272 q 553 494 603 444 q 425 543 503 543 q 295 494 346 543 q 244 360 244 444 q 295 222 244 272 q 425 172 346 172 z "},"Ő":{"ha":847,"x_min":35,"x_max":813,"o":"m 304 1088 q 296 1106 285 1088 l 444 1354 q 463 1363 449 1363 l 528 1363 q 536 1343 547 1363 l 371 1096 q 353 1088 365 1088 l 304 1088 m 472 1088 q 464 1106 453 1088 l 613 1354 q 631 1363 617 1363 l 696 1363 q 704 1343 715 1363 l 539 1096 q 521 1088 533 1088 l 472 1088 m 424 -21 q 138 115 240 -21 q 35 467 35 250 l 35 561 q 138 913 35 779 q 424 1047 242 1047 q 710 913 607 1047 q 813 561 813 779 l 813 467 q 709 115 813 250 q 424 -21 606 -21 m 247 497 q 424 183 247 183 q 600 497 600 183 l 600 531 q 424 843 600 843 q 247 531 247 843 l 247 497 z "},"ő":{"ha":847,"x_min":36,"x_max":811,"o":"m 304 776 q 296 794 285 776 l 444 1043 q 463 1051 449 1051 l 528 1051 q 536 1032 547 1051 l 371 785 q 353 776 365 776 l 304 776 m 472 776 q 464 794 453 776 l 613 1043 q 631 1051 617 1051 l 696 1051 q 704 1032 715 1051 l 539 785 q 521 776 533 776 l 472 776 m 425 736 q 705 635 599 736 q 811 360 811 535 q 703 84 811 188 q 425 -19 596 -19 q 142 81 247 -19 q 36 360 36 181 q 143 634 36 532 q 425 736 250 736 m 425 172 q 553 222 503 172 q 603 360 603 272 q 553 494 603 444 q 425 543 503 543 q 295 494 346 543 q 244 360 244 444 q 295 222 244 272 q 425 172 346 172 z "},"Œ":{"ha":847,"x_min":35,"x_max":764,"o":"m 749 836 l 626 836 l 626 618 l 736 618 q 751 603 751 618 l 751 442 q 736 426 751 426 l 626 426 l 626 190 l 749 190 q 764 175 764 190 l 764 15 q 749 0 764 0 l 424 0 q 137 126 239 0 q 35 467 35 251 l 35 561 q 137 901 35 776 q 424 1026 239 1026 l 749 1026 q 764 1011 764 1026 l 764 851 q 749 836 764 836 m 424 186 l 424 842 q 247 531 247 842 l 247 497 q 424 186 247 186 z "},"œ":{"ha":847,"x_min":36,"x_max":814,"o":"m 803 258 q 811 242 814 258 q 743 46 804 114 q 583 -22 682 -22 q 425 50 475 -22 q 279 -19 372 -19 q 36 360 36 -19 q 102 642 36 549 q 279 736 168 736 q 424 671 371 736 q 583 736 485 736 q 755 647 697 736 q 811 392 813 558 l 811 322 q 803 306 811 306 l 517 306 q 581 167 521 167 q 643 243 638 167 q 654 258 644 258 l 803 258 m 582 547 q 519 436 524 547 l 643 436 q 627 522 642 497 q 582 547 613 547 m 286 172 q 343 360 343 172 q 286 543 343 543 q 239 503 253 543 q 225 360 225 463 q 239 216 225 260 q 286 172 253 172 z "},"Ŕ":{"ha":847,"x_min":83,"x_max":808,"o":"m 372 1088 q 364 1106 353 1088 l 513 1354 q 531 1363 517 1363 l 596 1363 q 604 1343 615 1363 l 439 1096 q 421 1088 433 1088 l 372 1088 m 799 18 q 788 0 808 0 l 581 0 q 563 14 569 0 l 364 371 l 286 371 l 286 15 q 271 0 286 0 l 99 0 q 83 15 83 0 l 83 1011 q 99 1026 83 1026 l 431 1026 q 700 941 601 1026 q 799 699 799 856 q 738 512 799 593 q 572 397 678 431 l 799 18 m 286 561 l 408 561 q 583 701 583 561 q 408 836 583 836 l 286 836 l 286 561 z "},"ŕ":{"ha":847,"x_min":71,"x_max":814,"o":"m 372 776 q 364 794 353 776 l 513 1043 q 531 1051 517 1051 l 596 1051 q 604 1032 615 1051 l 439 785 q 421 776 433 776 l 372 776 m 508 736 q 814 410 814 736 l 814 364 q 799 349 814 349 l 619 349 q 604 364 604 349 l 604 389 q 457 544 604 544 q 319 494 371 544 q 268 342 268 443 l 268 15 q 253 0 268 0 l 86 0 q 71 15 71 0 l 71 700 q 86 715 71 715 l 250 715 q 265 700 265 715 l 265 651 q 508 736 347 736 z "},"Ŗ":{"ha":847,"x_min":83,"x_max":808,"o":"m 799 18 q 788 0 808 0 l 581 0 q 563 14 569 0 l 364 371 l 286 371 l 286 15 q 271 0 286 0 l 99 0 q 83 15 83 0 l 83 1011 q 99 1026 83 1026 l 431 1026 q 700 941 601 1026 q 799 699 799 856 q 738 512 799 593 q 572 397 678 431 l 799 18 m 286 561 l 408 561 q 583 701 583 561 q 408 836 583 836 l 286 836 l 286 561 m 450 -61 q 468 -79 468 -61 l 468 -307 q 451 -336 468 -325 l 301 -442 q 265 -422 288 -451 q 257 -382 243 -392 l 394 -289 l 394 -79 q 413 -61 394 -61 l 450 -61 z "},"ŗ":{"ha":847,"x_min":71,"x_max":814,"o":"m 508 736 q 814 410 814 736 l 814 364 q 799 349 814 349 l 619 349 q 604 364 604 349 l 604 389 q 457 544 604 544 q 319 494 371 544 q 268 342 268 443 l 268 15 q 253 0 268 0 l 86 0 q 71 15 71 0 l 71 700 q 86 715 71 715 l 250 715 q 265 700 265 715 l 265 651 q 508 736 347 736 m 450 -61 q 468 -79 468 -61 l 468 -307 q 451 -336 468 -325 l 301 -442 q 265 -422 288 -451 q 257 -382 243 -392 l 394 -289 l 394 -79 q 413 -61 394 -61 l 450 -61 z "},"Ř":{"ha":847,"x_min":83,"x_max":808,"o":"m 363 1103 l 188 1335 q 185 1351 181 1343 q 200 1358 189 1358 l 253 1358 q 279 1338 264 1358 l 422 1144 l 568 1338 q 594 1358 586 1358 l 647 1358 q 663 1351 658 1358 q 661 1335 668 1343 l 483 1103 q 453 1086 472 1086 l 393 1086 q 363 1103 375 1086 m 799 18 q 788 0 808 0 l 581 0 q 563 14 569 0 l 364 371 l 286 371 l 286 15 q 271 0 286 0 l 99 0 q 83 15 83 0 l 83 1011 q 99 1026 83 1026 l 431 1026 q 700 941 601 1026 q 799 699 799 856 q 738 512 799 593 q 572 397 678 431 l 799 18 m 286 561 l 408 561 q 583 701 583 561 q 408 836 583 836 l 286 836 l 286 561 z "},"ř":{"ha":847,"x_min":71,"x_max":814,"o":"m 363 792 l 188 1024 q 185 1040 181 1032 q 200 1047 189 1047 l 253 1047 q 279 1026 264 1047 l 422 833 l 568 1026 q 594 1047 586 1047 l 647 1047 q 663 1040 658 1047 q 661 1024 668 1032 l 483 792 q 453 775 472 775 l 393 775 q 363 792 375 775 m 508 736 q 814 410 814 736 l 814 364 q 799 349 814 349 l 619 349 q 604 364 604 349 l 604 389 q 457 544 604 544 q 319 494 371 544 q 268 342 268 443 l 268 15 q 253 0 268 0 l 86 0 q 71 15 71 0 l 71 700 q 86 715 71 715 l 250 715 q 265 700 265 715 l 265 651 q 508 736 347 736 z "},"Ś":{"ha":847,"x_min":42,"x_max":804,"o":"m 372 1088 q 364 1106 353 1088 l 513 1354 q 531 1363 517 1363 l 596 1363 q 604 1343 615 1363 l 439 1096 q 421 1088 433 1088 l 372 1088 m 428 -19 q 149 61 251 -19 q 42 311 47 142 q 58 328 42 328 l 254 328 q 272 311 272 328 q 315 214 274 247 q 428 181 357 181 q 590 292 590 181 q 549 373 590 347 q 379 429 508 399 q 138 538 211 468 q 65 735 65 608 q 165 962 65 876 q 428 1047 264 1047 q 693 962 597 1047 q 799 714 789 876 q 782 697 799 697 l 592 697 q 575 714 578 697 q 533 815 572 779 q 425 850 494 850 q 318 822 357 850 q 279 742 279 794 q 318 665 279 689 q 475 614 357 642 q 725 502 646 572 q 804 286 804 432 q 701 59 803 138 q 428 -19 600 -19 z "},"ś":{"ha":847,"x_min":54,"x_max":801,"o":"m 371 776 q 363 794 351 776 l 511 1043 q 529 1051 515 1051 l 594 1051 q 603 1032 614 1051 l 438 785 q 419 776 432 776 l 371 776 m 433 -19 q 152 38 244 -19 q 54 226 60 94 q 72 243 54 243 l 256 243 q 272 226 272 243 q 311 171 274 188 q 433 154 349 154 q 558 167 522 154 q 593 213 593 179 q 560 256 593 243 q 428 275 528 268 q 151 340 229 290 q 74 503 74 389 q 167 673 74 611 q 422 735 261 735 q 698 669 604 735 q 799 488 792 604 q 782 472 799 472 l 600 472 q 583 486 585 472 q 422 563 579 563 q 279 504 279 563 q 310 463 279 475 q 450 442 342 451 q 712 376 622 426 q 801 214 801 325 q 433 -19 801 -19 z "},"Ş":{"ha":847,"x_min":42,"x_max":804,"o":"m 804 286 q 708 65 803 143 q 451 -19 614 -12 l 433 -60 q 606 -211 606 -86 q 528 -344 606 -296 q 339 -392 451 -392 q 318 -372 318 -392 l 318 -335 q 323 -322 318 -328 q 335 -317 328 -317 q 525 -208 525 -317 q 350 -118 525 -118 q 341 -112 343 -118 q 342 -99 339 -106 l 379 -18 q 135 74 224 -7 q 42 311 47 154 q 58 328 42 328 l 254 328 q 272 311 272 328 q 315 214 274 247 q 428 181 357 181 q 590 292 590 181 q 549 373 590 347 q 379 429 508 399 q 138 538 211 468 q 65 735 65 608 q 165 962 65 876 q 428 1047 264 1047 q 693 962 597 1047 q 799 714 789 876 q 782 697 799 697 l 592 697 q 575 714 578 697 q 533 815 572 779 q 425 850 494 850 q 318 822 357 850 q 279 742 279 794 q 318 665 279 689 q 475 614 357 642 q 725 502 646 572 q 804 286 804 432 z "},"ş":{"ha":847,"x_min":54,"x_max":801,"o":"m 801 214 q 450 -19 801 -12 l 432 -60 q 604 -211 604 -86 q 527 -344 604 -296 q 338 -392 450 -392 q 317 -372 317 -392 l 317 -335 q 322 -322 317 -328 q 333 -317 326 -317 q 524 -208 524 -317 q 349 -118 524 -118 q 340 -112 343 -118 q 340 -99 338 -106 l 378 -18 q 139 47 218 -11 q 54 226 60 104 q 72 243 54 243 l 256 243 q 272 226 272 243 q 311 171 274 188 q 433 154 349 154 q 558 167 522 154 q 593 213 593 179 q 560 256 593 243 q 428 275 528 268 q 151 340 229 290 q 74 503 74 389 q 167 673 74 611 q 422 735 261 735 q 698 669 604 735 q 799 488 792 604 q 782 472 799 472 l 600 472 q 583 486 585 472 q 422 563 579 563 q 279 504 279 563 q 310 463 279 475 q 450 442 342 451 q 712 376 622 426 q 801 214 801 325 z "},"Š":{"ha":847,"x_min":42,"x_max":804,"o":"m 393 1086 q 363 1103 375 1086 l 188 1335 q 185 1351 181 1343 q 200 1358 189 1358 l 253 1358 q 279 1338 264 1358 l 422 1144 l 568 1338 q 594 1358 586 1358 l 647 1358 q 663 1351 658 1358 q 661 1335 668 1343 l 483 1103 q 453 1086 472 1086 l 393 1086 m 428 -19 q 149 61 251 -19 q 42 311 47 142 q 58 328 42 328 l 254 328 q 272 311 272 328 q 315 214 274 247 q 428 181 357 181 q 590 292 590 181 q 549 373 590 347 q 379 429 508 399 q 138 538 211 468 q 65 735 65 608 q 165 962 65 876 q 428 1047 264 1047 q 693 962 597 1047 q 799 714 789 876 q 782 697 799 697 l 592 697 q 575 714 578 697 q 533 815 572 779 q 425 850 494 850 q 318 822 357 850 q 279 742 279 794 q 318 665 279 689 q 475 614 357 642 q 725 502 646 572 q 804 286 804 432 q 701 59 803 138 q 428 -19 600 -19 z "},"š":{"ha":847,"x_min":54,"x_max":801,"o":"m 393 775 q 363 792 375 775 l 188 1024 q 185 1040 181 1032 q 200 1047 189 1047 l 253 1047 q 279 1026 264 1047 l 422 833 l 568 1026 q 594 1047 586 1047 l 647 1047 q 663 1040 658 1047 q 661 1024 668 1032 l 483 792 q 453 775 472 775 l 393 775 m 433 -19 q 152 38 244 -19 q 54 226 60 94 q 72 243 54 243 l 256 243 q 272 226 272 243 q 311 171 274 188 q 433 154 349 154 q 558 167 522 154 q 593 213 593 179 q 560 256 593 243 q 428 275 528 268 q 151 340 229 290 q 74 503 74 389 q 167 673 74 611 q 422 735 261 735 q 698 669 604 735 q 799 488 792 604 q 782 472 799 472 l 600 472 q 583 486 585 472 q 422 563 579 563 q 279 504 279 563 q 310 463 279 475 q 450 442 342 451 q 712 376 622 426 q 801 214 801 325 q 433 -19 801 -19 z "},"Ţ":{"ha":847,"x_min":35,"x_max":813,"o":"m 797 1026 q 813 1011 813 1026 l 813 851 q 797 836 813 836 l 525 836 l 525 15 q 510 0 525 0 l 461 0 l 433 -60 q 606 -211 606 -86 q 528 -344 606 -296 q 339 -392 451 -392 q 318 -372 318 -392 l 318 -335 q 323 -322 318 -328 q 335 -317 328 -317 q 525 -208 525 -317 q 350 -118 525 -118 q 341 -112 343 -118 q 342 -99 339 -106 l 388 0 l 339 0 q 324 15 324 0 l 324 836 l 50 836 q 35 851 35 836 l 35 1011 q 50 1026 35 1026 l 797 1026 z "},"ţ":{"ha":847,"x_min":0,"x_max":804,"o":"m 789 715 q 804 700 804 715 l 804 547 q 789 532 804 532 l 404 532 l 404 310 q 554 174 404 174 l 560 174 q 772 204 665 174 q 784 201 779 206 q 789 188 789 196 l 789 26 q 775 8 789 11 q 536 -19 639 -19 q 454 -15 492 -19 l 433 -60 q 606 -211 606 -86 q 528 -344 606 -296 q 339 -392 451 -392 q 318 -372 318 -392 l 318 -335 q 323 -322 318 -328 q 335 -317 328 -317 q 525 -208 525 -317 q 350 -118 525 -118 q 341 -112 343 -118 q 342 -99 339 -106 l 386 -1 q 208 264 208 51 l 208 532 l 15 532 q 0 547 0 532 l 0 700 q 15 715 0 715 l 208 715 l 208 969 q 224 985 208 985 l 389 985 q 404 969 404 985 l 404 715 l 789 715 z "},"Ť":{"ha":847,"x_min":35,"x_max":813,"o":"m 393 1086 q 363 1103 375 1086 l 188 1335 q 185 1351 181 1343 q 200 1358 189 1358 l 253 1358 q 279 1338 264 1358 l 422 1144 l 568 1338 q 594 1358 586 1358 l 647 1358 q 663 1351 658 1358 q 661 1335 668 1343 l 483 1103 q 453 1086 472 1086 l 393 1086 m 339 0 q 324 15 324 0 l 324 836 l 50 836 q 35 851 35 836 l 35 1011 q 50 1026 35 1026 l 797 1026 q 813 1011 813 1026 l 813 851 q 797 836 813 836 l 525 836 l 525 15 q 510 0 525 0 l 339 0 z "},"ť":{"ha":847,"x_min":0,"x_max":804,"o":"m 468 781 q 450 799 450 781 l 446 1007 q 464 1026 446 1026 l 522 1026 q 538 1007 538 1026 l 525 800 q 510 781 522 781 l 468 781 m 789 715 q 804 700 804 715 l 804 547 q 789 532 804 532 l 404 532 l 404 310 q 554 174 404 174 l 560 174 q 772 204 665 174 q 784 201 779 206 q 789 188 789 196 l 789 26 q 775 8 789 11 q 536 -19 639 -19 q 292 47 376 -19 q 208 264 208 114 l 208 532 l 15 532 q 0 547 0 532 l 0 700 q 15 715 0 715 l 208 715 l 208 969 q 224 985 208 985 l 389 985 q 404 969 404 985 l 404 715 l 789 715 z "},"Ŧ":{"ha":847,"x_min":35,"x_max":813,"o":"m 797 1026 q 813 1011 813 1026 l 813 851 q 797 836 813 836 l 525 836 l 525 424 l 786 424 q 803 410 803 424 l 803 369 q 786 354 803 354 l 525 354 l 525 15 q 510 0 525 0 l 339 0 q 324 15 324 0 l 324 354 l 61 354 q 46 369 46 354 l 46 410 q 61 424 46 424 l 324 424 l 324 836 l 50 836 q 35 851 35 836 l 35 1011 q 50 1026 35 1026 l 797 1026 z "},"ŧ":{"ha":847,"x_min":0,"x_max":804,"o":"m 789 715 q 804 700 804 715 l 804 547 q 789 532 804 532 l 404 532 l 404 396 l 576 396 q 593 382 593 396 l 593 342 q 576 326 593 326 l 404 326 l 404 310 q 554 174 404 174 l 560 174 q 772 204 665 174 q 784 201 779 206 q 789 188 789 196 l 789 26 q 775 8 789 11 q 536 -19 639 -19 q 292 47 376 -19 q 208 264 208 114 l 208 326 l 25 326 q 8 342 8 326 l 8 382 q 25 396 8 396 l 208 396 l 208 532 l 15 532 q 0 547 0 532 l 0 700 q 15 715 0 715 l 208 715 l 208 969 q 224 985 208 985 l 389 985 q 404 969 404 985 l 404 715 l 789 715 z "},"Ū":{"ha":847,"x_min":83,"x_max":764,"o":"m 251 1088 q 236 1103 236 1088 l 236 1140 q 251 1156 236 1156 l 599 1156 q 614 1140 614 1156 l 614 1103 q 599 1088 614 1088 l 251 1088 m 422 -21 q 173 78 263 -21 q 83 340 83 178 l 83 1011 q 99 1026 83 1026 l 271 1026 q 286 1011 286 1026 l 286 363 q 424 183 286 183 q 561 363 561 183 l 561 1011 q 576 1026 561 1026 l 749 1026 q 764 1011 764 1026 l 764 351 q 674 80 764 181 q 422 -21 583 -21 z "},"ū":{"ha":847,"x_min":71,"x_max":776,"o":"m 251 776 q 236 792 236 776 l 236 829 q 251 844 236 844 l 599 844 q 614 829 614 844 l 614 792 q 599 776 614 776 l 251 776 m 761 715 q 776 700 776 715 l 776 15 q 761 0 776 0 l 599 0 q 583 15 583 0 l 583 69 q 360 -21 511 -21 q 71 278 71 -21 l 71 700 q 86 715 71 715 l 253 715 q 268 700 268 715 l 268 340 q 302 213 268 253 q 411 172 336 172 q 581 340 581 172 l 581 700 q 596 715 581 715 l 761 715 z "},"Ů":{"ha":847,"x_min":83,"x_max":764,"o":"m 524 1116 q 503 1095 524 1116 q 424 1074 482 1074 q 324 1116 365 1074 q 282 1217 282 1158 q 324 1316 282 1274 q 424 1358 365 1358 q 524 1316 482 1358 q 567 1217 567 1274 q 524 1116 567 1158 m 365 1158 q 377 1145 365 1158 q 424 1133 389 1133 q 482 1158 458 1133 q 506 1217 506 1182 q 482 1274 506 1250 q 424 1297 458 1297 q 365 1274 389 1297 q 342 1217 342 1250 q 365 1158 342 1182 m 422 -21 q 173 78 263 -21 q 83 340 83 178 l 83 1011 q 99 1026 83 1026 l 271 1026 q 286 1011 286 1026 l 286 363 q 424 183 286 183 q 561 363 561 183 l 561 1011 q 576 1026 561 1026 l 749 1026 q 764 1011 764 1026 l 764 351 q 674 80 764 181 q 422 -21 583 -21 z "},"ů":{"ha":847,"x_min":71,"x_max":776,"o":"m 524 805 q 503 784 524 805 q 424 763 482 763 q 324 805 365 763 q 282 906 282 847 q 324 1005 282 963 q 424 1047 365 1047 q 524 1005 482 1047 q 567 906 567 963 q 524 805 567 847 m 365 847 q 377 834 365 847 q 424 822 389 822 q 482 847 458 822 q 506 906 506 871 q 482 963 506 939 q 424 986 458 986 q 365 963 389 986 q 342 906 342 939 q 365 847 342 871 m 761 715 q 776 700 776 715 l 776 15 q 761 0 776 0 l 599 0 q 583 15 583 0 l 583 69 q 360 -21 511 -21 q 71 278 71 -21 l 71 700 q 86 715 71 715 l 253 715 q 268 700 268 715 l 268 340 q 302 213 268 253 q 411 172 336 172 q 581 340 581 172 l 581 700 q 596 715 581 715 l 761 715 z "},"Ű":{"ha":847,"x_min":83,"x_max":764,"o":"m 304 1088 q 296 1106 285 1088 l 444 1354 q 463 1363 449 1363 l 528 1363 q 536 1343 547 1363 l 371 1096 q 353 1088 365 1088 l 304 1088 m 472 1088 q 464 1106 453 1088 l 613 1354 q 631 1363 617 1363 l 696 1363 q 704 1343 715 1363 l 539 1096 q 521 1088 533 1088 l 472 1088 m 422 -21 q 173 78 263 -21 q 83 340 83 178 l 83 1011 q 99 1026 83 1026 l 271 1026 q 286 1011 286 1026 l 286 363 q 424 183 286 183 q 561 363 561 183 l 561 1011 q 576 1026 561 1026 l 749 1026 q 764 1011 764 1026 l 764 351 q 674 80 764 181 q 422 -21 583 -21 z "},"ű":{"ha":847,"x_min":71,"x_max":776,"o":"m 304 776 q 296 794 285 776 l 444 1043 q 463 1051 449 1051 l 528 1051 q 536 1032 547 1051 l 371 785 q 353 776 365 776 l 304 776 m 472 776 q 464 794 453 776 l 613 1043 q 631 1051 617 1051 l 696 1051 q 704 1032 715 1051 l 539 785 q 521 776 533 776 l 472 776 m 761 715 q 776 700 776 715 l 776 15 q 761 0 776 0 l 599 0 q 583 15 583 0 l 583 69 q 360 -21 511 -21 q 71 278 71 -21 l 71 700 q 86 715 71 715 l 253 715 q 268 700 268 715 l 268 340 q 302 213 268 253 q 411 172 336 172 q 581 340 581 172 l 581 700 q 596 715 581 715 l 761 715 z "},"Ų":{"ha":847,"x_min":83,"x_max":764,"o":"m 749 1026 q 764 1011 764 1026 l 764 351 q 694 106 764 203 q 499 -14 625 8 q 368 -153 368 -56 q 433 -265 368 -222 q 588 -308 497 -308 q 604 -328 604 -308 l 604 -361 q 583 -382 604 -382 q 369 -315 450 -382 q 288 -158 288 -249 q 361 -17 288 -72 q 156 99 229 3 q 83 340 83 194 l 83 1011 q 99 1026 83 1026 l 271 1026 q 286 1011 286 1026 l 286 363 q 424 183 286 183 q 561 363 561 183 l 561 1011 q 576 1026 561 1026 l 749 1026 z "},"ų":{"ha":847,"x_min":71,"x_max":776,"o":"m 761 715 q 776 700 776 715 l 776 15 q 761 0 776 0 l 740 0 q 585 -45 640 -1 q 529 -153 529 -89 q 594 -265 529 -222 q 749 -308 658 -308 q 765 -328 765 -308 l 765 -361 q 744 -382 765 -382 q 530 -315 611 -382 q 449 -158 449 -249 q 583 25 449 -29 l 583 69 q 360 -21 511 -21 q 71 278 71 -21 l 71 700 q 86 715 71 715 l 253 715 q 268 700 268 715 l 268 340 q 302 213 268 253 q 411 172 336 172 q 581 340 581 172 l 581 700 q 596 715 581 715 l 761 715 z "},"Ŵ":{"ha":847,"x_min":26,"x_max":822,"o":"m 393 1360 l 453 1360 q 483 1343 472 1360 l 661 1113 q 663 1095 667 1103 q 647 1088 658 1088 l 594 1088 q 568 1110 585 1088 l 422 1303 l 279 1110 q 253 1088 265 1088 l 200 1088 q 185 1095 189 1088 q 188 1111 181 1103 l 363 1343 q 393 1360 375 1360 m 104 0 q 88 14 89 0 l 26 1010 q 39 1026 26 1026 l 213 1026 q 229 1014 229 1026 l 240 792 l 260 232 l 268 232 l 319 813 q 336 826 319 826 l 518 826 q 535 813 535 826 l 583 232 l 590 232 l 607 788 l 618 1014 q 635 1026 618 1026 l 808 1026 q 821 1010 822 1026 l 760 14 q 743 0 758 0 l 497 0 q 481 14 481 0 l 428 588 l 419 588 l 372 14 q 356 0 371 0 l 104 0 z "},"ŵ":{"ha":847,"x_min":32,"x_max":801,"o":"m 393 1049 l 453 1049 q 483 1032 472 1049 l 661 801 q 663 784 667 792 q 647 776 658 776 l 594 776 q 568 799 585 776 l 422 992 l 279 799 q 253 776 265 776 l 200 776 q 185 784 189 776 q 188 800 181 792 l 363 1032 q 393 1049 375 1049 m 128 0 q 113 15 115 0 l 35 697 q 50 715 32 715 l 218 715 q 236 700 236 715 l 244 575 l 268 225 l 276 225 l 325 592 q 343 606 328 606 l 496 606 q 514 590 511 606 l 563 225 l 571 225 l 589 572 l 596 700 q 614 715 596 715 l 783 715 q 799 696 801 715 l 722 15 q 707 0 719 0 l 481 0 q 465 15 465 0 l 422 399 l 415 399 l 369 15 q 354 0 367 0 l 128 0 z "},"Ŷ":{"ha":847,"x_min":4,"x_max":843,"o":"m 393 1360 l 453 1360 q 483 1343 472 1360 l 661 1113 q 663 1095 667 1103 q 647 1088 658 1088 l 594 1088 q 568 1110 585 1088 l 422 1303 l 279 1110 q 253 1088 265 1088 l 200 1088 q 185 1095 189 1088 q 188 1111 181 1103 l 363 1343 q 393 1360 375 1360 m 338 0 q 322 15 322 0 l 322 339 l 11 1008 q 22 1026 4 1026 l 219 1026 q 238 1015 231 1026 l 425 589 l 432 589 l 614 1015 q 632 1026 618 1026 l 826 1026 q 836 1008 843 1026 l 524 339 l 524 15 q 508 0 524 0 l 338 0 z "},"ŷ":{"ha":847,"x_min":10,"x_max":832,"o":"m 393 1049 l 453 1049 q 483 1032 472 1049 l 661 801 q 663 784 667 792 q 647 776 658 776 l 594 776 q 568 799 585 776 l 422 992 l 279 799 q 253 776 265 776 l 200 776 q 185 784 189 776 q 188 800 181 792 l 363 1032 q 393 1049 375 1049 m 325 -42 l 14 696 q 15 709 10 703 q 28 715 19 715 l 214 715 q 233 700 225 715 l 424 206 l 431 206 l 610 700 q 628 715 615 715 l 814 715 q 827 709 822 715 q 829 696 832 703 l 514 -83 q 384 -274 458 -217 q 179 -332 310 -332 q 31 -312 107 -332 q 17 -294 17 -308 l 17 -133 q 22 -120 17 -125 q 35 -117 28 -115 q 157 -142 117 -142 l 161 -142 q 253 -124 221 -142 q 318 -54 286 -106 l 325 -42 z "},"Ÿ":{"ha":847,"x_min":4,"x_max":843,"o":"m 176 1088 q 161 1103 161 1088 l 161 1140 q 176 1156 161 1156 l 371 1156 q 386 1140 386 1156 l 386 1103 q 371 1088 386 1088 l 176 1088 m 476 1088 q 461 1103 461 1088 l 461 1140 q 476 1156 461 1156 l 672 1156 q 688 1140 688 1156 l 688 1103 q 672 1088 688 1088 l 476 1088 m 338 0 q 322 15 322 0 l 322 339 l 11 1008 q 22 1026 4 1026 l 219 1026 q 238 1015 231 1026 l 425 589 l 432 589 l 614 1015 q 632 1026 618 1026 l 826 1026 q 836 1008 843 1026 l 524 339 l 524 15 q 508 0 524 0 l 338 0 z "},"Ź":{"ha":785,"x_min":46,"x_max":740,"o":"m 342 1088 q 333 1106 322 1088 l 482 1354 q 500 1363 486 1363 l 565 1363 q 574 1343 585 1363 l 408 1096 q 390 1088 403 1088 l 342 1088 m 740 844 q 733 826 740 833 l 293 192 l 725 192 q 740 176 740 192 l 740 15 q 725 0 740 0 l 61 0 q 46 15 46 0 l 46 181 q 51 200 46 190 l 497 836 l 67 836 q 51 851 51 836 l 51 1011 q 67 1026 51 1026 l 725 1026 q 740 1011 740 1026 l 740 844 z "},"ź":{"ha":847,"x_min":67,"x_max":775,"o":"m 372 776 q 364 794 353 776 l 513 1043 q 531 1051 517 1051 l 596 1051 q 604 1032 615 1051 l 439 785 q 421 776 433 776 l 372 776 m 760 175 q 775 160 775 175 l 775 15 q 760 0 775 0 l 82 0 q 67 15 67 0 l 67 150 q 82 175 67 164 l 490 540 l 89 540 q 74 556 74 540 l 74 700 q 89 715 74 715 l 753 715 q 768 700 768 715 l 768 563 q 753 540 768 551 l 349 175 l 760 175 z "},"Ż":{"ha":785,"x_min":46,"x_max":740,"o":"m 437 1126 q 427 1117 437 1126 q 394 1108 418 1108 q 353 1126 371 1108 q 335 1169 335 1144 q 353 1211 335 1193 q 394 1229 371 1229 q 437 1211 418 1229 q 456 1169 456 1193 q 437 1126 456 1144 m 740 844 q 733 826 740 833 l 293 192 l 725 192 q 740 176 740 192 l 740 15 q 725 0 740 0 l 61 0 q 46 15 46 0 l 46 181 q 51 200 46 190 l 497 836 l 67 836 q 51 851 51 836 l 51 1011 q 67 1026 51 1026 l 725 1026 q 740 1011 740 1026 l 740 844 z "},"ż":{"ha":847,"x_min":67,"x_max":775,"o":"m 466 815 q 457 806 466 815 q 424 797 447 797 q 382 815 400 797 q 364 858 364 833 q 382 900 364 882 q 424 918 400 918 q 466 900 447 918 q 485 858 485 882 q 466 815 485 833 m 760 175 q 775 160 775 175 l 775 15 q 760 0 775 0 l 82 0 q 67 15 67 0 l 67 150 q 82 175 67 164 l 490 540 l 89 540 q 74 556 74 540 l 74 700 q 89 715 74 715 l 753 715 q 768 700 768 715 l 768 563 q 753 540 768 551 l 349 175 l 760 175 z "},"Ž":{"ha":785,"x_min":46,"x_max":740,"o":"m 333 1103 l 158 1335 q 156 1351 151 1343 q 171 1358 160 1358 l 224 1358 q 250 1338 235 1358 l 393 1144 l 539 1338 q 565 1358 557 1358 l 618 1358 q 634 1351 629 1358 q 632 1335 639 1343 l 454 1103 q 424 1086 443 1086 l 364 1086 q 333 1103 346 1086 m 740 844 q 733 826 740 833 l 293 192 l 725 192 q 740 176 740 192 l 740 15 q 725 0 740 0 l 61 0 q 46 15 46 0 l 46 181 q 51 200 46 190 l 497 836 l 67 836 q 51 851 51 836 l 51 1011 q 67 1026 51 1026 l 725 1026 q 740 1011 740 1026 l 740 844 z "},"ž":{"ha":847,"x_min":67,"x_max":775,"o":"m 363 792 l 188 1024 q 185 1040 181 1032 q 200 1047 189 1047 l 253 1047 q 279 1026 264 1047 l 422 833 l 568 1026 q 594 1047 586 1047 l 647 1047 q 663 1040 658 1047 q 661 1024 668 1032 l 483 792 q 453 775 472 775 l 393 775 q 363 792 375 775 m 760 175 q 775 160 775 175 l 775 15 q 760 0 775 0 l 82 0 q 67 15 67 0 l 67 150 q 82 175 67 164 l 490 540 l 89 540 q 74 556 74 540 l 74 700 q 89 715 74 715 l 753 715 q 768 700 768 715 l 768 563 q 753 540 768 551 l 349 175 l 760 175 z "},"Ș":{"ha":847,"x_min":42,"x_max":804,"o":"m 428 -19 q 149 61 251 -19 q 42 311 47 142 q 58 328 42 328 l 254 328 q 272 311 272 328 q 315 214 274 247 q 428 181 357 181 q 590 292 590 181 q 549 373 590 347 q 379 429 508 399 q 138 538 211 468 q 65 735 65 608 q 165 962 65 876 q 428 1047 264 1047 q 693 962 597 1047 q 799 714 789 876 q 782 697 799 697 l 592 697 q 575 714 578 697 q 533 815 572 779 q 425 850 494 850 q 318 822 357 850 q 279 742 279 794 q 318 665 279 689 q 475 614 357 642 q 725 502 646 572 q 804 286 804 432 q 701 59 803 138 q 428 -19 600 -19 m 301 -442 q 265 -422 288 -451 q 257 -382 243 -392 l 394 -289 l 394 -79 q 413 -61 394 -61 l 450 -61 q 468 -79 468 -61 l 468 -307 q 451 -336 468 -325 l 301 -442 z "},"ș":{"ha":847,"x_min":54,"x_max":801,"o":"m 433 -19 q 152 38 244 -19 q 54 226 60 94 q 72 243 54 243 l 256 243 q 272 226 272 243 q 311 171 274 188 q 433 154 349 154 q 558 167 522 154 q 593 213 593 179 q 560 256 593 243 q 428 275 528 268 q 151 340 229 290 q 74 503 74 389 q 167 673 74 611 q 422 735 261 735 q 698 669 604 735 q 799 488 792 604 q 782 472 799 472 l 600 472 q 583 486 585 472 q 422 563 579 563 q 279 504 279 563 q 310 463 279 475 q 450 442 342 451 q 712 376 622 426 q 801 214 801 325 q 433 -19 801 -19 m 300 -442 q 264 -422 286 -451 q 256 -382 242 -392 l 393 -289 l 393 -79 q 411 -61 393 -61 l 449 -61 q 467 -79 467 -61 l 467 -307 q 450 -336 467 -325 l 300 -442 z "},"Ț":{"ha":847,"x_min":35,"x_max":813,"o":"m 339 0 q 324 15 324 0 l 324 836 l 50 836 q 35 851 35 836 l 35 1011 q 50 1026 35 1026 l 797 1026 q 813 1011 813 1026 l 813 851 q 797 836 813 836 l 525 836 l 525 15 q 510 0 525 0 l 339 0 m 301 -442 q 265 -422 288 -451 q 257 -382 243 -392 l 394 -289 l 394 -79 q 413 -61 394 -61 l 450 -61 q 468 -79 468 -61 l 468 -307 q 451 -336 468 -325 l 301 -442 z "},"ț":{"ha":847,"x_min":0,"x_max":804,"o":"m 789 715 q 804 700 804 715 l 804 547 q 789 532 804 532 l 404 532 l 404 310 q 554 174 404 174 l 560 174 q 772 204 665 174 q 784 201 779 206 q 789 188 789 196 l 789 26 q 775 8 789 11 q 536 -19 639 -19 q 292 47 376 -19 q 208 264 208 114 l 208 532 l 15 532 q 0 547 0 532 l 0 700 q 15 715 0 715 l 208 715 l 208 969 q 224 985 208 985 l 389 985 q 404 969 404 985 l 404 715 l 789 715 m 450 -61 q 468 -79 468 -61 l 468 -307 q 451 -336 468 -325 l 301 -442 q 265 -422 288 -451 q 257 -382 243 -392 l 394 -289 l 394 -79 q 413 -61 394 -61 l 450 -61 z "},"̀":{"ha":0,"x_min":-578,"x_max":-317,"o":"m -333 686 l -383 686 q -401 694 -396 686 l -567 942 q -558 961 -578 961 l -493 961 q -475 953 -479 961 l -325 704 q -333 686 -317 686 z "},"́":{"ha":0,"x_min":-549,"x_max":-286,"o":"m -529 686 q -537 704 -549 686 l -389 953 q -371 961 -385 961 l -306 961 q -297 942 -286 961 l -462 694 q -481 686 -468 686 l -529 686 z "},"̂":{"ha":0,"x_min":-654,"x_max":-167,"o":"m -442 958 l -382 958 q -351 942 -362 958 l -174 711 q -172 694 -167 701 q -187 686 -176 686 l -240 686 q -267 708 -250 686 l -412 901 l -556 708 q -582 686 -569 686 l -635 686 q -650 694 -646 686 q -647 710 -654 701 l -472 942 q -442 958 -460 958 z "},"̃":{"ha":0,"x_min":-624,"x_max":-253,"o":"m -372 690 q -447 728 -408 690 q -504 767 -486 767 q -540 753 -526 767 q -567 694 -554 739 q -584 690 -571 688 q -610 704 -597 693 q -621 725 -624 715 q -504 833 -594 833 q -428 795 -467 833 q -371 757 -389 757 q -335 771 -350 757 q -310 828 -321 785 q -278 824 -306 842 q -257 794 -253 808 q -372 690 -283 690 z "},"̄":{"ha":0,"x_min":-626,"x_max":-249,"o":"m -611 686 q -626 701 -626 686 l -626 739 q -611 754 -626 754 l -264 754 q -249 739 -249 754 l -249 701 q -264 686 -249 686 l -611 686 z "},"̆":{"ha":0,"x_min":-671,"x_max":-185,"o":"m -426 686 q -608 753 -546 686 q -671 938 -671 819 q -650 960 -671 960 l -617 960 q -602 950 -608 960 q -596 926 -596 940 q -552 799 -596 847 q -426 750 -508 750 q -303 799 -347 750 q -260 926 -260 847 q -253 950 -260 940 q -239 960 -247 960 l -206 960 q -185 938 -185 960 q -247 753 -185 819 q -426 686 -310 686 z "},"̇":{"ha":0,"x_min":-453,"x_max":-332,"o":"m -351 725 q -360 716 -351 725 q -393 707 -369 707 q -435 725 -417 707 q -453 768 -453 743 q -435 810 -453 792 q -393 828 -417 828 q -351 810 -369 828 q -332 768 -332 792 q -351 725 -332 743 z "},"̈":{"ha":0,"x_min":-686,"x_max":-160,"o":"m -671 686 q -686 701 -686 686 l -686 739 q -671 754 -686 754 l -476 754 q -461 739 -461 754 l -461 701 q -476 686 -461 686 l -671 686 m -371 686 q -386 701 -386 686 l -386 739 q -371 754 -386 754 l -175 754 q -160 739 -160 754 l -160 701 q -175 686 -160 686 l -371 686 z "},"̊":{"ha":0,"x_min":-619,"x_max":-335,"o":"m -377 715 q -398 693 -377 715 q -478 672 -419 672 q -578 715 -536 672 q -619 815 -619 757 q -578 915 -619 872 q -478 957 -536 957 q -377 915 -419 957 q -335 815 -335 872 q -377 715 -335 757 m -536 756 q -524 744 -536 756 q -478 732 -512 732 q -419 756 -443 732 q -396 815 -396 781 q -419 872 -396 849 q -478 896 -443 896 q -536 872 -512 896 q -560 815 -560 849 q -536 756 -560 781 z "},"̋":{"ha":0,"x_min":-615,"x_max":-185,"o":"m -596 686 q -604 704 -615 686 l -456 953 q -437 961 -451 961 l -372 961 q -364 942 -353 961 l -529 694 q -547 686 -535 686 l -596 686 m -428 686 q -436 704 -447 686 l -287 953 q -269 961 -283 961 l -204 961 q -196 942 -185 961 l -361 694 q -379 686 -367 686 l -428 686 z "},"̌":{"ha":0,"x_min":-654,"x_max":-167,"o":"m -442 685 q -472 701 -460 685 l -647 933 q -650 949 -654 942 q -635 957 -646 957 l -582 957 q -556 936 -571 957 l -412 743 l -267 936 q -240 957 -249 957 l -187 957 q -172 949 -176 957 q -174 933 -167 942 l -351 701 q -382 685 -362 685 l -442 685 z "},"̒":{"ha":0,"x_min":-467,"x_max":-242,"o":"m -300 1139 q -264 1119 -286 1149 q -256 1079 -242 1089 l -393 986 l -393 776 q -411 758 -393 758 l -449 758 q -467 776 -467 758 l -467 1004 q -450 1033 -467 1022 l -300 1139 z "},"̦":{"ha":0,"x_min":-536,"x_max":-311,"o":"m -478 -442 q -514 -422 -492 -451 q -522 -382 -536 -392 l -385 -289 l -385 -79 q -367 -61 -385 -61 l -329 -61 q -311 -79 -311 -61 l -311 -307 q -328 -336 -311 -325 l -478 -442 z "},"̧":{"ha":0,"x_min":-590,"x_max":-303,"o":"m -569 -392 q -590 -372 -590 -392 l -590 -335 q -585 -322 -590 -328 q -574 -317 -581 -317 q -383 -208 -383 -317 q -558 -118 -383 -118 q -567 -112 -564 -118 q -567 -99 -569 -106 l -508 28 l -435 28 l -475 -60 q -303 -211 -303 -86 q -380 -344 -303 -296 q -569 -392 -457 -392 z "},"̨":{"ha":0,"x_min":-626,"x_max":-310,"o":"m -331 -382 q -545 -315 -464 -382 q -626 -158 -626 -249 q -549 -6 -626 -64 q -337 51 -471 51 l -335 0 q -490 -45 -435 -1 q -546 -153 -546 -89 q -481 -265 -546 -222 q -326 -308 -417 -308 q -310 -328 -310 -308 l -310 -361 q -331 -382 -310 -382 z "},"Ẁ":{"ha":847,"x_min":26,"x_max":822,"o":"m 492 1088 l 442 1088 q 424 1096 429 1088 l 258 1343 q 267 1363 247 1363 l 332 1363 q 350 1354 346 1363 l 500 1106 q 492 1088 508 1088 m 104 0 q 88 14 89 0 l 26 1010 q 39 1026 26 1026 l 213 1026 q 229 1014 229 1026 l 240 792 l 260 232 l 268 232 l 319 813 q 336 826 319 826 l 518 826 q 535 813 535 826 l 583 232 l 590 232 l 607 788 l 618 1014 q 635 1026 618 1026 l 808 1026 q 821 1010 822 1026 l 760 14 q 743 0 758 0 l 497 0 q 481 14 481 0 l 428 588 l 419 588 l 372 14 q 356 0 371 0 l 104 0 z "},"ẁ":{"ha":847,"x_min":32,"x_max":801,"o":"m 492 776 l 442 776 q 424 785 429 776 l 258 1032 q 267 1051 247 1051 l 332 1051 q 350 1043 346 1051 l 500 794 q 492 776 508 776 m 128 0 q 113 15 115 0 l 35 697 q 50 715 32 715 l 218 715 q 236 700 236 715 l 244 575 l 268 225 l 276 225 l 325 592 q 343 606 328 606 l 496 606 q 514 590 511 606 l 563 225 l 571 225 l 589 572 l 596 700 q 614 715 596 715 l 783 715 q 799 696 801 715 l 722 15 q 707 0 719 0 l 481 0 q 465 15 465 0 l 422 399 l 415 399 l 369 15 q 354 0 367 0 l 128 0 z "},"Ẃ":{"ha":847,"x_min":26,"x_max":822,"o":"m 372 1088 q 364 1106 353 1088 l 513 1354 q 531 1363 517 1363 l 596 1363 q 604 1343 615 1363 l 439 1096 q 421 1088 433 1088 l 372 1088 m 104 0 q 88 14 89 0 l 26 1010 q 39 1026 26 1026 l 213 1026 q 229 1014 229 1026 l 240 792 l 260 232 l 268 232 l 319 813 q 336 826 319 826 l 518 826 q 535 813 535 826 l 583 232 l 590 232 l 607 788 l 618 1014 q 635 1026 618 1026 l 808 1026 q 821 1010 822 1026 l 760 14 q 743 0 758 0 l 497 0 q 481 14 481 0 l 428 588 l 419 588 l 372 14 q 356 0 371 0 l 104 0 z "},"ẃ":{"ha":847,"x_min":32,"x_max":801,"o":"m 372 776 q 364 794 353 776 l 513 1043 q 531 1051 517 1051 l 596 1051 q 604 1032 615 1051 l 439 785 q 421 776 433 776 l 372 776 m 128 0 q 113 15 115 0 l 35 697 q 50 715 32 715 l 218 715 q 236 700 236 715 l 244 575 l 268 225 l 276 225 l 325 592 q 343 606 328 606 l 496 606 q 514 590 511 606 l 563 225 l 571 225 l 589 572 l 596 700 q 614 715 596 715 l 783 715 q 799 696 801 715 l 722 15 q 707 0 719 0 l 481 0 q 465 15 465 0 l 422 399 l 415 399 l 369 15 q 354 0 367 0 l 128 0 z "},"Ẅ":{"ha":847,"x_min":26,"x_max":822,"o":"m 176 1088 q 161 1103 161 1088 l 161 1140 q 176 1156 161 1156 l 371 1156 q 386 1140 386 1156 l 386 1103 q 371 1088 386 1088 l 176 1088 m 476 1088 q 461 1103 461 1088 l 461 1140 q 476 1156 461 1156 l 672 1156 q 688 1140 688 1156 l 688 1103 q 672 1088 688 1088 l 476 1088 m 104 0 q 88 14 89 0 l 26 1010 q 39 1026 26 1026 l 213 1026 q 229 1014 229 1026 l 240 792 l 260 232 l 268 232 l 319 813 q 336 826 319 826 l 518 826 q 535 813 535 826 l 583 232 l 590 232 l 607 788 l 618 1014 q 635 1026 618 1026 l 808 1026 q 821 1010 822 1026 l 760 14 q 743 0 758 0 l 497 0 q 481 14 481 0 l 428 588 l 419 588 l 372 14 q 356 0 371 0 l 104 0 z "},"ẅ":{"ha":847,"x_min":32,"x_max":801,"o":"m 176 776 q 161 792 161 776 l 161 829 q 176 844 161 844 l 371 844 q 386 829 386 844 l 386 792 q 371 776 386 776 l 176 776 m 476 776 q 461 792 461 776 l 461 829 q 476 844 461 844 l 672 844 q 688 829 688 844 l 688 792 q 672 776 688 776 l 476 776 m 128 0 q 113 15 115 0 l 35 697 q 50 715 32 715 l 218 715 q 236 700 236 715 l 244 575 l 268 225 l 276 225 l 325 592 q 343 606 328 606 l 496 606 q 514 590 511 606 l 563 225 l 571 225 l 589 572 l 596 700 q 614 715 596 715 l 783 715 q 799 696 801 715 l 722 15 q 707 0 719 0 l 481 0 q 465 15 465 0 l 422 399 l 415 399 l 369 15 q 354 0 367 0 l 128 0 z "},"ẞ":{"ha":847,"x_min":83,"x_max":817,"o":"m 610 592 q 761 492 706 567 q 817 308 817 418 q 731 85 817 171 q 494 -1 646 -1 l 374 -1 q 363 10 363 -1 l 363 179 q 374 189 363 189 l 483 189 q 578 222 546 189 q 610 308 610 254 q 488 422 610 422 l 392 422 q 379 435 379 422 l 379 581 q 390 613 379 600 l 597 836 l 565 836 q 342 757 404 836 q 281 514 281 678 l 281 13 q 265 -3 281 -3 l 99 -3 q 83 13 83 -3 l 83 524 q 582 1026 83 1026 l 796 1026 q 810 1011 810 1026 l 810 815 q 803 796 810 806 l 610 592 z "},"Ỳ":{"ha":847,"x_min":4,"x_max":843,"o":"m 492 1088 l 442 1088 q 424 1096 429 1088 l 258 1343 q 267 1363 247 1363 l 332 1363 q 350 1354 346 1363 l 500 1106 q 492 1088 508 1088 m 338 0 q 322 15 322 0 l 322 339 l 11 1008 q 22 1026 4 1026 l 219 1026 q 238 1015 231 1026 l 425 589 l 432 589 l 614 1015 q 632 1026 618 1026 l 826 1026 q 836 1008 843 1026 l 524 339 l 524 15 q 508 0 524 0 l 338 0 z "},"ỳ":{"ha":847,"x_min":10,"x_max":832,"o":"m 492 776 l 442 776 q 424 785 429 776 l 258 1032 q 267 1051 247 1051 l 332 1051 q 350 1043 346 1051 l 500 794 q 492 776 508 776 m 325 -42 l 14 696 q 15 709 10 703 q 28 715 19 715 l 214 715 q 233 700 225 715 l 424 206 l 431 206 l 610 700 q 628 715 615 715 l 814 715 q 827 709 822 715 q 829 696 832 703 l 514 -83 q 384 -274 458 -217 q 179 -332 310 -332 q 31 -312 107 -332 q 17 -294 17 -308 l 17 -133 q 22 -120 17 -125 q 35 -117 28 -115 q 157 -142 117 -142 l 161 -142 q 253 -124 221 -142 q 318 -54 286 -106 l 325 -42 z "},"–":{"ha":847,"x_min":46,"x_max":803,"o":"m 61 354 q 46 369 46 354 l 46 410 q 61 424 46 424 l 786 424 q 803 410 803 424 l 803 369 q 786 354 803 354 l 61 354 z "},"—":{"ha":847,"x_min":0,"x_max":847,"o":"m 15 390 q 0 406 0 390 l 0 446 q 15 460 0 460 l 832 460 q 847 446 847 460 l 847 406 q 832 390 847 390 l 15 390 z "},"‘":{"ha":282,"x_min":22,"x_max":267,"o":"m 203 1040 q 226 1046 211 1050 q 254 1028 242 1042 q 261 1006 267 1015 l 101 733 l 224 733 q 242 717 242 733 l 242 535 q 224 518 242 518 l 39 518 q 22 535 22 518 l 22 717 q 33 747 22 729 l 203 1040 z "},"’":{"ha":282,"x_min":15,"x_max":261,"o":"m 79 503 q 56 497 71 493 q 28 515 40 501 q 21 539 15 529 l 181 810 l 58 810 q 42 828 42 810 l 42 1010 q 58 1026 42 1026 l 244 1026 q 261 1010 261 1026 l 261 828 q 249 797 261 815 l 79 503 z "},"‚":{"ha":282,"x_min":15,"x_max":261,"o":"m 79 -307 q 56 -312 71 -317 q 28 -295 40 -308 q 21 -272 15 -282 l 181 0 l 58 0 q 42 17 42 0 l 42 200 q 58 217 42 217 l 244 217 q 261 200 261 217 l 261 17 q 249 -14 261 6 l 79 -307 z "},"“":{"ha":565,"x_min":15,"x_max":538,"o":"m 196 1040 q 219 1046 204 1050 q 247 1028 235 1042 q 254 1006 260 1015 l 94 733 l 217 733 q 235 717 235 733 l 235 535 q 217 517 235 517 l 32 517 q 15 535 15 517 l 15 717 q 26 747 15 726 l 196 1040 m 474 1040 q 497 1046 482 1050 q 525 1028 513 1042 q 532 1006 538 1015 l 372 733 l 494 733 q 513 717 513 733 l 513 535 q 494 517 513 517 l 310 517 q 293 535 293 517 l 293 717 q 304 747 293 726 l 474 1040 z "},"”":{"ha":565,"x_min":26,"x_max":550,"o":"m 92 503 q 68 497 83 493 q 40 515 53 501 q 32 539 26 529 l 193 810 l 69 810 q 53 828 53 810 l 53 1010 q 69 1026 53 1026 l 256 1026 q 272 1010 272 1026 l 272 828 q 261 797 272 815 l 92 503 m 369 503 q 346 497 361 493 q 317 515 331 501 q 310 539 304 529 l 471 810 l 347 810 q 331 828 331 810 l 331 1010 q 347 1026 331 1026 l 533 1026 q 550 1010 550 1026 l 550 828 q 539 797 550 815 l 369 503 z "},"„":{"ha":565,"x_min":24,"x_max":550,"o":"m 92 -307 q 53 -306 82 -324 q 32 -272 24 -287 l 193 0 l 69 0 q 53 17 53 0 l 53 200 q 69 217 53 217 l 256 217 q 272 200 272 217 l 272 17 q 261 -14 272 7 l 92 -307 m 369 -307 q 331 -306 360 -324 q 310 -272 301 -287 l 471 0 l 347 0 q 331 17 331 0 l 331 200 q 347 217 331 217 l 533 217 q 550 200 550 217 l 550 17 q 539 -14 550 7 l 369 -307 z "},"†":{"ha":847,"x_min":46,"x_max":803,"o":"m 786 497 q 803 482 803 497 l 803 442 q 786 428 803 428 l 463 428 l 463 -217 q 454 -233 463 -233 l 394 -233 q 385 -217 385 -233 l 385 428 l 61 428 q 46 442 46 428 l 46 482 q 61 497 46 497 l 385 497 l 385 1010 q 396 1026 385 1026 l 451 1026 q 463 1010 463 1026 l 463 497 l 786 497 z "},"‡":{"ha":847,"x_min":46,"x_max":803,"o":"m 786 556 l 463 556 l 463 238 l 786 238 q 803 224 803 238 l 803 183 q 786 168 803 168 l 463 168 l 463 -217 q 454 -233 463 -233 l 394 -233 q 385 -217 385 -233 l 385 168 l 61 168 q 46 183 46 168 l 46 224 q 61 238 46 238 l 385 238 l 385 556 l 61 556 q 46 571 46 556 l 46 611 q 61 625 46 625 l 385 625 l 385 1010 q 396 1026 385 1026 l 451 1026 q 463 1010 463 1026 l 463 625 l 786 625 q 803 611 803 625 l 803 571 q 786 556 803 556 z "},"•":{"ha":282,"x_min":40,"x_max":243,"o":"m 142 343 q 69 376 99 343 q 40 463 40 410 q 69 547 40 514 q 142 581 99 581 q 213 547 183 581 q 243 463 243 514 q 213 377 243 411 q 142 343 183 343 z "},"…":{"ha":847,"x_min":49,"x_max":797,"o":"m 65 0 q 49 15 49 0 l 49 201 q 65 217 49 217 l 249 217 q 265 201 265 217 l 265 15 q 249 0 265 0 l 65 0 m 332 0 q 315 15 315 0 l 315 201 q 332 217 315 217 l 515 217 q 532 201 532 217 l 532 15 q 515 0 532 0 l 332 0 m 597 0 q 582 15 582 0 l 582 201 q 597 217 582 217 l 782 217 q 797 201 797 217 l 797 15 q 782 0 797 0 l 597 0 z "},"‹":{"ha":565,"x_min":93,"x_max":461,"o":"m 385 0 q 365 11 375 0 l 101 394 q 101 421 93 407 l 365 806 q 385 817 375 817 l 443 817 q 457 812 453 817 q 454 797 461 807 l 188 410 l 454 19 q 457 5 461 10 q 443 0 453 0 l 385 0 z "},"›":{"ha":565,"x_min":104,"x_max":472,"o":"m 179 817 q 199 806 192 817 l 464 422 q 464 396 472 410 l 199 11 q 179 0 192 0 l 122 0 q 108 5 113 0 q 111 19 104 10 l 376 407 l 111 797 q 108 812 104 807 q 122 817 113 817 l 179 817 z "},"⁰":{"ha":565,"x_min":35,"x_max":533,"o":"m 285 1047 q 465 969 397 1047 q 533 746 533 890 l 533 707 q 465 485 533 564 q 285 406 396 406 q 103 485 171 406 q 35 707 35 564 l 35 746 q 104 968 35 889 q 285 1047 174 1047 m 285 886 q 226 851 244 886 l 363 682 q 364 726 364 696 q 347 847 364 807 q 285 886 329 886 m 285 568 q 343 599 325 568 l 208 765 q 207 726 207 753 q 224 606 207 643 q 285 568 240 568 z "},"€":{"ha":847,"x_min":35,"x_max":804,"o":"m 786 408 q 801 390 804 408 q 694 94 789 208 q 422 -19 600 -19 q 138 115 240 -19 q 35 468 35 250 l 35 561 q 138 912 35 778 q 422 1047 242 1046 q 697 938 604 1047 q 801 639 789 828 q 786 619 804 619 l 600 619 q 582 636 583 619 q 424 843 564 843 q 253 615 276 843 l 439 615 q 456 600 456 615 l 456 561 q 439 546 456 546 l 249 546 l 249 529 l 249 500 l 249 467 l 439 467 q 454 451 454 467 l 454 413 q 439 397 454 397 l 254 397 q 424 185 282 185 q 582 393 564 185 q 600 408 583 408 l 786 408 z "},"™":{"ha":847,"x_min":11,"x_max":807,"o":"m 147 279 q 139 292 139 279 l 139 957 l 22 957 q 11 967 11 957 l 11 1017 q 22 1026 11 1026 l 328 1026 q 339 1017 339 1026 l 339 967 q 328 957 339 957 l 208 957 l 208 292 q 200 279 208 279 l 147 279 m 385 279 q 374 292 374 279 l 374 1015 q 385 1026 374 1026 l 486 1026 q 500 1018 497 1026 l 593 328 l 681 1018 q 694 1026 681 1026 l 796 1026 q 807 1015 807 1026 l 807 292 q 796 279 807 279 l 747 279 q 736 292 736 279 l 736 951 l 650 289 q 636 279 650 279 l 546 279 q 532 289 532 279 l 444 950 l 444 292 q 433 279 444 279 l 385 279 z "},"◊":{"ha":847,"x_min":53,"x_max":792,"o":"m 379 0 q 369 7 374 0 l 58 507 q 58 519 53 514 l 368 1019 q 379 1026 372 1026 l 468 1026 q 478 1019 474 1026 l 789 519 q 789 507 792 514 l 478 7 q 468 0 474 0 l 379 0 m 424 63 l 699 513 l 424 964 l 149 513 l 424 63 z "}}}
